<svg width="39" height="44" viewBox="0 0 39 44" fill="none" xmlns="http://www.w3.org/2000/svg">
<g id="Group">
<path id="Vector" d="M38 28.8893C38 36.4707 30.0683 43 19.75 43C9.43171 43 1.5 36.4707 1.5 28.8893C1.5 25.8154 2.6233 22.5264 4.38689 19.274C6.14557 16.0307 8.50313 12.8929 10.8817 10.1402C13.2575 7.39061 15.6364 5.0457 17.4226 3.38748C18.315 2.55898 19.0578 1.90342 19.5762 1.45611C19.6373 1.40337 19.6953 1.35353 19.75 1.30665C19.8048 1.35352 19.8627 1.40335 19.9239 1.45608C20.4422 1.90337 21.185 2.55889 22.0775 3.38734C23.8636 5.04547 26.2425 7.39028 28.6183 10.1398C30.9969 12.8924 33.3544 16.0302 35.1131 19.2735C36.8767 22.5259 38 25.8151 38 28.8893Z" fill="white" stroke="#800000" stroke-width="2"/>
<path id="Vector 8" d="M6.99999 15.5H31.5C39.4454 23.4235 37.4179 31.154 36.9449 32.5508C35.4315 42.3027 24.5176 43.254 19 43C4.24428 42.6953 1.34235 32.5633 1.49999 28.5C1.12164 25.1478 4.00471 18.4205 6.99999 15.5Z" fill="#800000"/>
</g>
</svg>
