<svg width="18" height="18" viewBox="0 0 18 18" fill="none" xmlns="http://www.w3.org/2000/svg">
<g id="chevron-double-down 1" clip-path="url(#clip0_94_259)">
<g id="Group">
<path id="Vector" d="M8.28141 0.692898C8.08291 0.891457 7.9714 1.16072 7.9714 1.44149C7.9714 1.72225 8.08291 1.99152 8.28141 2.19007L13.6969 7.6049C13.8609 7.76877 13.9909 7.96333 14.0796 8.17747C14.1683 8.3916 14.214 8.62111 14.214 8.8529C14.214 9.08468 14.1683 9.31419 14.0796 9.52833C13.9909 9.74246 13.8609 9.93702 13.6969 10.1009L8.28141 15.5157C8.17729 15.6126 8.09375 15.7294 8.03576 15.8592C7.97776 15.989 7.94652 16.1292 7.94387 16.2714C7.94123 16.4135 7.96725 16.5548 8.02038 16.6867C8.07351 16.8186 8.15266 16.9384 8.25311 17.039C8.35356 17.1397 8.47325 17.219 8.60504 17.2724C8.73683 17.3258 8.87802 17.3521 9.02019 17.3497C9.16236 17.3473 9.30259 17.3164 9.43253 17.2586C9.56246 17.2009 9.67944 17.1175 9.77647 17.0136L15.192 11.5981C15.92 10.87 16.3291 9.88253 16.3291 8.8529C16.3291 7.82326 15.92 6.8358 15.192 6.10772L9.77647 0.692192C9.578 0.49434 9.30919 0.38324 9.02894 0.38324C8.7487 0.38324 8.47988 0.495046 8.28141 0.692898Z" fill="white"/>
<path id="Vector_2" d="M1.54518 0.693175C1.34668 0.891734 1.23517 1.161 1.23517 1.44176C1.23517 1.72253 1.34668 1.99179 1.54518 2.19035L7.95882 8.60329C8.02499 8.66948 8.06216 8.75924 8.06216 8.85282C8.06216 8.94641 8.02499 9.03617 7.95882 9.10235L1.54588 15.516C1.35627 15.7162 1.25222 15.9824 1.25586 16.2581C1.2595 16.5338 1.37054 16.7972 1.56536 16.9923C1.76019 17.1874 2.02343 17.2988 2.29912 17.3029C2.57482 17.3069 2.8412 17.2032 3.04165 17.0139L9.45176 10.6002C9.91428 10.1364 10.174 9.50817 10.174 8.85318C10.174 8.19818 9.91428 7.56991 9.45176 7.10612L3.04165 0.692469C2.84312 0.494186 2.574 0.382812 2.29341 0.382812C2.01282 0.382812 1.74371 0.494892 1.54518 0.693175Z" fill="white"/>
</g>
</g>
<defs>
<clipPath id="clip0_94_259">
<rect width="16.9412" height="16.9412" fill="white" transform="matrix(4.37114e-08 1 1 -4.37114e-08 0.529411 0.382324)"/>
</clipPath>
</defs>
</svg>
