<svg width="20" height="30" viewBox="0 0 20 30" fill="none" xmlns="http://www.w3.org/2000/svg">
<path id="Vector" d="M18.851 17.08C18.8141 16.9777 18.7706 16.8779 18.7207 16.7812L18.727 16.795C18.5441 16.3688 17.0732 13.5338 16.8276 13.1475L9.99813 0L2.99452 13.47C2.75647 13.8575 1.45096 16.37 1.27055 16.795L1.19913 16.9525C0.734721 18.0856 0.497214 19.2984 0.500025 20.5225C0.500025 23.0361 1.50085 25.4467 3.28232 27.2241C5.0638 29.0015 7.48 30 9.99939 30C12.5188 30 14.935 29.0015 16.7164 27.2241C18.4979 25.4467 19.4987 23.0361 19.4987 20.5225V20.515L19.5 20.3887C19.5 19.195 19.262 18.0563 18.8297 17.0188L18.851 17.0775V17.08ZM10.0031 27.5237C8.78794 27.524 7.59363 27.2085 6.53776 26.6084C5.4819 26.0082 4.60091 25.144 3.9815 24.1009C3.3621 23.0579 3.02564 21.8718 3.00526 20.6596C2.98488 19.4474 3.28128 18.2507 3.86527 17.1875L3.84648 17.2238C3.75483 17.7105 3.7087 18.2047 3.70866 18.7V18.7013C3.70999 20.9207 4.59428 23.0489 6.1673 24.6183C7.74031 26.1877 9.87339 27.0699 12.098 27.0712C12.2395 27.0712 12.3911 27.0712 12.5315 27.0637C11.731 27.3716 10.8799 27.5276 10.0219 27.5237H9.99312H10.0031Z" fill="#800000"/>
</svg>
