<svg width="19" height="21" viewBox="0 0 19 21" fill="none" xmlns="http://www.w3.org/2000/svg">
<g id="Group">
<path id="Vector" fill-rule="evenodd" clip-rule="evenodd" d="M9.29873 3.56885H2.23527C1.00028 3.56885 0 4.63562 0 5.94969V17.8516C0 19.1668 1.00028 20.2325 2.23527 20.2325H14.5293C15.7643 20.2325 16.7645 19.1668 16.7645 17.8516V9.13987L12.3901 13.7981C12.0081 14.209 11.5106 14.4929 10.964 14.612L7.96762 15.2505C6.01176 15.6664 4.28837 13.8307 4.67954 11.7489L5.27859 8.55759C5.387 7.98206 5.653 7.4526 6.04306 7.03781L9.29873 3.56885Z" fill="white"/>
<path id="Vector_2" fill-rule="evenodd" clip-rule="evenodd" d="M18.8274 1.48048C18.7144 1.19275 18.5487 0.928892 18.339 0.702608C18.1327 0.481306 17.8841 0.304267 17.608 0.182151C17.3361 0.0620259 17.0423 0 16.7452 0C16.4482 0 16.1544 0.0620259 15.8824 0.182151C15.6064 0.304267 15.3577 0.481306 15.1515 0.702608L14.5412 1.35234L17.7287 4.74711L18.339 4.09626C18.5509 3.87169 18.7169 3.60738 18.8274 3.31838C19.0576 2.72763 19.0576 2.07123 18.8274 1.48048ZM16.1495 6.42988L12.9609 3.03399L7.62197 8.72192C7.5432 8.80633 7.49007 8.91164 7.46885 9.02543L6.8698 12.2179C6.79156 12.6338 7.13691 13.0002 7.52697 12.9171L10.5245 12.2797C10.6335 12.2552 10.7328 12.1985 10.8095 12.1167L16.1495 6.42988Z" fill="white"/>
</g>
</svg>
