<svg width="22" height="22" viewBox="0 0 22 22" fill="none" xmlns="http://www.w3.org/2000/svg">
<g id="Group 11">
<path id="Vector" d="M9.37502 11C9.37502 11.2984 9.49354 11.5845 9.70452 11.7955C9.91549 12.0065 10.2016 12.125 10.5 12.125C10.7984 12.125 11.0845 12.0065 11.2955 11.7955C11.5065 11.5845 11.625 11.2984 11.625 11C11.625 10.7016 11.5065 10.4155 11.2955 10.2045C11.0845 9.99353 10.7984 9.875 10.5 9.875C10.2016 9.875 9.91549 9.99353 9.70452 10.2045C9.49354 10.4155 9.37502 10.7016 9.37502 11ZM14.0625 11C14.0625 11.2984 14.181 11.5845 14.392 11.7955C14.6029 12.0065 14.8891 12.125 15.1874 12.125C15.4858 12.125 15.772 12.0065 15.9829 11.7955C16.1939 11.5845 16.3124 11.2984 16.3124 11C16.3124 10.7016 16.1939 10.4155 15.9829 10.2045C15.772 9.99353 15.4858 9.875 15.1874 9.875C14.8891 9.875 14.6029 9.99353 14.392 10.2045C14.181 10.4155 14.0625 10.7016 14.0625 11ZM4.68757 11C4.68757 11.2984 4.8061 11.5845 5.01707 11.7955C5.22805 12.0065 5.5142 12.125 5.81256 12.125C6.11092 12.125 6.39707 12.0065 6.60805 11.7955C6.81902 11.5845 6.93755 11.2984 6.93755 11C6.93755 10.7016 6.81902 10.4155 6.60805 10.2045C6.39707 9.99353 6.11092 9.875 5.81256 9.875C5.5142 9.875 5.22805 9.99353 5.01707 10.2045C4.8061 10.4155 4.68757 10.7016 4.68757 11ZM20.1843 6.93125C19.6546 5.67266 18.8952 4.54297 17.9273 3.57266C16.966 2.60798 15.825 1.84117 14.5687 1.31563C13.2797 0.774219 11.9109 0.5 10.5 0.5H10.4531C9.03283 0.507031 7.65707 0.788281 6.36333 1.34141C5.1178 1.87234 3.98744 2.64052 3.03525 3.60312C2.07667 4.57109 1.32434 5.69609 0.804029 6.95C0.264973 8.24844 -0.0068982 9.62891 0.000132966 11.0492C0.0080858 12.6769 0.393156 14.2806 1.12512 15.7344V19.2969C1.12512 19.5828 1.23871 19.857 1.44089 20.0592C1.64308 20.2614 1.9173 20.375 2.20323 20.375H5.76803C7.22183 21.107 8.82548 21.492 10.4531 21.5H10.5023C11.9062 21.5 13.2679 21.2281 14.5499 20.6961C15.7999 20.1768 16.9367 19.419 17.8968 18.4648C18.8647 17.5063 19.6264 16.3859 20.1585 15.1367C20.7116 13.843 20.9928 12.4672 20.9999 11.0469C21.0069 9.61953 20.7303 8.23438 20.1843 6.93125ZM16.6429 17.1969C14.9999 18.8234 12.8203 19.7188 10.5 19.7188H10.4602C9.04689 19.7117 7.64301 19.3602 6.40318 18.6992L6.20631 18.5938H2.90635V15.2938L2.80088 15.0969C2.13995 13.857 1.78839 12.4531 1.78136 11.0398C1.77199 8.70312 2.66494 6.50937 4.3032 4.85703C5.93912 3.20469 8.12581 2.29062 10.4625 2.28125H10.5023C11.6742 2.28125 12.8109 2.50859 13.882 2.95859C14.9273 3.39687 15.8648 4.02734 16.671 4.83359C17.4749 5.6375 18.1077 6.57734 18.546 7.62266C19.0007 8.70547 19.228 9.85391 19.2233 11.0398C19.2093 13.3742 18.2929 15.5609 16.6429 17.1969Z" fill="white"/>
<circle id="Ellipse 262" cx="18.5" cy="6" r="3.5" fill="white"/>
</g>
</svg>
