<svg width="110" height="19" viewBox="0 0 110 19" fill="none" xmlns="http://www.w3.org/2000/svg">
<path d="M0.68 18V0.839999H3.512L11.192 0.816C14.296 0.816 16.704 1.544 18.416 3C20.128 4.456 20.984 6.592 20.984 9.408C20.984 12.224 20.128 14.36 18.416 15.816C16.704 17.272 14.296 18 11.192 18H0.68ZM10.928 3.936H4.52V14.88H10.928C12.944 14.88 14.472 14.44 15.512 13.56C16.552 12.68 17.072 11.296 17.072 9.408C17.072 7.504 16.552 6.12 15.512 5.256C14.472 4.376 12.944 3.936 10.928 3.936ZM30.8069 18.12C28.6629 18.12 26.9909 17.592 25.7909 16.536C24.5909 15.464 23.9909 13.896 23.9909 11.832C23.9909 9.752 24.5909 8.184 25.7909 7.128C26.9909 6.056 28.6629 5.52 30.8069 5.52H35.2469C37.3909 5.52 39.0629 6.056 40.2629 7.128C41.4629 8.184 42.0629 9.752 42.0629 11.832C42.0629 13.896 41.4629 15.464 40.2629 16.536C39.0629 17.592 37.3909 18.12 35.2469 18.12H30.8069ZM30.8069 15.36H35.2469C36.2869 15.36 37.0789 15.072 37.6229 14.496C38.1829 13.92 38.4629 13.032 38.4629 11.832C38.4629 10.616 38.1829 9.72 37.6229 9.144C37.0789 8.568 36.2869 8.28 35.2469 8.28H30.8069C29.7669 8.28 28.9669 8.568 28.4069 9.144C27.8629 9.72 27.5909 10.616 27.5909 11.832C27.5909 13.032 27.8629 13.92 28.4069 14.496C28.9669 15.072 29.7669 15.36 30.8069 15.36ZM45.6688 18V5.64H56.4448C57.8528 5.64 58.8768 5.992 59.5168 6.696C60.1728 7.384 60.5008 8.296 60.5008 9.432V18H57.0208V9.84C57.0208 8.88 56.5408 8.4 55.5808 8.4H49.1488V18H45.6688ZM96.3481 18V5.64H105.804C107.196 5.64 108.22 5.992 108.876 6.696C109.532 7.384 109.86 8.296 109.86 9.432V12H106.332V9.864C106.332 8.904 105.852 8.424 104.892 8.424H99.8761V18H96.3481Z" fill="white"/>
<path d="M70.7885 18.12C68.6445 18.12 66.9725 17.592 65.7725 16.536C64.5725 15.464 63.9725 13.896 63.9725 11.832C63.9725 9.752 64.5725 8.184 65.7725 7.128C66.9725 6.056 68.6445 5.52 70.7885 5.52H75.2285C77.3725 5.52 79.0445 6.056 80.2445 7.128C81.4445 8.184 82.0445 9.752 82.0445 11.832C82.0445 13.896 81.4445 15.464 80.2445 16.536C79.0445 17.592 77.3725 18.12 75.2285 18.12H70.7885ZM70.7885 15.36H75.2285C76.2685 15.36 77.0605 15.072 77.6045 14.496C78.1645 13.92 78.4445 13.032 78.4445 11.832C78.4445 10.616 78.1645 9.72 77.6045 9.144C77.0605 8.568 76.2685 8.28 75.2285 8.28H70.7885C69.7485 8.28 68.9485 8.568 68.3885 9.144C67.8445 9.72 67.5725 10.616 67.5725 11.832C67.5725 13.032 67.8445 13.92 68.3885 14.496C68.9485 15.072 69.7485 15.36 70.7885 15.36ZM85.2903 12.384V9.624H92.6343V12.384H85.2903Z" fill="#FF0000"/>
</svg>
