<svg width="36" height="36" viewBox="0 0 36 36" fill="none" xmlns="http://www.w3.org/2000/svg">
<g id="Group 17">
<path id="Vector" d="M18 1.28793L19.2744 0.377702C19.1072 0.257976 18.9086 0.162985 18.6899 0.098173C18.4712 0.0333606 18.2368 0 18 0C17.7632 0 17.5288 0.0333606 17.3101 0.098173C17.0914 0.162985 16.8928 0.257976 16.7256 0.377702L18 1.28793ZM18 1.28793L16.7256 0.377702L16.722 0.380273C16.722 0.385416 16.7184 0.388844 16.7112 0.390559L16.6716 0.418843L16.5276 0.524265L15.9912 0.925382C13.2488 3.02844 10.72 5.26855 8.424 7.62867C4.3308 11.843 0 17.5846 0 23.1437H3.6C3.6 18.4151 7.3692 13.2289 11.3796 9.09172C13.7131 6.69733 16.2969 4.43244 19.1088 2.31644L19.2348 2.22387L19.2636 2.2033L19.2708 2.19816L18 1.28793ZM36 23.1437C36 17.5872 31.6692 11.8455 27.5796 7.6261C25.2823 5.26678 22.7523 3.02753 20.0088 0.925382L19.4724 0.524265L19.3284 0.418843L19.2924 0.390559L19.278 0.382844L19.2744 0.377702L18 1.28793L16.7256 2.19559L16.7328 2.2033L16.7652 2.22387C16.9769 2.37445 17.1834 2.52878 17.3844 2.6867C20.0061 4.69548 22.4242 6.83504 24.6204 9.08915C28.6308 13.2315 32.4 18.4177 32.4 23.1437H36ZM32.4 23.1437C32.4 25.8714 30.8829 28.4875 28.1823 30.4163C25.4818 32.3451 21.8191 33.4287 18 33.4287V36C22.7739 36 27.3523 34.6455 30.7279 32.2345C34.1036 29.8234 36 26.5534 36 23.1437H32.4ZM18 33.4287C14.1809 33.4287 10.5182 32.3451 7.81766 30.4163C5.11714 28.4875 3.6 25.8714 3.6 23.1437H0C0 26.5534 1.89642 29.8234 5.27208 32.2345C8.64773 34.6455 13.2261 36 18 36V33.4287Z" fill="black"/>
<path id="Vector_2" d="M18 11.4546C18.2712 11.4546 18.5314 11.5623 18.7232 11.7541C18.915 11.9459 19.0227 12.2061 19.0227 12.4773V18.6137H25.1591C25.4303 18.6137 25.6905 18.7214 25.8823 18.9132C26.0741 19.105 26.1818 19.3652 26.1818 19.6364C26.1818 19.9077 26.0741 20.1678 25.8823 20.3596C25.6905 20.5514 25.4303 20.6591 25.1591 20.6591H19.0227V26.7955C19.0227 27.0667 18.915 27.3269 18.7232 27.5187C18.5314 27.7105 18.2712 27.8182 18 27.8182C17.7288 27.8182 17.4686 27.7105 17.2768 27.5187C17.085 27.3269 16.9773 27.0667 16.9773 26.7955V20.6591H10.8409C10.5697 20.6591 10.3095 20.5514 10.1177 20.3596C9.92593 20.1678 9.81818 19.9077 9.81818 19.6364C9.81818 19.3652 9.92593 19.105 10.1177 18.9132C10.3095 18.7214 10.5697 18.6137 10.8409 18.6137H16.9773V12.4773C16.9773 12.2061 17.085 11.9459 17.2768 11.7541C17.4686 11.5623 17.7288 11.4546 18 11.4546Z" fill="black"/>
</g>
</svg>
