<svg width="144" height="144" viewBox="0 0 144 144" fill="none" xmlns="http://www.w3.org/2000/svg">
<rect width="144" height="144" rx="15" fill="black"/>
<path d="M26.7764 61.0664L29.2417 61.0269C33.5396 61.0269 36.5586 61.7388 38.2988 63.1626C38.668 63.4351 39.0723 63.8921 39.5117 64.5337C40.7861 66.3882 41.4233 68.436 41.4233 70.6772C41.4233 74.6763 40.0479 77.6338 37.2969 79.5498C35.6533 80.7012 33.7637 81.2856 31.6279 81.3032L31.5752 81.356H31.2456L27.7388 81.3164C26.1479 81.3164 24.1572 81.356 21.7666 81.4351C21.5996 81.1187 21.5161 80.7451 21.5161 80.3145L21.5293 79.8398V77.7832L21.5557 74.8564V70.0312C21.5381 68.9238 21.5293 68.0977 21.5293 67.5527V65.3906L21.5425 65.0874V61.3169C21.5425 61.2466 22.0215 61.1895 22.9795 61.1455C23.9375 61.0928 24.7021 61.0664 25.2734 61.0664H26.7764ZM32.3662 65.6279C31.8652 65.2676 31.3115 65.0654 30.7051 65.0215C30.4941 65.0127 30.2041 65.0039 29.835 64.9951C29.4746 64.9863 29.2109 64.9775 29.0439 64.9688C28.8857 65.2061 28.7803 65.3818 28.7275 65.4961L28.4902 65.9839V66.7222C28.4902 68.2427 28.5254 70.3037 28.5957 72.9053L28.6748 76.7153C28.7275 76.9878 28.9033 77.1504 29.2021 77.2031C30.1074 77.1855 30.8062 77.124 31.2983 77.0186C33.0298 76.4033 33.8955 74.2983 33.8955 70.7036C33.8955 68.0405 33.3857 66.3486 32.3662 65.6279ZM63.2933 73.0239C63.2758 73.1118 63.267 73.1646 63.267 73.1821V73.2876C63.2406 74.7378 62.9066 76.043 62.265 77.2031H62.2782C61.3817 78.5742 60.1293 79.6289 58.5209 80.3672C56.9213 81.1055 55.3436 81.4746 53.788 81.4746C52.2323 81.4746 50.9403 81.3208 49.912 81.0132C48.8925 80.7144 47.9476 80.2749 47.0775 79.6948C46.2074 79.1147 45.5614 78.5566 45.1395 78.0205C44.1376 76.7549 43.6366 74.9663 43.6366 72.6548C43.6366 72.5757 43.6498 72.5098 43.6762 72.457V72.2461C43.6498 72.2109 43.6366 72.1758 43.6366 72.1406L43.663 71.9956H43.6498C43.8168 70.4575 44.142 69.4468 44.6254 68.9634C44.6254 68.8667 44.6869 68.7568 44.8099 68.6338V68.647L45.0077 68.3306C46.0448 67.0034 47.2313 66.0938 48.5673 65.6016L49.0287 65.4302C49.6088 65.1489 50.4218 64.938 51.4677 64.7974L51.8895 64.7578C51.9511 64.749 52.0741 64.7402 52.2587 64.7314C52.452 64.7227 52.5883 64.7051 52.6674 64.6787L53.2343 64.6919C53.2606 64.6831 53.2914 64.6787 53.3265 64.6787C53.3617 64.6787 53.4013 64.6831 53.4452 64.6919L53.432 64.6787C53.4847 64.7051 53.5638 64.7183 53.6693 64.7183C53.7045 64.6831 53.766 64.6655 53.8539 64.6655C55.7611 64.6655 57.3827 65.0566 58.7186 65.8389L58.9823 65.9575C61.8563 67.3374 63.2933 69.6929 63.2933 73.0239ZM55.0931 73.103C55.058 71.354 54.8075 70.1719 54.3417 69.5566C54.1483 69.3018 53.911 69.1743 53.6298 69.1743C53.3573 69.1743 53.1156 69.3369 52.9047 69.6621C52.6937 69.9785 52.5223 70.4795 52.3905 71.165C52.2675 71.8506 52.2059 72.4614 52.2059 72.9976C52.2059 73.5249 52.2279 73.9819 52.2719 74.3687C52.3246 74.7466 52.3993 75.1509 52.496 75.5815C52.5927 76.0034 52.7421 76.3594 52.9442 76.6494C53.1464 76.9307 53.3749 77.0713 53.6298 77.0713C54.6054 77.0713 55.0931 75.7485 55.0931 73.103ZM69.8308 65.2324L73.364 65.2192C73.408 65.4038 73.4871 65.6938 73.6013 66.0894C73.7156 66.4849 73.8255 66.8804 73.9309 67.2759L74.1814 68.2646C74.533 67.377 74.7483 66.8848 74.8274 66.7881L75.0383 66.5244C75.926 65.2764 77.2883 64.6523 79.1253 64.6523C79.9954 64.6523 80.8215 64.916 81.6038 65.4434C82.3948 65.9619 83.01 66.6431 83.4495 67.4868C83.8889 68.3218 84.1087 69.2051 84.1087 70.1367C84.1087 70.2422 84.0955 70.3257 84.0691 70.3872V78.4951L84.0823 81.0132H76.3699L76.3435 74.4214L76.3963 73.0767C76.3963 71.7319 76.0403 71.0596 75.3284 71.0596C74.5637 71.0596 74.1814 71.6968 74.1814 72.9712C74.1814 73.2524 74.1858 73.4458 74.1946 73.5513V73.749L74.2078 73.9731V81L70.2791 81.0132H66.3372L66.324 73.103V65.2192L69.8308 65.2324ZM109.232 65.2192L112.739 65.2061H116.246L116.536 66.9727C116.738 68.2119 116.856 68.915 116.892 69.082H117.353C117.678 67.5791 118.302 66.5112 119.225 65.8784L119.752 65.5752C119.779 65.5225 119.937 65.4258 120.227 65.2852L120.174 65.2983L120.477 65.1797C121.339 64.8369 122.081 64.6611 122.705 64.6523C122.837 64.6523 122.925 64.6611 122.969 64.6787H123.457V72.0352C123.272 71.9912 122.982 71.9692 122.587 71.9692C122.191 71.9692 121.783 72.0264 121.361 72.1406C120.948 72.2549 120.596 72.4043 120.306 72.5889C120.025 72.7646 119.779 72.9932 119.568 73.2744C118.917 74.1445 118.592 75.4497 118.592 77.1899L118.619 78.5742V81L113.925 81.0132H109.245L109.232 73.1426V65.2192Z" fill="white"/>
<path d="M102.522 73.0947C102.495 73.0162 102.463 72.9397 102.426 72.8656L102.43 72.8762C102.296 72.5494 101.212 70.3759 101.031 70.0798L95.9986 60L90.8381 70.327C90.6627 70.6241 89.7007 72.5503 89.5678 72.8762L89.5152 72.9969C89.173 73.8656 88.9979 74.7954 89 75.7339C89 77.661 89.7375 79.5092 91.0501 80.8718C92.3628 82.2345 94.1432 83 95.9995 83C97.8559 83 99.6363 82.2345 100.949 80.8718C102.262 79.5092 102.999 77.661 102.999 75.7339V75.7282L103 75.6314C103 74.7162 102.825 73.8431 102.506 73.0477L102.522 73.0928V73.0947ZM96.0023 81.1015C95.1069 81.1017 94.2269 80.8599 93.4489 80.3997C92.6709 79.9396 92.0217 79.2771 91.5653 78.4774C91.1089 77.6777 90.861 76.7684 90.846 75.839C90.831 74.9096 91.0494 73.9922 91.4797 73.1771L91.4658 73.2049C91.3983 73.5781 91.3643 73.957 91.3643 74.3367V74.3376C91.3653 76.0392 92.0168 77.6708 93.1759 78.874C94.335 80.0772 95.9067 80.7536 97.5459 80.7546C97.6502 80.7546 97.7619 80.7546 97.8653 80.7489C97.2754 80.9849 96.6483 81.1045 96.0162 81.1015H95.9949H96.0023Z" fill="#FF0000"/>
</svg>
