<svg width="105" height="41" viewBox="0 0 105 41" fill="none" xmlns="http://www.w3.org/2000/svg">
<path d="M6.77637 9.06641L9.2417 9.02686C13.5396 9.02686 16.5586 9.73877 18.2988 11.1626C18.668 11.4351 19.0723 11.8921 19.5117 12.5337C20.7861 14.3882 21.4233 16.436 21.4233 18.6772C21.4233 22.6763 20.0479 25.6338 17.2969 27.5498C15.6533 28.7012 13.7637 29.2856 11.6279 29.3032L11.5752 29.356H11.2456L7.73877 29.3164C6.14795 29.3164 4.15723 29.356 1.7666 29.4351C1.59961 29.1187 1.51611 28.7451 1.51611 28.3145L1.5293 27.8398V25.7832L1.55566 22.8564V18.0312C1.53809 16.9238 1.5293 16.0977 1.5293 15.5527V13.3906L1.54248 13.0874V9.31689C1.54248 9.24658 2.02148 9.18945 2.97949 9.14551C3.9375 9.09277 4.70215 9.06641 5.27344 9.06641H6.77637ZM12.3662 13.6279C11.8652 13.2676 11.3115 13.0654 10.7051 13.0215C10.4941 13.0127 10.2041 13.0039 9.83496 12.9951C9.47461 12.9863 9.21094 12.9775 9.04395 12.9688C8.88574 13.2061 8.78027 13.3818 8.72754 13.4961L8.49023 13.9839V14.7222C8.49023 16.2427 8.52539 18.3037 8.5957 20.9053L8.6748 24.7153C8.72754 24.9878 8.90332 25.1504 9.20215 25.2031C10.1074 25.1855 10.8062 25.124 11.2983 25.0186C13.0298 24.4033 13.8955 22.2983 13.8955 18.7036C13.8955 16.0405 13.3857 14.3486 12.3662 13.6279ZM43.2933 21.0239C43.2758 21.1118 43.267 21.1646 43.267 21.1821V21.2876C43.2406 22.7378 42.9066 24.043 42.265 25.2031H42.2782C41.3817 26.5742 40.1293 27.6289 38.5209 28.3672C36.9213 29.1055 35.3436 29.4746 33.788 29.4746C32.2323 29.4746 30.9403 29.3208 29.912 29.0132C28.8925 28.7144 27.9476 28.2749 27.0775 27.6948C26.2074 27.1147 25.5614 26.5566 25.1395 26.0205C24.1376 24.7549 23.6366 22.9663 23.6366 20.6548C23.6366 20.5757 23.6498 20.5098 23.6762 20.457V20.2461C23.6498 20.2109 23.6366 20.1758 23.6366 20.1406L23.663 19.9956H23.6498C23.8168 18.4575 24.142 17.4468 24.6254 16.9634C24.6254 16.8667 24.6869 16.7568 24.8099 16.6338V16.647L25.0077 16.3306C26.0448 15.0034 27.2313 14.0937 28.5673 13.6016L29.0287 13.4302C29.6088 13.1489 30.4218 12.938 31.4677 12.7974L31.8895 12.7578C31.9511 12.749 32.0741 12.7402 32.2587 12.7314C32.452 12.7227 32.5883 12.7051 32.6674 12.6787L33.2343 12.6919C33.2606 12.6831 33.2914 12.6787 33.3265 12.6787C33.3617 12.6787 33.4013 12.6831 33.4452 12.6919L33.432 12.6787C33.4847 12.7051 33.5638 12.7183 33.6693 12.7183C33.7045 12.6831 33.766 12.6655 33.8539 12.6655C35.7611 12.6655 37.3827 13.0566 38.7186 13.8389L38.9823 13.9575C41.8563 15.3374 43.2933 17.6929 43.2933 21.0239ZM35.0931 21.103C35.058 19.354 34.8075 18.1719 34.3417 17.5566C34.1483 17.3018 33.911 17.1743 33.6298 17.1743C33.3573 17.1743 33.1156 17.3369 32.9047 17.6621C32.6937 17.9785 32.5223 18.4795 32.3905 19.165C32.2675 19.8506 32.2059 20.4614 32.2059 20.9976C32.2059 21.5249 32.2279 21.9819 32.2719 22.3687C32.3246 22.7466 32.3993 23.1509 32.496 23.5815C32.5927 24.0034 32.7421 24.3594 32.9442 24.6494C33.1464 24.9307 33.3749 25.0713 33.6298 25.0713C34.6054 25.0713 35.0931 23.7485 35.0931 21.103ZM49.8308 13.2324L53.364 13.2192C53.408 13.4038 53.4871 13.6938 53.6013 14.0894C53.7156 14.4849 53.8255 14.8804 53.9309 15.2759L54.1814 16.2646C54.533 15.377 54.7483 14.8848 54.8274 14.7881L55.0383 14.5244C55.926 13.2764 57.2883 12.6523 59.1253 12.6523C59.9954 12.6523 60.8215 12.916 61.6038 13.4434C62.3948 13.9619 63.01 14.6431 63.4495 15.4868C63.8889 16.3218 64.1087 17.2051 64.1087 18.1367C64.1087 18.2422 64.0955 18.3257 64.0691 18.3872V26.4951L64.0823 29.0132H56.3699L56.3435 22.4214L56.3963 21.0767C56.3963 19.7319 56.0403 19.0596 55.3284 19.0596C54.5637 19.0596 54.1814 19.6968 54.1814 20.9712C54.1814 21.2524 54.1858 21.4458 54.1946 21.5513V21.749L54.2078 21.9731V29L50.2791 29.0132H46.3372L46.324 21.103V13.2192L49.8308 13.2324ZM89.2318 13.2192L92.7387 13.2061H96.2455L96.5355 14.9727C96.7377 16.2119 96.8563 16.915 96.8915 17.082H97.3529C97.6781 15.5791 98.3021 14.5112 99.225 13.8784L99.7523 13.5752C99.7787 13.5225 99.9369 13.4258 100.227 13.2852L100.174 13.2983L100.477 13.1797C101.339 12.8369 102.081 12.6611 102.705 12.6523C102.837 12.6523 102.925 12.6611 102.969 12.6787H103.457V20.0352C103.272 19.9912 102.982 19.9692 102.587 19.9692C102.191 19.9692 101.783 20.0264 101.361 20.1406C100.948 20.2549 100.596 20.4043 100.306 20.5889C100.025 20.7646 99.7787 20.9932 99.5678 21.2744C98.9174 22.1445 98.5922 23.4497 98.5922 25.1899L98.6186 26.5742V29L93.9252 29.0132H89.245L89.2318 21.1426V13.2192Z" fill="white"/>
<path d="M82.5218 21.0947C82.4946 21.0162 82.4626 20.9397 82.4258 20.8656L82.4304 20.8762C82.2956 20.5494 81.2118 18.3759 81.0309 18.0798L75.9986 8L70.8381 18.327C70.6627 18.6241 69.7007 20.5503 69.5678 20.8762L69.5152 20.9969C69.173 21.8656 68.9979 22.7954 69 23.7339C69 25.661 69.7375 27.5092 71.0501 28.8718C72.3628 30.2345 74.1432 31 75.9995 31C77.8559 31 79.6363 30.2345 80.949 28.8718C82.2616 27.5092 82.9991 25.661 82.9991 23.7339V23.7282L83 23.6314C83 22.7162 82.8246 21.8431 82.5061 21.0477L82.5218 21.0928V21.0947ZM76.0023 29.1015C75.1069 29.1017 74.2269 28.8599 73.4489 28.3997C72.6709 27.9396 72.0217 27.2771 71.5653 26.4774C71.1089 25.6777 70.861 24.7684 70.846 23.839C70.831 22.9096 71.0494 21.9922 71.4797 21.1771L71.4658 21.2049C71.3983 21.5781 71.3643 21.957 71.3643 22.3367V22.3376C71.3653 24.0392 72.0168 25.6708 73.1759 26.874C74.335 28.0772 75.9067 28.7536 77.5459 28.7546C77.6502 28.7546 77.7619 28.7546 77.8653 28.7489C77.2754 28.9849 76.6483 29.1045 76.0162 29.1015H75.9949H76.0023Z" fill="#FF0000"/>
</svg>
