<svg width="35" height="36" viewBox="0 0 35 36" fill="none" xmlns="http://www.w3.org/2000/svg">
<path d="M33.3669 20.496C33.3003 20.3731 33.2212 20.2533 33.13 20.1375L33.1414 20.154C32.8088 19.6425 30.1343 16.2405 29.6878 15.777L17.2701 0L4.53573 16.164C4.10289 16.629 1.72915 19.644 1.40111 20.154L1.27126 20.343C0.424332 21.7022 -0.00761291 23.1579 0.000101537 24.627C0.000101537 27.6433 1.81985 30.5361 5.05904 32.6689C8.29822 34.8018 12.6915 36 17.2724 36C21.8533 36 26.2465 34.8018 29.4857 32.6689C32.7249 30.5361 34.5447 27.6433 34.5447 24.627V24.618L34.5469 24.4665C34.5469 23.034 34.1141 21.6675 33.3282 20.4225L33.3669 20.493V20.496ZM17.2792 33.0285C15.0697 33.0288 12.8981 32.6502 10.9783 31.93C9.05844 31.2098 7.45656 30.1728 6.33032 28.9211C5.20408 27.6694 4.59232 26.2462 4.55527 24.7915C4.51821 23.3368 5.05713 21.9009 6.11898 20.625L6.08481 20.6685C5.91795 21.2526 5.83405 21.8457 5.83422 22.44V22.4415C5.83664 25.1048 7.44452 27.6587 10.3047 29.5419C13.1648 31.4252 17.0433 32.4839 21.0881 32.4855C21.3456 32.4855 21.6212 32.4855 21.8763 32.4765C20.4204 32.8449 18.8732 33.0321 17.3134 33.0285H17.261H17.2792Z" fill="#800000"/>
</svg>
