<svg width="40" height="45" viewBox="0 0 40 45" fill="none" xmlns="http://www.w3.org/2000/svg">
<g id="Group">
<path id="Vector" d="M37.9585 28.8893C37.9585 36.4707 30.0268 43 19.7085 43C9.39021 43 1.4585 36.4707 1.4585 28.8893C1.4585 25.8154 2.5818 22.5264 4.34539 19.274C6.10406 16.0307 8.46163 12.8929 10.8402 10.1402C13.216 7.39061 15.5949 5.0457 17.3811 3.38748C18.2735 2.55898 19.0163 1.90342 19.5347 1.45611C19.5958 1.40337 19.6538 1.35353 19.7085 1.30665C19.7633 1.35352 19.8212 1.40335 19.8823 1.45608C20.4007 1.90337 21.1435 2.55889 22.036 3.38734C23.8221 5.04547 26.201 7.39028 28.5768 10.1398C30.9554 12.8924 33.3129 16.0302 35.0716 19.2735C36.8352 22.5259 37.9585 25.8151 37.9585 28.8893Z" fill="white" stroke="#800000" stroke-width="2"/>
<path id="Vector 8" d="M9.45849 10.5H29.9585C38.3585 20.9 39.4585 27.1667 38.9585 29C37.3585 41.8 25.2918 44.3333 19.4585 44C3.8585 43.6 0.291825 32.8333 0.45849 27.5C0.05849 23.1 6.29182 14.3333 9.45849 10.5Z" fill="#800000"/>
</g>
</svg>
