<svg xmlns="http://www.w3.org/2000/svg" xmlns:xlink="http://www.w3.org/1999/xlink" version="1.1" width="24" height="24" viewBox="0 0 24 24">
<defs>
<clipPath id="clip_0">
<path transform="matrix(1,0,0,-1,0,24)" d="M21.520195 14.462028C21.520195 14.706851 21.42313 14.941648 21.25035 15.114763 21.077572 15.28788 20.843234 15.385136 20.598887 15.385136 20.35454 15.385136 20.120202 15.28788 19.947422 15.114763 19.774643 14.941648 19.677577 14.706851 19.677577 14.462028H21.520195ZM4.322424 14.462028C4.322424 14.706851 4.225358 14.941648 4.052579 15.114763 3.8798 15.28788 3.645462 15.385136 3.401115 15.385136 3.156769 15.385136 2.92243 15.28788 2.749651 15.114763 2.576872 14.941648 2.479806 14.706851 2.479806 14.462028H4.322424ZM22.404652 11.348077C22.488997 11.257382 22.59071 11.184638 22.703722 11.134185 22.816737 11.083732 22.938735 11.056602 23.062439 11.054415 23.186144 11.052228 23.30902 11.075028 23.423739 11.121456 23.538458 11.167884 23.64267 11.236987 23.730156 11.324644 23.817643 11.412301 23.88661 11.516715 23.932948 11.631658 23.979285 11.746601 24.002039 11.869718 23.999857 11.993664 23.997675 12.11761 23.970599 12.239846 23.920245 12.353081 23.869889 12.466314 23.797287 12.568226 23.70677 12.652736L22.404652 11.348077ZM12 23.077704 12.651058 23.730034C12.478312 23.902903 12.244147 24 12 24 11.755852 24 11.521688 23.902903 11.348942 23.730034L12 23.077704ZM.293232 12.652736C.202715 12.568226 .130113 12.466314 .079758 12.353081 .029403 12.239846 .002326 12.11761 .000143 11.993664-.002039 11.869718 .020717 11.746601 .067054 11.631658 .113391 11.516715 .182359 11.412301 .269845 11.324644 .357331 11.236987 .461542 11.167884 .576262 11.121456 .690981 11.075028 .813857 11.052228 .937562 11.054415 1.061267 11.056602 1.183264 11.083732 1.296278 11.134185 1.409291 11.184638 1.511004 11.257382 1.595349 11.348077L.293232 12.652736ZM5.857939 0H18.142062V1.846216H5.857939V0ZM21.520195 3.384729V14.462028H19.677577V3.384729H21.520195ZM4.322424 3.384729V14.462028H2.479806V3.384729H4.322424ZM23.70677 12.652736 12.651058 23.730034 11.348942 22.425375 22.404652 11.348077 23.70677 12.652736ZM11.348942 23.730034 .293232 12.652736 1.595349 11.348077 12.651058 22.425375 11.348942 23.730034ZM18.142062 0C19.037999 0 19.89724 .356604 20.530764 .991364 21.164286 1.626123 21.520195 2.487043 21.520195 3.384729H19.677577C19.677577 2.535471 18.989665 1.846216 18.142062 1.846216V0ZM5.857939 1.846216C5.010335 1.846216 4.322424 2.535471 4.322424 3.384729H2.479806C2.479806 2.487043 2.835715 1.626123 3.469238 .991364 4.102761 .356604 4.962002 0 5.857939 0V1.846216Z" fill-rule="evenodd"/>
</clipPath>
</defs>
<path transform="matrix(1,0,0,-1,7.937408,18.177735)" d="M8.26501 5.879389 4.535676 10.225098 .806342 5.879389C.302378 5.282919 0 4.516028 0 3.749139 0 1.704099 2.015856-.0001 4.535676-.0001 7.055496-.0001 9.071351 1.704099 9.071351 3.749139 9.071351 4.516028 8.768973 5.282919 8.26501 5.879389ZM7.055496 3.408299H5.03964V1.7041H4.031712V3.408299H2.015856V4.260399H4.031712V5.964599H5.03964V4.260399H7.055496V3.408299Z" fill="#800000"/>
<path transform="matrix(1,0,0,-1,0,24)" d="M21.520195 14.462028C21.520195 14.706851 21.42313 14.941648 21.25035 15.114763 21.077572 15.28788 20.843234 15.385136 20.598887 15.385136 20.35454 15.385136 20.120202 15.28788 19.947422 15.114763 19.774643 14.941648 19.677577 14.706851 19.677577 14.462028H21.520195ZM4.322424 14.462028C4.322424 14.706851 4.225358 14.941648 4.052579 15.114763 3.8798 15.28788 3.645462 15.385136 3.401115 15.385136 3.156769 15.385136 2.92243 15.28788 2.749651 15.114763 2.576872 14.941648 2.479806 14.706851 2.479806 14.462028H4.322424ZM22.404652 11.348077C22.488997 11.257382 22.59071 11.184638 22.703722 11.134185 22.816737 11.083732 22.938735 11.056602 23.062439 11.054415 23.186144 11.052228 23.30902 11.075028 23.423739 11.121456 23.538458 11.167884 23.64267 11.236987 23.730156 11.324644 23.817643 11.412301 23.88661 11.516715 23.932948 11.631658 23.979285 11.746601 24.002039 11.869718 23.999857 11.993664 23.997675 12.11761 23.970599 12.239846 23.920245 12.353081 23.869889 12.466314 23.797287 12.568226 23.70677 12.652736L22.404652 11.348077ZM12 23.077704 12.651058 23.730034C12.478312 23.902903 12.244147 24 12 24 11.755852 24 11.521688 23.902903 11.348942 23.730034L12 23.077704ZM.293232 12.652736C.202715 12.568226 .130113 12.466314 .079758 12.353081 .029403 12.239846 .002326 12.11761 .000143 11.993664-.002039 11.869718 .020717 11.746601 .067054 11.631658 .113391 11.516715 .182359 11.412301 .269845 11.324644 .357331 11.236987 .461542 11.167884 .576262 11.121456 .690981 11.075028 .813857 11.052228 .937562 11.054415 1.061267 11.056602 1.183264 11.083732 1.296278 11.134185 1.409291 11.184638 1.511004 11.257382 1.595349 11.348077L.293232 12.652736ZM5.857939 0H18.142062V1.846216H5.857939V0ZM21.520195 3.384729V14.462028H19.677577V3.384729H21.520195ZM4.322424 3.384729V14.462028H2.479806V3.384729H4.322424ZM23.70677 12.652736 12.651058 23.730034 11.348942 22.425375 22.404652 11.348077 23.70677 12.652736ZM11.348942 23.730034 .293232 12.652736 1.595349 11.348077 12.651058 22.425375 11.348942 23.730034ZM18.142062 0C19.037999 0 19.89724 .356604 20.530764 .991364 21.164286 1.626123 21.520195 2.487043 21.520195 3.384729H19.677577C19.677577 2.535471 18.989665 1.846216 18.142062 1.846216V0ZM5.857939 1.846216C5.010335 1.846216 4.322424 2.535471 4.322424 3.384729H2.479806C2.479806 2.487043 2.835715 1.626123 3.469238 .991364 4.102761 .356604 4.962002 0 5.857939 0V1.846216Z"/>
<g clip-path="url(#clip_0)">
<path transform="matrix(1,0,0,-1,0,24)" d="M19.677577 13.462028H21.520195V15.462028H19.677577V13.462028ZM2.479806 13.462028H4.322424V15.462028H2.479806V13.462028ZM22.998974 13.359153 21.696856 12.054494 23.112446 10.64166 24.414566 11.946319 22.998974 13.359153ZM2.303145 12.054494 1.001028 13.359153-.414564 11.946319 .887553 10.64166 2.303145 12.054494ZM19.142062 0V1.846216H17.142062V0H19.142062ZM4.857939 1.846216V0H6.857939V1.846216H4.857939ZM19.677577 2.384729H21.520195V4.384729H19.677577V2.384729ZM2.479806 2.384729H4.322424V4.384729H2.479806V2.384729ZM4.322424 14.462028H6.322424 4.322424ZM2.479806 14.462028H.479806 2.479806ZM22.404652 11.348077 23.8692 12.710097 23.84517 12.735935 23.820244 12.76091 22.404652 11.348077ZM23.70677 12.652736 22.291178 11.239902 22.316107 11.214924 22.341902 11.190841 23.70677 12.652736ZM12 23.077704 10.584407 21.664872 12 20.246514 13.415592 21.664872 12 23.077704ZM12.651058 23.730034 14.06665 25.142868 14.065771 25.143748 12.651058 23.730034ZM12 24V22 24ZM11.348942 23.730034 9.934229 25.143748 9.93335 25.142868 11.348942 23.730034ZM.293232 12.652736 1.6581 11.190841 1.683895 11.214924 1.708825 11.239902 .293232 12.652736ZM1.595349 11.348077 .179757 12.76091 .154831 12.735935 .130801 12.710097 1.595349 11.348077ZM11.348942 22.425375 9.93335 23.838208 8.52327 22.425374 9.93335 21.01254 11.348942 22.425375ZM12.651058 22.425375 14.06665 21.01254 15.47673 22.425374 14.06665 23.838208 12.651058 22.425375ZM23.520195 14.462028C23.520195 15.236024 23.213364 15.979107 22.665944 16.527598L19.834759 13.70193C19.632895 13.904187 19.520195 14.177679 19.520195 14.462028H23.520195ZM22.665944 16.527598C22.118393 17.076216 21.374928 17.385136 20.598887 17.385136V13.385136C20.311539 13.385136 20.03675 13.499544 19.834759 13.70193L22.665944 16.527598ZM20.598887 17.385136C19.822846 17.385136 19.079379 17.076216 18.53183 16.527598L21.363015 13.70193C21.161023 13.499544 20.886235 13.385136 20.598887 13.385136V17.385136ZM18.53183 16.527598C17.984408 15.979107 17.677577 15.236024 17.677577 14.462028H21.677577C21.677577 14.177679 21.564877 13.904187 21.363015 13.70193L18.53183 16.527598ZM6.322424 14.462028C6.322424 15.236027 6.01559 15.97911 5.468172 16.527598L2.636987 13.70193C2.435126 13.904185 2.322424 14.177676 2.322424 14.462028H6.322424ZM5.468172 16.527598C4.920623 17.076214 4.177157 17.385136 3.401115 17.385136V13.385136C3.113766 13.385136 2.838977 13.499545 2.636987 13.70193L5.468172 16.527598ZM3.401115 17.385136C2.625073 17.385136 1.881607 17.076214 1.334059 16.527598L4.165244 13.70193C3.963253 13.499545 3.688465 13.385136 3.401115 13.385136V17.385136ZM1.334059 16.527598C.78664 15.97911 .479806 15.236027 .479806 14.462028H4.479806C4.479806 14.177676 4.367104 13.904185 4.165244 13.70193L1.334059 16.527598ZM20.940104 9.986056C21.207329 9.698715 21.5298 9.468011 21.888407 9.307916L23.51904 12.960454C23.651618 12.901265 23.770665 12.81605 23.8692 12.710097L20.940104 9.986056ZM21.888407 9.307916C22.247017 9.147819 22.634289 9.061671 23.027089 9.054728L23.09779 13.054103C23.24318 13.051532 23.386454 13.019645 23.51904 12.960454L21.888407 9.307916ZM23.027089 9.054728C23.419896 9.047783 23.809979 9.120191 24.174035 9.267526L22.673443 12.975387C22.80806 13.029866 22.952393 13.056673 23.09779 13.054103L23.027089 9.054728ZM24.174035 9.267526C24.53809 9.414861 24.868529 9.63405 25.145749 9.911811L22.314564 12.737478C22.416811 12.839925 22.538828 12.920906 22.673443 12.975387L24.174035 9.267526ZM25.145749 9.911811C25.422953 10.189557 25.64128 10.520186 25.787894 10.883875L22.078003 12.37944C22.131943 12.513244 22.21233 12.635045 22.314564 12.737478L25.145749 9.911811ZM25.787894 10.883875C25.934504 11.247556 26.006449 11.636953 25.999547 12.028877L22.000166 11.95845C21.997632 12.102482 22.024067 12.245646 22.078003 12.37944L25.787894 10.883875ZM25.999547 12.028877C25.992646 12.420799 25.907034 12.807435 25.747694 13.165747L22.092795 11.540414C22.034163 11.672258 22.002703 11.814421 22.000166 11.95845L25.999547 12.028877ZM25.747694 13.165747C25.588356 13.524053 25.358502 13.846806 25.071639 14.114631L22.341902 11.190841C22.236073 11.289645 22.151423 11.408576 22.092795 11.540414L25.747694 13.165747ZM13.415592 21.664872 14.06665 22.3172 11.235465 25.142867 10.584407 24.490538 13.415592 21.664872ZM14.065771 25.143748C13.518325 25.69158 12.77541 26 12 26V22C11.712886 22 11.438299 22.114224 11.236345 22.31632L14.065771 25.143748ZM12 26C11.22459 26 10.481675 25.69158 9.934229 25.143748L12.763655 22.31632C12.561701 22.114224 12.287114 22 12 22V26ZM9.93335 22.3172 10.584407 21.664872 13.415592 24.490538 12.764534 25.142867 9.93335 22.3172ZM-1.071635 14.114631C-1.358496 13.846809-1.588352 13.524057-1.747692 13.165747L1.907208 11.540414C1.848577 11.408571 1.763925 11.289642 1.6581 11.190841L-1.071635 14.114631ZM-1.747692 13.165747C-1.907028 12.807446-1.992645 12.420812-1.999547 12.028877L1.999833 11.95845C1.997297 11.814408 1.965834 11.672247 1.907208 11.540414L-1.747692 13.165747ZM-1.999547 12.028877C-2.006448 11.636944-1.934498 11.247547-1.787891 10.883875L1.921999 12.37944C1.975931 12.245656 2.00237 12.102491 1.999833 11.95845L-1.999547 12.028877ZM-1.787891 10.883875C-1.64128 10.520191-1.422956 10.189561-1.145747 9.911811L1.685438 12.737478C1.787675 12.635041 1.868061 12.513239 1.921999 12.37944L-1.787891 10.883875ZM-1.145747 9.911811C-.868529 9.634051-.53809 9.414862-.174034 9.267526L1.326557 12.975387C1.461175 12.920906 1.583192 12.839924 1.685438 12.737478L-1.145747 9.911811ZM-.174034 9.267526C.190024 9.12019 .580109 9.047783 .972913 9.054728L.902211 13.054103C1.047606 13.056673 1.191938 13.029867 1.326557 12.975387L-.174034 9.267526ZM.972913 9.054728C1.365716 9.061671 1.752987 9.14782 2.111593 9.307916L.480962 12.960454C.613542 13.019643 .756817 13.051532 .902211 13.054103L.972913 9.054728ZM2.111593 9.307916C2.470198 9.46801 2.79267 9.698713 3.059897 9.986056L.130801 12.710097C.229338 12.816051 .348384 12.901266 .480962 12.960454L2.111593 9.307916ZM5.857939-2H18.142062V2H5.857939V-2ZM18.142062 3.846216H5.857939V-.153784H18.142062V3.846216ZM23.520195 3.384729V14.462028H19.520195V3.384729H23.520195ZM17.677577 14.462028V3.384729H21.677577V14.462028H17.677577ZM6.322424 3.384729V14.462028H2.322424V3.384729H6.322424ZM.479806 14.462028V3.384729H4.479806V14.462028H.479806ZM25.122363 14.065569 14.06665 25.142868 11.235466 22.3172 22.291178 11.239902 25.122363 14.065569ZM11.235465 25.142867 9.93335 23.838208 12.764534 21.01254 14.06665 22.3172 11.235465 25.142867ZM9.93335 21.01254 20.98906 9.935244 23.820244 12.76091 12.764534 23.838208 9.93335 21.01254ZM9.93335 25.142868-1.12236 14.065569 1.708825 11.239902 12.764534 22.3172 9.93335 25.142868ZM3.010942 9.935244 14.06665 21.01254 11.235466 23.838208 .179757 12.76091 3.010942 9.935244ZM14.06665 23.838208 12.764534 25.142867 9.93335 22.3172 11.235465 21.01254 14.06665 23.838208ZM18.142062-2C19.569689-2 20.93806-1.431732 21.946356-.421469L19.115172 2.404198C18.85642 2.144941 18.506306 2 18.142062 2V-2ZM21.946356-.421469C22.95452 .588663 23.520195 1.957869 23.520195 3.384729H19.520195C19.520195 3.016218 19.374054 2.663586 19.115172 2.404198L21.946356-.421469ZM17.677577 3.384729C17.677577 3.636362 17.88142 3.846216 18.142062 3.846216V-.153784C20.09791-.153784 21.677577 1.43458 21.677577 3.384729H17.677577ZM5.857939 3.846216C6.118581 3.846216 6.322424 3.63636 6.322424 3.384729H2.322424C2.322424 1.434582 3.902088-.153784 5.857939-.153784V3.846216ZM.479806 3.384729C.479806 1.957869 1.045483 .588663 2.053646-.421469L4.88483 2.404198C4.625948 2.663586 4.479806 3.016218 4.479806 3.384729H.479806ZM2.053646-.421469C3.06194-1.431732 4.430309-2 5.857939-2V2C5.493696 2 5.143582 2.144941 4.88483 2.404198L2.053646-.421469Z"/>
</g>
</svg>
