<svg width="33" height="32" viewBox="0 0 33 32" fill="none" xmlns="http://www.w3.org/2000/svg">
<path id="Vector" d="M9.86652 0.000486209C6.33691 0.0419749 4.40043 3.89351 4.42103 6.01427C4.52403 9.28496 6.76953 11.5046 9.55751 13.9524C11.9884 16.0822 14.7833 18.3226 16.4863 21.5587C16.4931 21.5518 16.4931 21.5449 16.5 21.5379C16.5069 21.5449 16.5069 21.5518 16.5137 21.5587C18.2167 18.3226 21.0116 16.0822 23.4425 13.9524C26.2305 11.5046 28.476 9.28496 28.579 6.01427C28.5996 3.89351 26.6631 0.0419749 23.1335 0.000486209C20.524 -0.0340877 17.4614 1.77758 16.5 4.68179C15.5386 1.77758 12.476 -0.0340877 9.86652 0.000486209ZM0.5 24.1172V32H32.5V24.1172H0.5ZM1.73605 25.3618H31.2639V30.7553H21.8562V26.6065H1.73605V25.3618Z" fill="#800000"/>
</svg>
