<svg width="144" height="144" viewBox="0 0 144 144" fill="none" xmlns="http://www.w3.org/2000/svg">
<rect width="144" height="144" rx="15" fill="black"/>
<path d="M17.68 80V62.84H20.512L28.192 62.816C31.296 62.816 33.704 63.544 35.416 65C37.128 66.456 37.984 68.592 37.984 71.408C37.984 74.224 37.128 76.36 35.416 77.816C33.704 79.272 31.296 80 28.192 80H17.68ZM27.928 65.936H21.52V76.88H27.928C29.944 76.88 31.472 76.44 32.512 75.56C33.552 74.68 34.072 73.296 34.072 71.408C34.072 69.504 33.552 68.12 32.512 67.256C31.472 66.376 29.944 65.936 27.928 65.936ZM47.8069 80.12C45.6629 80.12 43.9909 79.592 42.7909 78.536C41.5909 77.464 40.9909 75.896 40.9909 73.832C40.9909 71.752 41.5909 70.184 42.7909 69.128C43.9909 68.056 45.6629 67.52 47.8069 67.52H52.2469C54.3909 67.52 56.0629 68.056 57.2629 69.128C58.4629 70.184 59.0629 71.752 59.0629 73.832C59.0629 75.896 58.4629 77.464 57.2629 78.536C56.0629 79.592 54.3909 80.12 52.2469 80.12H47.8069ZM47.8069 77.36H52.2469C53.2869 77.36 54.0789 77.072 54.6229 76.496C55.1829 75.92 55.4629 75.032 55.4629 73.832C55.4629 72.616 55.1829 71.72 54.6229 71.144C54.0789 70.568 53.2869 70.28 52.2469 70.28H47.8069C46.7669 70.28 45.9669 70.568 45.4069 71.144C44.8629 71.72 44.5909 72.616 44.5909 73.832C44.5909 75.032 44.8629 75.92 45.4069 76.496C45.9669 77.072 46.7669 77.36 47.8069 77.36ZM62.6688 80V67.64H73.4448C74.8528 67.64 75.8768 67.992 76.5168 68.696C77.1728 69.384 77.5008 70.296 77.5008 71.432V80H74.0208V71.84C74.0208 70.88 73.5408 70.4 72.5808 70.4H66.1488V80H62.6688ZM113.348 80V67.64H122.804C124.196 67.64 125.22 67.992 125.876 68.696C126.532 69.384 126.86 70.296 126.86 71.432V74H123.332V71.864C123.332 70.904 122.852 70.424 121.892 70.424H116.876V80H113.348Z" fill="white"/>
<path d="M87.7885 80.12C85.6445 80.12 83.9725 79.592 82.7725 78.536C81.5725 77.464 80.9725 75.896 80.9725 73.832C80.9725 71.752 81.5725 70.184 82.7725 69.128C83.9725 68.056 85.6445 67.52 87.7885 67.52H92.2285C94.3725 67.52 96.0445 68.056 97.2445 69.128C98.4445 70.184 99.0445 71.752 99.0445 73.832C99.0445 75.896 98.4445 77.464 97.2445 78.536C96.0445 79.592 94.3725 80.12 92.2285 80.12H87.7885ZM87.7885 77.36H92.2285C93.2685 77.36 94.0605 77.072 94.6045 76.496C95.1645 75.92 95.4445 75.032 95.4445 73.832C95.4445 72.616 95.1645 71.72 94.6045 71.144C94.0605 70.568 93.2685 70.28 92.2285 70.28H87.7885C86.7485 70.28 85.9485 70.568 85.3885 71.144C84.8445 71.72 84.5725 72.616 84.5725 73.832C84.5725 75.032 84.8445 75.92 85.3885 76.496C85.9485 77.072 86.7485 77.36 87.7885 77.36ZM102.29 74.384V71.624H109.634V74.384H102.29Z" fill="#FF0000"/>
</svg>
