<svg width="24" height="31" viewBox="0 0 24 31" fill="none" xmlns="http://www.w3.org/2000/svg">
<path id="Vector" d="M23.1802 17.58C23.134 17.4776 23.079 17.3778 23.0156 17.2812L23.0235 17.295C22.7925 16.8688 20.9345 14.0338 20.6243 13.6475L11.9977 0.5L3.151 13.97C2.85031 14.3575 1.20125 16.87 0.973361 17.295L0.883154 17.4525C0.294787 18.5851 -0.00528874 19.7982 7.05387e-05 21.0225C7.05387e-05 23.5361 1.26427 25.9467 3.51455 27.7241C5.76483 29.5015 8.81686 30.5 11.9992 30.5C15.1816 30.5 18.2337 29.5015 20.4839 27.7241C22.7342 25.9467 23.9984 23.5361 23.9984 21.0225V21.015L24 20.8887C24 19.695 23.6993 18.5563 23.1533 17.5188L23.1802 17.5775V17.58ZM12.004 28.0237C10.469 28.024 8.96039 27.7085 7.62668 27.1084C6.29296 26.5082 5.18012 25.644 4.39772 24.6009C3.61531 23.5579 3.19032 22.3718 3.16458 21.1596C3.13883 19.9474 3.51323 18.7507 4.2509 17.6875L4.22716 17.7238C4.11124 18.2105 4.05296 18.7047 4.05308 19.2V19.2013C4.05475 21.4207 5.17176 23.5489 7.15872 25.1183C9.14568 26.6877 11.8401 27.5699 14.6501 27.5712C14.8289 27.5712 15.0204 27.5712 15.1977 27.5637C14.1862 27.8708 13.1113 28.0267 12.0277 28.0237H11.9913H12.004Z" fill="#800000"/>
</svg>
