<svg width="40" height="40" viewBox="0 0 40 40" fill="none" xmlns="http://www.w3.org/2000/svg">
<g id="Group">
<path id="Vector" d="M2 23.5995H7.38872C8.05022 23.5995 8.70271 23.7183 9.29446 23.9487L13.8889 25.7272C14.4807 25.9558 15.1332 26.0746 15.7969 26.0746H18.1414C20.4094 26.0746 22.2499 27.4985 22.2499 29.2554C22.2499 29.3274 22.1891 29.3886 22.1014 29.4084L16.3842 30.6739C15.3583 30.9006 14.2644 30.8213 13.3062 30.4506L8.39447 28.5498M13.2499 11.9835C13.2499 8.40675 17.0412 4.87138 19.7029 2.83008C20.3839 2.29792 21.298 2 22.2499 2C23.2018 2 24.1159 2.29792 24.7969 2.83008C27.4586 4.87138 31.2498 8.40675 31.2498 11.9835C31.2498 15.4919 27.8411 19.0993 22.2499 19.0993C16.6587 19.0993 13.2499 15.4919 13.2499 11.9835Z" stroke="black" stroke-width="2.5" stroke-linecap="round" stroke-linejoin="round"/>
<path id="Vector_2" d="M22.2499 28.0997L32.5841 25.5598C33.4838 25.3389 34.4476 25.3511 35.3382 25.5945C36.2287 25.8379 37.0004 26.3001 37.5431 26.9153C38.3733 27.8333 38.0358 29.151 36.8253 29.709L19.9167 37.516C19.3879 37.7607 18.8025 37.9168 18.1959 37.9746C17.5894 38.0325 16.9745 37.991 16.3887 37.8526L2 34.436" stroke="black" stroke-width="2.5" stroke-linecap="round" stroke-linejoin="round"/>
</g>
</svg>
