<?xml version="1.0" encoding="UTF-8"?>
<svg version="1.1" xmlns="http://www.w3.org/2000/svg" width="512" height="512">
<path d="M0 0 C4.77687532 3.25172838 7.88004406 6.51305521 10 12 C10 12.66 10 13.32 10 14 C10.99 13.505 10.99 13.505 12 13 C19.90006425 12.36758016 27.55970125 11.8391356 34 17 C38.25464793 20.98042257 41.18871474 24.09507564 42 30 C42.66 29.67 43.32 29.34 44 29 C51.89367508 28.36809163 59.56755739 27.83389956 66 33 C70.44513471 37.23304081 74.66166334 41.59351638 75.15283203 47.99047852 C75.19648401 50.26815825 75.17463548 52.53499497 75.125 54.8125 C75.11597656 55.60076172 75.10695312 56.38902344 75.09765625 57.20117188 C75.07422504 59.13424666 75.03835838 61.0671638 75 63 C75.556875 63.2475 76.11375 63.495 76.6875 63.75 C88.06456769 69.89976632 94.00087123 82.44614683 98.109375 94.1640625 C101.62908525 109.32351629 99.67236785 125.69256298 91.5625 138.9375 C90.39801397 140.64096258 89.2128432 142.33062171 88 144 C87.56558594 144.60714844 87.13117188 145.21429688 86.68359375 145.83984375 C85.08194468 147.91723017 83.59627974 149.68833077 81.25015259 150.91462708 C79.04855279 152.06839014 77.61835431 153.09997936 76 155 C74.99385481 159.12212687 75.16517389 163.16416466 75.2734375 167.38671875 C75.27300446 168.59890579 75.27257141 169.81109283 75.27212524 171.06001282 C75.27346494 174.93681612 75.32014883 178.81111029 75.375 182.6875 C75.41936192 186.54578164 75.45307592 190.4028832 75.45645142 194.26142883 C75.45936942 196.6601765 75.48576035 199.05904942 75.53939819 201.4571991 C75.56083744 209.4804913 74.21001367 216.49199253 68.55673218 222.54542542 C67.0625 223.8046875 67.0625 223.8046875 64 225.875 C62.4840625 226.92300781 62.4840625 226.92300781 60.9375 227.9921875 C59.04774641 229.28385418 57.11750817 230.51911284 55.14453125 231.6796875 C52.31333238 234.74295185 52.47881205 236.69595255 52.56054688 240.75 C52.62338867 241.9875 52.62338867 241.9875 52.6875 243.25 C52.72133789 244.51070313 52.72133789 244.51070313 52.75585938 245.796875 C52.81462286 247.86534964 52.90430115 249.93290488 53 252 C53.94359375 252.09796875 54.8871875 252.1959375 55.859375 252.296875 C77.98017986 254.87319364 94.77982144 263.95357729 109.3125 280.75 C121.51520349 296.76604833 123.44040361 314.33616846 123.44140625 333.8046875 C123.45320474 335.8166702 123.46657491 337.82864423 123.48143005 339.84060669 C123.51742594 345.11227767 123.53775551 350.38387184 123.55297852 355.65563965 C123.57790386 364.08328069 123.61797101 372.51075194 123.67487907 380.93823624 C123.69100539 383.8571309 123.69496694 386.77586033 123.69789124 389.6947937 C123.77635962 410.0185892 125.55581916 428.32839256 140 444 C153.72265707 456.64787554 168.56000399 459.83953986 186.53417969 459.17480469 C196.69540151 458.45446461 204.91539194 453.88090038 213 448 C213.63421875 447.57332031 214.2684375 447.14664062 214.921875 446.70703125 C224.61827885 439.47920728 230.71956999 426.5650379 233 415 C234.26657265 406.06506858 234.2195505 397.05863995 234.31640625 388.0546875 C234.33701809 386.43229698 234.35801553 384.80991131 234.37937927 383.18753052 C234.43416378 378.94950331 234.48376248 374.71143121 234.53222656 370.47332764 C234.58276335 366.13582437 234.6382802 361.79838504 234.69335938 357.4609375 C234.80040608 348.97401264 234.90196622 340.48703374 235 332 C234.06285156 331.86207031 233.12570312 331.72414063 232.16015625 331.58203125 C225.11624956 330.28469862 219.48773537 325.21385197 215.5 319.4375 C211.42194235 312.97662378 210.71351148 307.11870272 210.8046875 299.6640625 C210.80893234 298.34503433 210.80893234 298.34503433 210.81326294 296.99935913 C210.82440288 294.20776406 210.84949589 291.4164971 210.875 288.625 C210.8850378 286.72526507 210.89416225 284.82552508 210.90234375 282.92578125 C210.92432194 278.28372893 210.9588089 273.64191998 211 269 C210.22849609 269.00888245 209.45699219 269.01776489 208.66210938 269.0269165 C201.36542922 269.10730775 194.06896601 269.16808811 186.7719574 269.20724869 C183.02111811 269.22805897 179.27064698 269.25625467 175.52001953 269.30175781 C171.89547138 269.3454525 168.27127573 269.36918636 164.64648438 269.37950897 C163.26866106 269.38685832 161.89085545 269.40120946 160.51318359 269.42292023 C151.38461601 269.56096086 144.85526135 269.25469767 137.7578125 263.03515625 C137.21898437 262.38417969 136.68015625 261.73320312 136.125 261.0625 C135.57070313 260.41410156 135.01640625 259.76570313 134.4453125 259.09765625 C130.71363616 253.68168276 130.71081565 248.78226122 130.73257446 242.41716003 C130.72804335 241.44664697 130.72351224 240.47613392 130.71884382 239.47621137 C130.70617469 236.22131594 130.70782183 232.9665873 130.70947266 229.71166992 C130.70348898 227.37911259 130.6966838 225.04655725 130.68911743 222.71400452 C130.67143377 216.37511206 130.66676104 210.03627358 130.66548586 203.69735885 C130.66358748 198.40659238 130.65623063 193.1158385 130.64914167 187.82507688 C130.63349773 176.05571567 130.62780456 164.28637787 130.62915237 152.51700719 C130.62923228 151.81103105 130.6293122 151.10505491 130.62939453 150.37768555 C130.62947629 149.67084522 130.62955805 148.9640049 130.62964229 148.23574517 C130.63045504 136.78272615 130.61131972 125.32983869 130.5831178 113.87685772 C130.55437449 102.11096231 130.54057831 90.34513102 130.54230535 78.57919961 C130.54281541 71.97595445 130.53710764 65.37285816 130.51594925 58.76964378 C130.49659136 52.55864822 130.49642592 46.34794391 130.51098251 40.1369381 C130.51307474 37.85852127 130.50834518 35.58008633 130.4962616 33.30170059 C130.48082225 30.18872152 130.49010935 27.07674835 130.50552368 23.96379089 C130.49523656 23.06445853 130.48494943 22.16512617 130.47435057 21.23854131 C130.55039721 14.27768293 132.34536932 9.02933998 136.96484375 3.7578125 C137.61582031 3.21898437 138.26679688 2.68015625 138.9375 2.125 C139.58589844 1.57070313 140.23429687 1.01640625 140.90234375 0.4453125 C145.68599147 -2.85068313 150.0723297 -3.29191971 155.76057434 -3.26742554 C156.53507689 -3.27195665 157.30957943 -3.27648776 158.10755175 -3.28115618 C160.69912209 -3.2938021 163.29048233 -3.29217969 165.88208008 -3.29052734 C167.74173757 -3.2965125 169.60139257 -3.30331801 171.46104431 -3.31088257 C176.5107244 -3.32855164 181.56033671 -3.33323835 186.61004472 -3.33451414 C189.76585676 -3.33593584 192.92165157 -3.34020582 196.07745934 -3.34550858 C207.089818 -3.36401222 218.10212825 -3.37217881 229.11450195 -3.37060547 C239.37499149 -3.36940415 249.63527065 -3.39050384 259.89570695 -3.4220928 C268.70860877 -3.44825703 277.52144188 -3.45897269 286.33438224 -3.45769465 C291.59625022 -3.45718504 296.85793126 -3.46286782 302.11976051 -3.48405075 C307.07006815 -3.50343539 312.02001056 -3.50355597 316.97033119 -3.48901749 C318.78433262 -3.48692854 320.59835693 -3.4916354 322.41231918 -3.5037384 C324.89479772 -3.51922535 327.37602229 -3.50986083 329.85847473 -3.49447632 C330.927325 -3.50990701 330.927325 -3.50990701 332.0177682 -3.52564943 C338.41020314 -3.4385057 343.48576606 -1.20323985 348.2421875 2.96484375 C348.78101563 3.61582031 349.31984375 4.26679688 349.875 4.9375 C350.42929687 5.58589844 350.98359375 6.23429687 351.5546875 6.90234375 C355.28636384 12.31831724 355.28918435 17.21773878 355.26742554 23.58283997 C355.27195665 24.55335303 355.27648776 25.52386608 355.28115618 26.52378863 C355.29382531 29.77868406 355.29217817 33.0334127 355.29052734 36.28833008 C355.29651102 38.62088741 355.3033162 40.95344275 355.31088257 43.28599548 C355.32856623 49.62488794 355.33323896 55.96372642 355.33451414 62.30264115 C355.33641252 67.59340762 355.34376937 72.8841615 355.35085833 78.17492312 C355.36650227 89.94428433 355.37219544 101.71362213 355.37084763 113.48299281 C355.37076772 114.18896895 355.3706878 114.89494509 355.37060547 115.62231445 C355.37052371 116.32915478 355.37044195 117.0359951 355.37035771 117.76425483 C355.36954496 129.21727385 355.38868028 140.67016131 355.4168822 152.12314228 C355.44562551 163.88903769 355.45942169 175.65486898 355.45769465 187.42080039 C355.45718459 194.02404555 355.46289236 200.62714184 355.48405075 207.23035622 C355.50340864 213.44135178 355.50357408 219.65205609 355.48901749 225.8630619 C355.48692526 228.14147873 355.49165482 230.41991367 355.5037384 232.69829941 C355.51917775 235.81127848 355.50989065 238.92325165 355.49447632 242.03620911 C355.50476344 242.93554147 355.51505057 243.83487383 355.52564943 244.76145869 C355.44960279 251.72231707 353.65463068 256.97066002 349.03515625 262.2421875 C348.38417969 262.78101563 347.73320312 263.31984375 347.0625 263.875 C346.41410156 264.42929687 345.76570313 264.98359375 345.09765625 265.5546875 C340.70063491 268.58429252 336.9419762 269.24826443 331.64916992 269.22705078 C329.75777534 269.22682419 329.75777534 269.22682419 327.82817078 269.22659302 C326.46226848 269.21638136 325.09636781 269.2059494 323.73046875 269.1953125 C322.32514141 269.19157941 320.91981147 269.18873383 319.51448059 269.18673706 C315.82700332 269.17912389 312.13968518 269.15949553 308.45227051 269.1373291 C304.68499911 269.11682059 300.91770184 269.10772467 297.15039062 269.09765625 C289.76685477 269.07624725 282.38344974 269.04213954 275 269 C275.02094727 270.1645874 275.04189453 271.3291748 275.06347656 272.52905273 C275.13633507 276.88439449 275.18196518 281.23968328 275.21972656 285.59545898 C275.2397382 287.47413213 275.26695637 289.3527438 275.30175781 291.23120117 C275.3507397 293.94465373 275.37307329 296.65727696 275.390625 299.37109375 C275.42159271 300.61384315 275.42159271 300.61384315 275.45318604 301.88169861 C275.45643835 310.49519515 271.94447431 318.71026582 266 325 C261.11046044 329.01123338 257.27347775 331.05997208 251 332 C251.00888245 333.0315773 251.01776489 334.0631546 251.0269165 335.12599182 C251.10844677 344.90749275 251.16817688 354.68892361 251.20724869 364.47068882 C251.22801206 369.49810144 251.25612092 374.525237 251.30175781 379.55249023 C251.34562092 384.41547762 251.3692214 389.27820064 251.37950897 394.14137077 C251.38682846 395.98508801 251.40111876 397.82879284 251.42292023 399.67239571 C251.66131802 420.69213107 247.13328473 439.3529667 232.19995117 454.92333984 C217.23728264 469.90393387 200.3971956 477.19140625 179.1875 477.4375 C159.1615684 477.31331531 141.899999 471.00794584 127.6484375 456.7734375 C110.64295829 438.9653398 106.55982967 420.19355428 106.55859375 396.1953125 C106.54679526 394.1833298 106.53342509 392.17135577 106.51856995 390.15939331 C106.48257406 384.88772233 106.46224449 379.61612816 106.44702148 374.34436035 C106.42209614 365.91671931 106.38202899 357.48924806 106.32512093 349.06176376 C106.30899461 346.1428691 106.30503306 343.22413967 106.30210876 340.3052063 C106.22295735 319.80450178 104.29046751 301.95651544 90 286 C81.94411976 278.19176888 72.0737318 273.31772367 61.1015625 271.328125 C60.41489502 271.19744629 59.72822754 271.06676758 59.02075195 270.93212891 C57.34840397 270.61483399 55.67436514 270.3064722 54 270 C54.05962418 270.81554855 54.11924835 271.63109711 54.18067932 272.47135925 C56.06212828 298.22144048 57.92066235 323.97314513 59.76537323 349.72588348 C60.00385418 353.05378343 60.24265605 356.38166024 60.48150635 359.70953369 C61.38336094 372.28110355 62.27947209 384.85305786 63.16436863 397.4258337 C63.55630323 402.99371652 63.95038814 408.56142529 64.35012817 414.12875366 C64.72968238 419.41685602 65.10265968 424.70538444 65.47093773 429.99428368 C65.60708339 431.9342172 65.74543811 433.87399732 65.8863163 435.81359291 C66.58036156 445.38885076 67.14991724 454.96434093 67.33251953 464.56445312 C67.36107466 465.35633781 67.38962978 466.1482225 67.41905022 466.9641037 C67.44611408 470.31609848 67.39329327 472.47036279 65.36172295 475.20622253 C62.31497556 477.52029024 60.58002438 477.50277478 56.77539062 477.50793457 C54.85738647 477.52485352 54.85738647 477.52485352 52.90063477 477.54211426 C51.48583758 477.53433723 50.07104263 477.52614457 48.65625 477.51757812 C47.16462521 477.52299892 45.67300577 477.53012134 44.18139648 477.53881836 C40.13177372 477.55706004 36.08255839 477.5499809 32.03292847 477.53730202 C27.79602964 477.52717864 23.55916582 477.53656585 19.32226562 477.54284668 C12.2069675 477.55012503 5.09183542 477.54053052 -2.0234375 477.52148438 C-10.251028 477.49971519 -18.47822203 477.50676643 -26.70580292 477.52879 C-33.76834254 477.5469387 -40.83076277 477.54950494 -47.89331818 477.53903532 C-52.11213175 477.53279744 -56.33075893 477.53197274 -60.54956055 477.54518127 C-64.51580373 477.55673156 -68.48153549 477.54872962 -72.44772339 477.52560425 C-73.90378978 477.52031268 -75.35989917 477.52183866 -76.81594849 477.53065491 C-78.80241362 477.54157434 -80.78897276 477.525457 -82.77539062 477.50793457 C-83.88740845 477.50642647 -84.99942627 477.50491837 -86.1451416 477.50336456 C-89 477 -89 477 -91.36552429 475.36574364 C-93.51771225 472.25066218 -93.46911135 470.41429801 -93.3762207 466.64016724 C-93.35392253 465.66574981 -93.35392253 465.66574981 -93.3311739 464.67164719 C-93.02196471 455.00485448 -91.95135976 445.37438772 -90.98046875 435.75732422 C-90.76307844 433.54969511 -90.54635104 431.34200063 -90.33023071 429.13424683 C-89.86623102 424.40811332 -89.39773872 419.68245524 -88.9256897 414.95711899 C-88.17851209 407.47601602 -87.44236474 399.99385202 -86.70776367 392.51150513 C-85.67624314 382.01555292 -84.64056179 371.52001958 -83.60058594 361.02490234 C-83.53479241 360.36091596 -83.46899889 359.69692958 -83.40121162 359.0128224 C-83.06785446 355.6487867 -82.73443352 352.28475731 -82.40098572 348.92073059 C-81.73338349 342.18531298 -81.06621651 335.4498523 -80.39941406 328.71435547 C-80.33370016 328.05058556 -80.26798626 327.38681565 -80.20028102 326.70293151 C-79.1019613 315.60724127 -78.00870327 304.5110562 -76.91872501 293.41454327 C-76.188594 285.9854629 -75.45222081 278.5570364 -74.71092224 271.12906241 C-74.25027091 266.50066973 -73.79486874 261.87177113 -73.34083176 257.24272537 C-73.13021126 255.10647534 -72.91743081 252.97043692 -72.70225906 250.8346405 C-70.52708922 234.91502833 -70.52708922 234.91502833 -71 219 C-73.27770375 216.36387286 -75.83159281 215.36775717 -79 214 C-81.39497782 212.73447195 -83.76563965 211.45326466 -86.125 210.125 C-86.73649902 209.78259277 -87.34799805 209.44018555 -87.97802734 209.08740234 C-94.48989941 205.32762415 -98.68666603 201.19763678 -101 194 C-101.24374853 191.07241607 -101.18218577 188.16197795 -101.1328125 185.2265625 C-101.13361912 183.49739406 -101.13628102 181.76822567 -101.140625 180.0390625 C-101.13866159 177.33053872 -101.12498601 174.62417404 -101.07910156 171.91601562 C-100.52023261 161.69525428 -100.52023261 161.69525428 -103.71142578 152.34130859 C-105.72695235 150.5880097 -107.69311582 149.33001707 -110 148 C-118.92099601 139.63718921 -124.73038202 127.25998689 -125.37109375 115.03125 C-125.73462387 98.70624564 -123.67240803 86.00134453 -113 73 C-112.22398438 72.01257813 -111.44796875 71.02515625 -110.6484375 70.0078125 C-103.00915301 60.91637314 -91.49243979 55.29157868 -80 53 C-76.32655331 52.85264287 -72.67390894 52.88344091 -69 53 C-69.02094727 52.34515625 -69.04189453 51.6903125 -69.06347656 51.015625 C-69.14730383 48.01057672 -69.19886895 45.00577536 -69.25 42 C-69.30027344 40.45505859 -69.30027344 40.45505859 -69.3515625 38.87890625 C-69.45143866 31.03862748 -68.24940868 25.70807273 -63.03515625 19.7578125 C-62.38417969 19.21898438 -61.73320313 18.68015625 -61.0625 18.125 C-60.41410156 17.57070313 -59.76570313 17.01640625 -59.09765625 16.4453125 C-54.37959023 13.19450351 -50.49911172 12.74658564 -44.8125 12.8125 C-42.96591797 12.82216797 -42.96591797 12.82216797 -41.08203125 12.83203125 C-38 13 -38 13 -36 14 C-35.773125 13.13375 -35.54625 12.2675 -35.3125 11.375 C-32.61268661 4.4326227 -28.47499793 1.17863535 -22 -2 C-14.66253511 -4.25653197 -6.72469557 -3.7250907 0 0 Z " fill="#000000" transform="translate(141,19)"/>
<path d="M0 0 C0.73986727 -0.00638882 1.47973454 -0.01277764 2.24202204 -0.01936007 C4.716711 -0.03459874 7.18979597 -0.01415803 9.66442871 0.00622559 C11.44028758 0.00272403 13.21614331 -0.00293495 14.99198914 -0.0105896 C19.81233119 -0.02484227 24.63210312 -0.00777134 29.45239067 0.01569557 C34.49625313 0.03579624 39.54009172 0.02992542 44.58398438 0.02758789 C53.05441699 0.02764147 61.5246266 0.04740347 69.99499512 0.07946777 C79.78860712 0.11636091 89.58192696 0.1251434 99.37559938 0.11817026 C108.79586515 0.1118655 118.2160307 0.12261908 127.63627625 0.14213562 C131.64574104 0.1503114 135.65515464 0.15301883 139.66462708 0.15144348 C144.38592849 0.15056468 149.10695217 0.16477968 153.82818031 0.19067001 C155.56118231 0.19783351 157.29421386 0.19991455 159.0272274 0.19655228 C161.39239519 0.19283876 163.75675188 0.20757984 166.12182617 0.22705078 C166.80811301 0.22172286 167.49439984 0.21639493 168.20148325 0.21090555 C172.47091411 0.27157191 175.15680272 1.02426432 178.56091309 3.62145996 C180.24660622 6.99284623 179.70499893 10.81371791 179.70135498 14.52204895 C179.7043261 15.45536346 179.70729722 16.38867797 179.71035838 17.35027474 C179.71907296 20.49707523 179.72055595 23.6438378 179.7220459 26.79064941 C179.72667212 29.03896161 179.73169651 31.28727301 179.73709106 33.5355835 C179.75023589 39.65750607 179.75666407 45.77941768 179.76110172 51.90135217 C179.76402907 55.72297009 179.76813322 59.54458499 179.7726059 63.3662014 C179.78471778 73.94424597 179.79509883 84.52228791 179.79848099 95.10033894 C179.79881034 96.11622132 179.79881034 96.11622132 179.79914634 97.15262659 C179.79936462 97.83151618 179.79958289 98.51040577 179.79980779 99.20986778 C179.80025126 100.58559056 179.80069782 101.96131335 179.80114746 103.33703613 C179.80147961 104.36064847 179.80147961 104.36064847 179.80181846 105.40493985 C179.80576648 116.46245883 179.82321997 127.51991191 179.84650698 138.57740543 C179.87021483 149.92621244 179.88242455 161.27497524 179.88384891 172.62381142 C179.88489877 178.99727085 179.89084517 185.37063738 179.90866852 191.74407387 C179.92510469 197.73829141 179.92732637 203.73234577 179.91852951 209.72657776 C179.91775675 211.92884952 179.92213318 214.1311299 179.93198776 216.33337975 C179.94463664 219.33575609 179.9388688 222.33754831 179.92840576 225.33992004 C179.94049037 226.65256811 179.94049037 226.65256811 179.95281911 227.99173433 C179.91473657 232.65201189 179.690107 235.8946906 176.56091309 239.62145996 C173.08314014 240.78071761 169.9725768 240.76642562 166.35560608 240.76190186 C165.61674209 240.76487298 164.8778781 240.7678441 164.1166243 240.77090526 C161.63393117 240.7795962 159.15128624 240.78110082 156.6685791 240.78259277 C154.89139706 240.78722058 153.11421602 240.79224519 151.33703613 240.79763794 C146.50445508 240.81076553 141.67188791 240.81720733 136.83929181 240.8216486 C133.82189003 240.8245781 130.80449207 240.82868262 127.78709221 240.83315277 C118.35137784 240.84682722 108.91567217 240.85649474 99.47994858 240.86035466 C88.57793633 240.86483866 77.67604926 240.88240262 66.77407509 240.91135526 C58.35278774 240.93294589 49.93153569 240.9430575 41.51022094 240.94439578 C36.47763157 240.94544548 31.44515987 240.95138845 26.41259956 240.96921539 C21.68071189 240.98565137 16.94903092 240.98787344 12.21712494 240.97907639 C10.47884761 240.97830367 8.74055936 240.98267952 7.0023098 240.99253464 C4.63235923 241.00518514 2.26314849 240.99941552 -0.10679626 240.98895264 C-1.14264214 241.00103724 -1.14264214 241.00103724 -2.19941419 241.01336598 C-5.19094246 240.98239923 -7.20068878 240.75434976 -9.83485508 239.28599167 C-13.45392993 235.53088301 -12.59022763 230.47287944 -12.59298706 225.60061646 C-12.59736931 224.66644752 -12.60175157 223.73227858 -12.60626662 222.7698015 C-12.61966711 219.62611403 -12.62583624 216.4824546 -12.63195801 213.33874512 C-12.63985782 211.09028496 -12.64812669 208.84182607 -12.65673828 206.59336853 C-12.68296647 199.19909884 -12.69826403 191.80482346 -12.71252441 184.41052246 C-12.71788325 181.86762869 -12.72326076 179.32473497 -12.72865677 176.78184128 C-12.75028424 166.20804901 -12.76917422 155.63425809 -12.78027916 145.0604496 C-12.78320885 142.31711447 -12.78617052 139.57377938 -12.78918457 136.83044434 C-12.78993062 136.14860161 -12.79067667 135.46675888 -12.79144533 134.76425426 C-12.80410517 123.71321723 -12.83733794 112.66234086 -12.8789864 101.61137898 C-12.92139038 90.2670579 -12.94456445 78.92284897 -12.95019972 67.57843816 C-12.95385981 61.20826965 -12.96595167 54.83837368 -12.99830246 48.46828079 C-13.02828847 42.47807683 -13.0347286 36.4883117 -13.0229187 30.49804878 C-13.02269719 28.29737656 -13.03106575 26.09668452 -13.04857254 23.89608192 C-13.071147 20.89561129 -13.06302335 17.8967478 -13.04708862 14.89627075 C-13.06097071 14.02185416 -13.0748528 13.14743757 -13.08915555 12.2465235 C-13.03437088 8.07078718 -12.77377401 6.11239096 -10.36602974 2.58062553 C-6.81997399 0.20705326 -4.13070676 -0.07534395 0 0 Z " fill="#CED1D2" transform="translate(300.4390869140625,31.3785400390625)"/>
<path d="M0 0 C4.17147085 0.86905643 5.42327675 2.23153438 8 5.625 C8.72267023 9.02226399 8.67408238 12.35353363 8.63671875 15.81640625 C8.64709671 16.79866684 8.65747467 17.78092743 8.66816711 18.79295349 C8.69783004 21.92482617 8.69447547 25.05551231 8.6875 28.1875 C8.69639391 31.32272505 8.71234848 34.45763304 8.7389679 37.59275818 C8.75387726 39.54148546 8.75768961 41.49033639 8.74919128 43.43910217 C8.75292252 44.32359543 8.75665375 45.20808868 8.76049805 46.11938477 C8.75874069 46.89484146 8.75698334 47.67029816 8.75517273 48.46925354 C9.03495796 50.93281089 9.69220476 52.52681443 11 54.625 C13.40814062 55.82907031 14.90744083 55.75078278 17.59721375 55.75198364 C19.05022636 55.75621338 19.05022636 55.75621338 20.53259277 55.76052856 C21.59909058 55.75850433 22.66558838 55.7564801 23.7644043 55.75439453 C25.44509758 55.75702301 25.44509758 55.75702301 27.15974426 55.75970459 C30.8812513 55.76412243 34.60271118 55.76118435 38.32421875 55.7578125 C40.90533965 55.7584858 43.48646049 55.75945604 46.06758118 55.76071167 C51.48736226 55.76218874 56.90712552 55.76012968 62.3269043 55.75537109 C68.5820439 55.74994227 74.83715083 55.75168125 81.09228963 55.7571975 C87.11507216 55.76229537 93.13783881 55.76173855 99.16062355 55.75881577 C101.71984677 55.75814905 104.27907083 55.758966 106.83829308 55.76129532 C110.42175868 55.76383972 114.00516206 55.75995531 117.58862305 55.75439453 C118.64499969 55.75641876 119.70137634 55.75844299 120.7897644 55.76052856 C125.96930087 55.74566718 130.89645847 55.52585675 136 54.625 C136.09898364 60.79967586 136.1715236 66.97388843 136.21972656 73.14916992 C136.23982397 75.24918667 136.26710666 77.34914758 136.30175781 79.44897461 C136.3503577 82.47002958 136.37298762 85.49034377 136.390625 88.51171875 C136.41127014 89.44835861 136.43191528 90.38499847 136.45318604 91.35002136 C136.4546346 95.57185354 136.40944756 97.9558376 134.16674805 101.62109375 C131.48697143 104.09947195 128.64695858 105.98698111 125.5625 107.9375 C119.11242684 112.17964973 115.4384408 116.30967761 113 123.625 C112.91821886 125.32516844 112.89250499 127.02836297 112.90234375 128.73046875 C112.90556641 129.71337891 112.90878906 130.69628906 112.91210938 131.70898438 C112.92048828 132.73314453 112.92886719 133.75730469 112.9375 134.8125 C112.94201172 135.84826172 112.94652344 136.88402344 112.95117188 137.95117188 C112.9629599 140.50917266 112.97941485 143.06705733 113 145.625 C111.99582031 145.9653125 110.99164063 146.305625 109.95703125 146.65625 C88.35364407 154.214116 72.70618487 166.42772672 62.625 187.1875 C57.48081486 198.27306856 56.54051477 209.41296254 56.48828125 221.453125 C56.47139254 222.93814536 56.45323684 224.4231518 56.43388367 225.90814209 C56.38683153 229.77459353 56.35673505 233.64098851 56.33044434 237.50762939 C56.29510849 242.16943734 56.23822631 246.83102849 56.18505096 251.49266052 C56.10706361 258.53674414 56.05606172 265.58055439 56 272.625 C40.49 272.625 24.98 272.625 9 272.625 C9 267.28202639 9.00711353 262.42949801 9.53149414 257.19462585 C9.6492923 255.99637177 9.76709045 254.79811768 9.88845825 253.56355286 C10.08482376 251.63463448 10.08482376 251.63463448 10.28515625 249.66674805 C10.42348125 248.27608097 10.56139918 246.88537335 10.69894409 245.49462891 C10.99439492 242.51523062 11.29252562 239.53611739 11.59274292 236.55719566 C12.06831972 231.83638823 12.53678163 227.11489091 13.00415039 222.39326477 C14.16604559 210.666083 15.33676947 198.93978468 16.51013184 187.21374512 C17.42240277 178.09618318 18.33200686 168.9783724 19.23353863 159.85974151 C19.69682204 155.17682774 20.16553686 150.49450083 20.63850403 145.81255567 C20.93286939 142.88642254 21.22227215 139.95981341 21.51037979 137.03305817 C21.70678909 135.05265116 21.90904084 133.07282623 22.11154175 131.09303284 C24.34338282 115.11605494 24.34338282 115.11605494 19 100.625 C13.87112651 94.51459007 6.8414364 91.20803795 -0.18432617 87.73266602 C-0.90467041 87.37229248 -1.62501465 87.01191895 -2.3671875 86.640625 C-3.01800293 86.32383789 -3.66881836 86.00705078 -4.33935547 85.68066406 C-6 84.625 -6 84.625 -8 81.625 C-8.20904844 79.17550197 -8.30404258 76.83794681 -8.30639648 74.38720703 C-8.31472 73.65352905 -8.32304352 72.91985107 -8.33161926 72.16394043 C-8.35572834 69.73684391 -8.36449239 67.31001609 -8.37109375 64.8828125 C-8.38005947 63.19513874 -8.38918131 61.50746581 -8.39845276 59.8197937 C-8.41494781 56.28072172 -8.42264379 52.7417444 -8.42553711 49.20263672 C-8.43092124 44.67061983 -8.46859952 40.13949416 -8.51428127 35.60772896 C-8.54404402 32.12125409 -8.55126049 28.63499403 -8.55226326 25.14840317 C-8.55646723 23.47784214 -8.56890875 21.80728056 -8.58978081 20.13684464 C-8.61668059 17.79775994 -8.61187591 15.46074314 -8.59936523 13.12158203 C-8.61419952 12.43361542 -8.62903381 11.7456488 -8.64431763 11.03683472 C-8.58654904 7.23823002 -8.05827974 5.69765185 -5.65003967 2.69552612 C-3 0.625 -3 0.625 0 0 Z " fill="#FED5B9" transform="translate(64,127.375)"/>
<path d="M0 0 C4.37944464 3.66224577 6.55518489 7.5292548 8.86328125 12.60546875 C9.2120784 13.34906143 9.56087555 14.09265411 9.92024231 14.85877991 C11.06116383 17.2970885 12.18674925 19.74215513 13.3125 22.1875 C14.11270062 23.90446993 14.91398586 25.62093475 15.71630859 27.33691406 C17.35830503 30.85222774 18.99469019 34.37006689 20.62646484 37.89013672 C23.77052913 44.66768127 26.96034168 51.42347929 30.1491394 58.18005371 C31.45155153 60.94266464 32.74944403 63.70738836 34.04743958 66.47207642 C36.78506836 72.3027468 39.53262723 78.1284659 42.2984314 83.9458313 C43.7655346 87.03241867 45.22903495 90.12070834 46.69232178 93.20910645 C47.38540501 94.6693447 48.08020804 96.12876821 48.7769165 97.58728027 C61.43857638 124.09809086 61.43857638 124.09809086 61.25 138.75 C61.23658569 139.93505127 61.23658569 139.93505127 61.22290039 141.14404297 C60.87912064 158.61802921 55.33400792 173.57930458 44 187 C43.39671875 187.71542969 42.7934375 188.43085938 42.171875 189.16796875 C31.11869015 201.17321364 16.18089616 207.13259132 0.16015625 208.2734375 C-18.62713123 208.93404415 -34.09625715 202.56305318 -47.875 189.75 C-61.1767661 175.53342843 -66.9602219 158.21288593 -67.375 139.125 C-67.40118408 138.43067871 -67.42736816 137.73635742 -67.4543457 137.02099609 C-67.49097782 125.13862232 -62.44429044 114.00501657 -57.375 103.5 C-56.51610627 101.68494652 -55.65721652 99.86989115 -54.79844666 98.05477905 C-53.86746611 96.09222699 -52.93126673 94.13224225 -51.99365234 92.17285156 C-49.88506445 87.76461649 -47.79512213 83.3476607 -45.70703125 78.9296875 C-43.05507795 73.32055301 -40.3995592 67.71314201 -37.73872375 62.10821533 C-34.32417217 54.91491864 -30.92151644 47.71626233 -27.5390625 40.5078125 C-27.18030533 39.74358978 -26.82154816 38.97936707 -26.45191956 38.19198608 C-24.76214688 34.59177469 -23.07426491 30.99069626 -21.3894043 27.38818359 C-19.60804984 23.58485791 -17.80899317 19.79024794 -16 16 C-15.68754333 15.34177246 -15.37508667 14.68354492 -15.05316162 14.00537109 C-14.12143225 12.05108432 -13.17785073 10.10298878 -12.23046875 8.15625 C-11.68156982 7.01994141 -11.1326709 5.88363281 -10.56713867 4.71289062 C-7.88649975 0.07240774 -5.12448144 -0.7174274 0 0 Z " fill="#950404" transform="translate(387,48)"/>
<path d="M0 0 C1.14622078 -0.01030998 1.14622078 -0.01030998 2.31559753 -0.02082825 C3.13918762 -0.00285187 3.96277771 0.01512451 4.81132507 0.03364563 C5.68987656 0.0329155 6.56842804 0.03218536 7.47360229 0.03143311 C10.36895627 0.03490835 13.26268874 0.07376618 16.15776062 0.11299133 C18.16842775 0.12231969 20.17910626 0.12943569 22.18978882 0.13442993 C27.47547418 0.15349787 32.76046985 0.20259735 38.04588318 0.25794983 C43.44180471 0.30914645 48.83783796 0.33194489 54.2339325 0.35713196 C64.8169174 0.41071592 75.39939098 0.49602663 85.98197937 0.60127258 C86.11692183 3.20716148 86.21600236 5.80609369 86.29447937 8.41377258 C86.3363739 9.15176086 86.37826843 9.88974915 86.4214325 10.65010071 C86.47026062 12.80830383 86.47026062 12.80830383 85.98197937 16.60127258 C83.59106445 18.39593506 83.59106445 18.39593506 80.98197937 19.60127258 C79.71207938 21.21129055 79.71207938 21.21129055 78.92411804 23.07417297 C78.59511505 23.76637436 78.26611206 24.45857574 77.92713928 25.17175293 C77.5881662 25.92322098 77.24919312 26.67468903 76.89994812 27.44892883 C76.52890961 28.23983414 76.15787109 29.03073944 75.77558899 29.84561157 C74.5597538 32.44548581 73.36475667 35.05439153 72.16947937 37.66377258 C71.32219396 39.48491327 70.47346229 41.30538173 69.62333679 43.12519836 C67.89284365 46.83444105 66.17002044 50.5470913 64.45365906 54.26289368 C61.26253498 61.16607544 58.01394829 68.04179714 54.76545715 74.91810608 C53.14620699 78.35040547 51.53545663 81.78669098 49.92338562 85.22236633 C47.52422254 90.33362516 45.11248899 95.43870611 42.68807983 100.53804016 C41.21981592 103.62698403 39.75514515 106.71762582 38.29066467 109.80836487 C37.59714456 111.26945307 36.90191516 112.72973145 36.20478821 114.18910217 C26.71853319 133.91724255 26.71853319 133.91724255 23.73197937 155.35127258 C23.74092224 156.14130676 23.74986511 156.93134094 23.75907898 157.74531555 C24.1035183 175.25282735 29.66867229 190.13412949 40.98197937 203.60127258 C41.51178406 204.24322571 42.04158875 204.88517883 42.58744812 205.54658508 C52.76890761 216.75876022 68.14175672 222.86048195 82.98197937 224.41377258 C84.30197937 224.47564758 85.62197937 224.53752258 86.98197937 224.60127258 C86.98197937 229.88127258 86.98197937 235.16127258 86.98197937 240.60127258 C75.18617369 240.67074184 63.39041657 240.72406828 51.59444809 240.7567091 C46.1172692 240.77237399 40.64023013 240.79362745 35.16313171 240.82759094 C29.87875746 240.86015479 24.5945178 240.87811939 19.31005096 240.88590431 C17.29258861 240.89145315 15.27513373 240.90228851 13.25772858 240.91846275 C10.43485515 240.94019737 7.61254001 240.94324116 4.78959656 240.94184875 C3.95306046 240.95263458 3.11652435 240.96342041 2.25463867 240.97453308 C-1.06897667 240.95675974 -3.5457888 240.85443266 -6.5059967 239.26748657 C-9.98502797 235.43367782 -9.16916976 230.4378342 -9.17192078 225.58042908 C-9.17630303 224.64626014 -9.18068528 223.71209121 -9.18520033 222.74961412 C-9.19860083 219.60592665 -9.20476995 216.46226722 -9.21089172 213.31855774 C-9.21879153 211.07009758 -9.22706041 208.8216387 -9.235672 206.57318115 C-9.26190019 199.17891147 -9.27719774 191.78463608 -9.29145813 184.39033508 C-9.29681697 181.84744132 -9.30219448 179.30454759 -9.30759048 176.7616539 C-9.32921796 166.18786163 -9.34810794 155.61407071 -9.35921288 145.04026222 C-9.36214257 142.29692709 -9.36510424 139.553592 -9.36811829 136.81025696 C-9.36886434 136.12841423 -9.36961039 135.44657151 -9.37037905 134.74406688 C-9.38303889 123.69302985 -9.41627166 112.64215349 -9.45792012 101.5911916 C-9.50032409 90.24687052 -9.52349817 78.9026616 -9.52913344 67.55825078 C-9.53279353 61.18808227 -9.54488539 54.8181863 -9.57723618 48.44809341 C-9.60722218 42.45788945 -9.61366232 36.46812432 -9.60185242 30.4778614 C-9.60163091 28.27718918 -9.60999946 26.07649714 -9.62750626 23.87589455 C-9.65008072 20.87542391 -9.64195707 17.87656042 -9.62602234 14.87608337 C-9.63990443 14.00166678 -9.65378651 13.12725019 -9.66808927 12.22633612 C-9.6113729 7.90336429 -9.40669727 6.11830666 -6.73114681 2.55917645 C-4.12143854 0.67590322 -3.12555283 -0.02185701 0 0 Z " fill="#F1F1F1" transform="translate(297.0180206298828,31.398727416992188)"/>
<path d="M0 0 C0.20302734 1.051875 0.20302734 1.051875 0.41015625 2.125 C2.24341851 10.2045271 5.14896738 15.44727279 11.8828125 20.37890625 C17.0450246 23.37800518 22.14182393 23.91754565 28 23 C30.68518359 22.1049388 33.21166659 21.07661241 35.7734375 19.875 C38 19 38 19 42 19 C44.0078125 19.875 44.0078125 19.875 46.125 21 C51.16185826 23.29997292 55.52302846 24.03007263 61 23 C63.69590814 21.79352216 66.17152901 20.46307774 68.67578125 18.8984375 C71 18 71 18 73.59375 18.75 C74.3878125 19.1625 75.181875 19.575 76 20 C81.70846829 22.91019952 86.57740682 24.08954706 93 23 C95.70082315 21.7987618 98.16973561 20.46419825 100.67578125 18.8984375 C103 18 103 18 105.58984375 18.75 C106.38519531 19.1625 107.18054688 19.575 108 20 C114.48031545 23.24015773 119.58586086 24.18021545 126.5859375 22.30859375 C132.38458238 20.22769866 135.98568318 17.64815631 140 13 C143.21343992 14.05695927 144.05304458 15.08467365 145.88671875 18.01171875 C146.49954081 19.23074491 147.0994587 20.45632857 147.6875 21.6875 C147.99494141 22.28755859 148.30238281 22.88761719 148.61914062 23.50585938 C150.66199196 27.66755433 151.56480358 31.40323785 152 36 C152.07863281 36.72445312 152.15726563 37.44890625 152.23828125 38.1953125 C152.64156916 48.68079807 148.74306631 59.0394356 142 67 C135.80800612 73.59233832 127.18475607 79.58227673 117.88360214 80.12304783 C117.12035755 80.12212604 116.35711296 80.12120424 115.57073975 80.12025452 C114.24988373 80.12231651 114.24988373 80.12231651 112.90234375 80.12442017 C111.94424805 80.12082489 110.98615234 80.11722961 109.99902344 80.11352539 C108.98406799 80.11367142 107.96911255 80.11381744 106.92340088 80.1139679 C103.56870384 80.11327124 100.21406234 80.10549036 96.859375 80.09765625 C94.53338654 80.09579119 92.20739769 80.0943677 89.88140869 80.09336853 C83.75922562 80.08955027 77.63706627 80.07972584 71.51489258 80.06866455 C65.26774415 80.05843561 59.02059189 80.05386773 52.7734375 80.04882812 C40.51561458 80.03810298 28.25780926 80.02103481 16 80 C15.9906543 78.89076172 15.98130859 77.78152344 15.97167969 76.63867188 C15.93157898 72.49341794 15.86576602 68.3488906 15.79248047 64.20410156 C15.76438666 62.4157856 15.74311486 60.62734814 15.72900391 58.83886719 C15.70741249 56.25653398 15.66068291 53.67564381 15.609375 51.09375 C15.60814636 50.30383667 15.60691772 49.51392334 15.60565186 48.70007324 C15.43264781 42.03049339 13.42370317 36.8684652 9.10546875 31.7578125 C2.68766886 26.29418652 -3.08098071 24.46527675 -11.515625 24.6953125 C-18.69795986 25.57616489 -22.99190098 29.56494463 -27.5546875 34.90234375 C-30.23254815 38.78886043 -31.24159619 42.39669654 -31.4140625 47.08203125 C-31.47207031 48.47905273 -31.47207031 48.47905273 -31.53125 49.90429688 C-31.57765625 51.34385742 -31.57765625 51.34385742 -31.625 52.8125 C-31.68300781 54.28106445 -31.68300781 54.28106445 -31.7421875 55.77929688 C-31.83610816 58.18601374 -31.92178201 60.59273012 -32 63 C-37.75938554 57.48734578 -40.19524092 49.92288226 -40.6003418 42.04760742 C-40.74004625 30.4466049 -36.83440644 20.56408154 -29 12 C-20.99231393 3.87899762 -11.40204222 -0.39317387 0 0 Z " fill="#748CAD" transform="translate(72,88)"/>
<path d="M0 0 C4.37944464 3.66224577 6.55518489 7.5292548 8.86328125 12.60546875 C9.2120784 13.34906143 9.56087555 14.09265411 9.92024231 14.85877991 C11.06116383 17.2970885 12.18674925 19.74215513 13.3125 22.1875 C14.11270062 23.90446993 14.91398586 25.62093475 15.71630859 27.33691406 C17.35830503 30.85222774 18.99469019 34.37006689 20.62646484 37.89013672 C23.77052913 44.66768127 26.96034168 51.42347929 30.1491394 58.18005371 C31.45155153 60.94266464 32.74944403 63.70738836 34.04743958 66.47207642 C36.78506836 72.3027468 39.53262723 78.1284659 42.2984314 83.9458313 C43.7655346 87.03241867 45.22903495 90.12070834 46.69232178 93.20910645 C47.38540501 94.6693447 48.08020804 96.12876821 48.7769165 97.58728027 C61.43857638 124.09809086 61.43857638 124.09809086 61.25 138.75 C61.23658569 139.93505127 61.23658569 139.93505127 61.22290039 141.14404297 C60.87912064 158.61802921 55.33400792 173.57930458 44 187 C43.39671875 187.71542969 42.7934375 188.43085938 42.171875 189.16796875 C31.11869015 201.17321364 16.18089616 207.13259132 0.16015625 208.2734375 C-18.62713123 208.93404415 -34.09625715 202.56305318 -47.875 189.75 C-61.1767661 175.53342843 -66.9602219 158.21288593 -67.375 139.125 C-67.40118408 138.43067871 -67.42736816 137.73635742 -67.4543457 137.02099609 C-67.49097782 125.13862232 -62.44429044 114.00501657 -57.375 103.5 C-56.51610627 101.68494652 -55.65721652 99.86989115 -54.79844666 98.05477905 C-53.86746611 96.09222699 -52.93126673 94.13224225 -51.99365234 92.17285156 C-49.88506445 87.76461649 -47.79512213 83.3476607 -45.70703125 78.9296875 C-43.05507795 73.32055301 -40.3995592 67.71314201 -37.73872375 62.10821533 C-34.32417217 54.91491864 -30.92151644 47.71626233 -27.5390625 40.5078125 C-27.18030533 39.74358978 -26.82154816 38.97936707 -26.45191956 38.19198608 C-24.76214688 34.59177469 -23.07426491 30.99069626 -21.3894043 27.38818359 C-19.60804984 23.58485791 -17.80899317 19.79024794 -16 16 C-15.68754333 15.34177246 -15.37508667 14.68354492 -15.05316162 14.00537109 C-14.12143225 12.05108432 -13.17785073 10.10298878 -12.23046875 8.15625 C-11.68156982 7.01994141 -11.1326709 5.88363281 -10.56713867 4.71289062 C-7.88649975 0.07240774 -5.12448144 -0.7174274 0 0 Z M-4 28 C-14.25406173 49.52066932 -24.48783939 71.04767874 -34.47070312 92.69580078 C-35.81788903 95.60653099 -37.173503 98.51314688 -38.5342865 101.4175415 C-39.92209049 104.38093985 -41.30399136 107.34709438 -42.6875 110.3125 C-43.19337646 111.38677246 -43.69925293 112.46104492 -44.22045898 113.56787109 C-50.30548275 126.65261276 -52.97097148 141.73994848 -49.08984375 156.04296875 C-47.92167447 159.18688414 -46.60293732 162.0563473 -45 165 C-44.54238281 165.8971875 -44.08476562 166.794375 -43.61328125 167.71875 C-37.99378639 177.94161189 -30.51089398 184.13131751 -20 189 C-19.28199219 189.34160156 -18.56398438 189.68320313 -17.82421875 190.03515625 C-7.54645821 194.19658472 4.74241158 192.99438963 14.79296875 188.84765625 C28.72232956 182.47439991 37.15183775 172.81741253 42.875 158.6875 C44.77027808 152.47519962 45.2229144 146.2805806 45.3125 139.8125 C45.35600586 138.79446289 45.35600586 138.79446289 45.40039062 137.75585938 C45.55547255 124.86020079 38.2775618 112.81864257 32.8125 101.5 C32.01437067 99.83345585 31.21702114 98.16653804 30.42041016 96.49926758 C28.77364488 93.05373647 27.12387248 89.60966974 25.47216797 86.16650391 C21.93378023 78.78179335 18.44176705 71.37523376 14.95028687 63.96826172 C13.91272813 61.76752412 12.87417361 59.56725983 11.83520508 57.3671875 C7.21466281 47.58226739 2.60556487 37.7919774 -2 28 C-2.66 28 -3.32 28 -4 28 Z " fill="#030202" transform="translate(387,48)"/>
<path d="M0 0 C4.17147085 0.86905643 5.42327675 2.23153438 8 5.625 C8.72267023 9.02226399 8.67408238 12.35353363 8.63671875 15.81640625 C8.64709671 16.79866684 8.65747467 17.78092743 8.66816711 18.79295349 C8.69783004 21.92482617 8.69447547 25.05551231 8.6875 28.1875 C8.69639391 31.32272505 8.71234848 34.45763304 8.7389679 37.59275818 C8.75387726 39.54148546 8.75768961 41.49033639 8.74919128 43.43910217 C8.75292252 44.32359543 8.75665375 45.20808868 8.76049805 46.11938477 C8.75874069 46.89484146 8.75698334 47.67029816 8.75517273 48.46925354 C9.03654141 50.94675339 9.64864248 52.53385387 11 54.625 C11.845625 54.90859375 12.69125 55.1921875 13.5625 55.484375 C14.366875 55.86078125 15.17125 56.2371875 16 56.625 C16.75 59.453125 16.75 59.453125 17 62.875 C17.34723205 67.58433466 18.06354206 70.66081894 21.328125 74.21386719 C24.66027928 77.02634554 28.58377302 78.76584171 32.5 80.625 C38.64491103 83.54218594 43.15652048 85.89028453 47 91.625 C48.32980326 95.75655411 47.94491898 99.76517822 47.68066406 104.04003906 C47.63234562 104.87776981 47.58402718 105.71550056 47.53424454 106.5786171 C46.93809113 116.39910417 46.03012236 126.19004604 45.109375 135.984375 C44.92212553 138.00672824 44.73522434 140.02911375 44.54864502 142.05152893 C44.05475867 147.39555169 43.55646185 152.739154 43.05718994 158.08267593 C42.5420885 163.60330224 42.03088275 169.12428897 41.51953125 174.64526367 C40.91055042 181.21895059 40.30141007 187.79262189 39.69055176 194.36613464 C38.55242035 206.6188648 37.42761117 218.87264791 36.328125 231.12890625 C36.20873283 232.45749018 36.08932804 233.78607297 35.96990967 235.11465454 C35.54419747 239.85560291 35.11884776 244.59657572 34.6986084 249.3380127 C34.42632602 252.40914206 34.15096318 255.47998085 33.875 258.55078125 C33.79936829 259.41683487 33.72373657 260.28288849 33.64581299 261.17518616 C33.53883087 262.35751076 33.53883087 262.35751076 33.4296875 263.5637207 C33.37022949 264.23409866 33.31077148 264.90447662 33.24951172 265.59516907 C32.9591413 267.95739419 32.46675733 270.29121336 32 272.625 C24.41 272.625 16.82 272.625 9 272.625 C9 267.28202639 9.00711353 262.42949801 9.53149414 257.19462585 C9.6492923 255.99637177 9.76709045 254.79811768 9.88845825 253.56355286 C10.08482376 251.63463448 10.08482376 251.63463448 10.28515625 249.66674805 C10.42348125 248.27608097 10.56139918 246.88537335 10.69894409 245.49462891 C10.99439492 242.51523062 11.29252562 239.53611739 11.59274292 236.55719566 C12.06831972 231.83638823 12.53678163 227.11489091 13.00415039 222.39326477 C14.16604559 210.666083 15.33676947 198.93978468 16.51013184 187.21374512 C17.42240277 178.09618318 18.33200686 168.9783724 19.23353863 159.85974151 C19.69682204 155.17682774 20.16553686 150.49450083 20.63850403 145.81255567 C20.93286939 142.88642254 21.22227215 139.95981341 21.51037979 137.03305817 C21.70678909 135.05265116 21.90904084 133.07282623 22.11154175 131.09303284 C24.34338282 115.11605494 24.34338282 115.11605494 19 100.625 C13.87112651 94.51459007 6.8414364 91.20803795 -0.18432617 87.73266602 C-0.90467041 87.37229248 -1.62501465 87.01191895 -2.3671875 86.640625 C-3.01800293 86.32383789 -3.66881836 86.00705078 -4.33935547 85.68066406 C-6 84.625 -6 84.625 -8 81.625 C-8.20904844 79.17550197 -8.30404258 76.83794681 -8.30639648 74.38720703 C-8.31472 73.65352905 -8.32304352 72.91985107 -8.33161926 72.16394043 C-8.35572834 69.73684391 -8.36449239 67.31001609 -8.37109375 64.8828125 C-8.38005947 63.19513874 -8.38918131 61.50746581 -8.39845276 59.8197937 C-8.41494781 56.28072172 -8.42264379 52.7417444 -8.42553711 49.20263672 C-8.43092124 44.67061983 -8.46859952 40.13949416 -8.51428127 35.60772896 C-8.54404402 32.12125409 -8.55126049 28.63499403 -8.55226326 25.14840317 C-8.55646723 23.47784214 -8.56890875 21.80728056 -8.58978081 20.13684464 C-8.61668059 17.79775994 -8.61187591 15.46074314 -8.59936523 13.12158203 C-8.61419952 12.43361542 -8.62903381 11.7456488 -8.64431763 11.03683472 C-8.58654904 7.23823002 -8.05827974 5.69765185 -5.65003967 2.69552612 C-3 0.625 -3 0.625 0 0 Z " fill="#F6B88E" transform="translate(64,127.375)"/>
<path d="M0 0 C0.02505615 0.60473145 0.0501123 1.20946289 0.07592773 1.83251953 C0.19263006 4.5968562 0.31501734 7.36091366 0.4375 10.125 C0.47681641 11.07632812 0.51613281 12.02765625 0.55664062 13.0078125 C0.59853516 13.9359375 0.64042969 14.8640625 0.68359375 15.8203125 C0.73858032 17.09285889 0.73858032 17.09285889 0.79467773 18.39111328 C0.96161187 21.03707236 0.96161187 21.03707236 1.48377991 23.76696777 C1.99535036 26.9708798 2.26783487 30.09974703 2.46484375 33.33740234 C2.54162354 34.572435 2.61840332 35.80746765 2.69750977 37.07992554 C2.75613693 38.05867708 2.75613693 38.05867708 2.81594849 39.05720139 C2.93944312 41.11836884 3.06678602 43.17926814 3.19506836 45.24014282 C3.46685841 49.61821813 3.73359384 53.99659433 4 58.375 C4.30908303 63.4458848 4.62028127 68.51662915 4.93533325 73.58714676 C5.05984296 75.60536861 5.18126181 77.62376019 5.30249023 79.6421814 C5.72897831 86.91427538 5.72897831 86.91427538 6.55859375 94.14697266 C7.16027195 99.39901105 7 104.71360955 7 110 C-9.5 110 -26 110 -43 110 C-43.12032643 94.50908653 -43.12032643 94.50908653 -43.14648438 87.8359375 C-43.16432286 83.30685704 -43.18527841 78.77796086 -43.22631836 74.24902344 C-43.25924421 70.59205372 -43.27692187 66.93528202 -43.28463173 63.27817535 C-43.29011635 61.8925185 -43.30082379 60.50687079 -43.31719017 59.12129974 C-43.51432641 41.71785248 -39.40387944 26.85219841 -27.15625 13.9921875 C-19.99715352 7.37780488 -10.05870567 0 0 0 Z " fill="#FDD4B8" transform="translate(179,290)"/>
<path d="M0 0 C0.33 0 0.66 0 1 0 C1 27.39 1 54.78 1 83 C-1.64 83 -4.28 83 -7 83 C-7 90.92 -7 98.84 -7 107 C-14.92 107 -22.84 107 -31 107 C-31 112.28 -31 117.56 -31 123 C-23.08 123 -15.16 123 -7 123 C-7 130.92 -7 138.84 -7 147 C-4.36 147 -1.72 147 1 147 C1 152.28 1 157.56 1 163 C-11.15045266 163 -19.62516139 159.6242143 -29 152 C-29.62519531 151.52304688 -30.25039063 151.04609375 -30.89453125 150.5546875 C-38.41749521 144.06761699 -45.2777761 130.48077537 -46.23120117 120.60522461 C-46.37833711 117.7336344 -46.42054271 114.87520281 -46.4375 112 C-46.47037109 111.04738281 -46.50324219 110.09476562 -46.53710938 109.11328125 C-46.63527871 95.74440211 -40.32572667 84.09251576 -34.5 72.375 C-33.24732875 69.82355279 -32.0006181 67.26920714 -30.75390625 64.71484375 C-30.4392189 64.07162674 -30.12453156 63.42840973 -29.80030823 62.76570129 C-26.59261307 56.196546 -23.50436661 49.57346781 -20.4375 42.9375 C-19.91446289 41.80707275 -19.39142578 40.67664551 -18.85253906 39.51196289 C-17.23327683 36.00878001 -15.61640326 32.50450287 -14 29 C-11.87788043 24.40089233 -9.75355392 19.80281601 -7.62576294 15.20632935 C-6.7648836 13.34468565 -5.90667073 11.48182864 -5.04858398 9.61889648 C-4.53239502 8.50329346 -4.01620605 7.38769043 -3.484375 6.23828125 C-3.02772461 5.24868408 -2.57107422 4.25908691 -2.10058594 3.23950195 C-1 1 -1 1 0 0 Z " fill="#B70000" transform="translate(383,77)"/>
<path d="M0 0 C38.28 0 76.56 0 116 0 C118.09598721 10.47993606 117.60443863 21.31984301 118 32 C78.07 32 38.14 32 -3 32 C-2.33171403 21.30742446 -1.32883858 10.63070862 0 0 Z " fill="#A27D3C" transform="translate(71,416)"/>
<path d="M0 0 C41.25 0 82.5 0 125 0 C125 5.28 125 10.56 125 16 C83.42 16 41.84 16 -1 16 C-0.67 10.72 -0.34 5.44 0 0 Z " fill="#FED5B9" transform="translate(66,464)"/>
<path d="M0 0 C5.28 0 10.56 0 16 0 C16 7.92 16 15.84 16 24 C23.92 24 31.84 24 40 24 C40 29.28 40 34.56 40 40 C32.08 40 24.16 40 16 40 C16 47.92 16 55.84 16 64 C10.72 64 5.44 64 0 64 C0 56.08 0 48.16 0 40 C-7.92 40 -15.84 40 -24 40 C-24 34.72 -24 29.44 -24 24 C-16.08 24 -8.16 24 0 24 C0 16.08 0 8.16 0 0 Z " fill="#000000" transform="translate(376,160)"/>
<path d="M0 0 C10.56 0 21.12 0 32 0 C32.0690497 5.0176117 32.12872743 10.03356045 32.16479492 15.05126953 C32.17983738 16.75640463 32.20027653 18.46150132 32.22631836 20.16650391 C32.26290284 22.62412012 32.27977173 25.08122269 32.29296875 27.5390625 C32.30845261 28.29555084 32.32393646 29.05203918 32.33988953 29.83145142 C32.34160672 35.29006309 31.30676846 39.47096478 27.5 43.64453125 C22.09279135 47.85483174 17.72106323 48.82862423 11 48 C5.6964772 45.29820537 1.90167702 41.70503105 0 36 C-0.08507079 33.2684044 -0.11591565 30.56308557 -0.09765625 27.83203125 C-0.0962413 27.03721848 -0.09482635 26.2424057 -0.09336853 25.42350769 C-0.08777378 22.88646675 -0.07522228 20.34951425 -0.0625 17.8125 C-0.05748432 16.09179815 -0.05292153 14.37109492 -0.04882812 12.65039062 C-0.03865722 8.43353231 -0.01908084 4.21686509 0 0 Z " fill="#3D9239" transform="translate(368,288)"/>
<path d="M0 0 C4.23848364 0.88301743 5.42854262 2.11730128 8 5.625 C8.73290616 9.59258571 8.652778 13.50675896 8.59375 17.53125 C8.59379028 18.68870728 8.59383057 19.84616455 8.59387207 21.03869629 C8.58851653 23.48304684 8.57093268 25.92739694 8.54199219 28.37158203 C8.50015061 32.11153833 8.50092365 35.84969293 8.5078125 39.58984375 C8.49731945 41.96615834 8.48438074 44.34246365 8.46875 46.71875 C8.46854858 47.8365686 8.46834717 48.95438721 8.46813965 50.1060791 C8.44427185 51.67295471 8.44427185 51.67295471 8.41992188 53.27148438 C8.41150269 54.1868396 8.4030835 55.10219482 8.39440918 56.04528809 C7.917351 59.16558226 6.83073373 61.07382635 5 63.625 C2.19084526 65.02957737 0.11189466 64.87395157 -3 64.625 C-6.1359157 62.84515595 -6.84102736 62.10191793 -8 58.625 C-8.11226312 56.91865843 -8.16896412 55.20839861 -8.19287109 53.49853516 C-8.21696548 51.93143295 -8.21696548 51.93143295 -8.24154663 50.33267212 C-8.28602343 45.56488736 -8.32704304 40.79724045 -8.35009766 36.02929688 C-8.36667624 33.51325239 -8.39399082 30.99725536 -8.43212891 28.48144531 C-8.48682216 24.85456909 -8.50875922 21.22879524 -8.5234375 17.6015625 C-8.54610687 16.47746979 -8.56877625 15.35337708 -8.59213257 14.19522095 C-8.57101223 6.40644147 -8.57101223 6.40644147 -5.65478516 2.41552734 C-3 0.625 -3 0.625 0 0 Z " fill="#F4B78D" transform="translate(128,31.375)"/>
<path d="M0 0 C4.10877321 0.85599442 5.41574826 2.34044396 8 5.625 C8.47525207 8.62587739 8.65757869 11.04196565 8.59375 14.03125 C8.59379028 14.83357056 8.59383057 15.63589111 8.59387207 16.46252441 C8.58852641 18.15364443 8.57098422 19.8447646 8.54199219 21.53564453 C8.50012994 24.11698724 8.50092685 26.69571867 8.5078125 29.27734375 C8.49731904 30.92449721 8.48438008 32.57163728 8.46875 34.21875 C8.46854858 34.98658813 8.46834717 35.75442627 8.46813965 36.54553223 C8.36901692 41.05724744 7.80652434 44.04212988 5 47.625 C2.19084526 49.02957737 0.11189466 48.87395157 -3 48.625 C-6.1359157 46.84515595 -6.84102736 46.10191793 -8 42.625 C-8.27689497 37.37380951 -8.31339221 32.12304115 -8.35009766 26.86523438 C-8.36666642 25.12518955 -8.39396889 23.38521305 -8.43212891 21.64550781 C-8.48696881 19.13050214 -8.5087786 16.61708593 -8.5234375 14.1015625 C-8.54610687 13.32745026 -8.56877625 12.55333801 -8.59213257 11.75576782 C-8.57635093 7.70959063 -8.18164113 5.85663687 -5.65478516 2.63427734 C-3 0.625 -3 0.625 0 0 Z " fill="#F3B68D" transform="translate(160,47.375)"/>
<path d="M0 0 C4.10877321 0.85599442 5.41574826 2.34044396 8 5.625 C8.47525207 8.62587739 8.65757869 11.04196565 8.59375 14.03125 C8.59379028 14.83357056 8.59383057 15.63589111 8.59387207 16.46252441 C8.58852641 18.15364443 8.57098422 19.8447646 8.54199219 21.53564453 C8.50012994 24.11698724 8.50092685 26.69571867 8.5078125 29.27734375 C8.49731904 30.92449721 8.48438008 32.57163728 8.46875 34.21875 C8.46854858 34.98658813 8.46834717 35.75442627 8.46813965 36.54553223 C8.36901692 41.05724744 7.80652434 44.04212988 5 47.625 C2.19084526 49.02957737 0.11189466 48.87395157 -3 48.625 C-6.1359157 46.84515595 -6.84102736 46.10191793 -8 42.625 C-8.27689497 37.37380951 -8.31339221 32.12304115 -8.35009766 26.86523438 C-8.36666642 25.12518955 -8.39396889 23.38521305 -8.43212891 21.64550781 C-8.48696881 19.13050214 -8.5087786 16.61708593 -8.5234375 14.1015625 C-8.54610687 13.32745026 -8.56877625 12.55333801 -8.59213257 11.75576782 C-8.57635093 7.70959063 -8.18164113 5.85663687 -5.65478516 2.63427734 C-3 0.625 -3 0.625 0 0 Z " fill="#F3B68D" transform="translate(96,47.375)"/>
<path d="M0 0 C4.18421805 0.87171209 5.42961969 2.20639419 8 5.625 C8.68745025 9.14220473 8.60807733 12.55353546 8.5 16.125 C8.50386719 17.53072266 8.50386719 17.53072266 8.5078125 18.96484375 C8.43739363 23.92937377 8.31960315 27.65449427 5 31.625 C2.19084526 33.02957737 0.11189466 32.87395157 -3 32.625 C-6.1359157 30.84515595 -6.84102736 30.10191793 -8 26.625 C-8.3042547 23.17190178 -8.3234943 19.71492872 -8.375 16.25 C-8.41238281 15.30382812 -8.44976562 14.35765625 -8.48828125 13.3828125 C-8.54802825 8.65616069 -8.56587514 6.38202359 -5.6640625 2.5 C-3 0.625 -3 0.625 0 0 Z " fill="#F2B58C" transform="translate(192,63.375)"/>
<path d="M0 0 C7.92 0 15.84 0 24 0 C23.67 5.28 23.34 10.56 23 16 C15.08 16 7.16 16 -1 16 C-0.67 10.72 -0.34 5.44 0 0 Z " fill="#F6B88E" transform="translate(66,464)"/>
</svg>
