<svg width="23" height="23" viewBox="0 0 23 23" fill="none" xmlns="http://www.w3.org/2000/svg">
<path d="M1.5 19C1.5 17.6739 2.02678 16.4021 2.96447 15.4645C3.90215 14.5268 5.17392 14 6.5 14H16.5C17.8261 14 19.0979 14.5268 20.0355 15.4645C20.9732 16.4021 21.5 17.6739 21.5 19C21.5 19.663 21.2366 20.2989 20.7678 20.7678C20.2989 21.2366 19.663 21.5 19 21.5H4C3.33696 21.5 2.70107 21.2366 2.23223 20.7678C1.76339 20.2989 1.5 19.663 1.5 19Z" stroke="black" stroke-width="1.5" stroke-linejoin="round"/>
<path d="M11.5 9C13.5711 9 15.25 7.32107 15.25 5.25C15.25 3.17893 13.5711 1.5 11.5 1.5C9.42893 1.5 7.75 3.17893 7.75 5.25C7.75 7.32107 9.42893 9 11.5 9Z" stroke="black" stroke-width="1.5"/>
</svg>
