<svg width="39" height="44" viewBox="0 0 39 44" fill="none" xmlns="http://www.w3.org/2000/svg">
<g id="Group 15">
<g id="Group">
<path id="Vector" d="M38.5 28.8893C38.5 37.235 29.8815 44 19.25 44C8.6185 44 0 37.235 0 28.8893C0 15.6673 19.25 0 19.25 0C19.25 0 38.5 15.6662 38.5 28.8893Z" fill="white"/>
<path id="Vector_2" fill-rule="evenodd" clip-rule="evenodd" d="M19.25 41.8C28.4116 41.8 35.75 35.981 35.75 28.8893C35.75 22.9966 31.3802 16.2547 26.6131 10.7371C24.3463 8.12531 21.8876 5.62354 19.25 3.245C18.9649 3.50167 18.6569 3.78363 18.326 4.0909C16.036 6.21481 13.8867 8.43325 11.8869 10.7371C7.11975 16.2547 2.75 22.9966 2.75 28.8893C2.75 35.9799 10.0884 41.8 19.25 41.8ZM17.38 1.617C12.5427 5.9499 0 18.216 0 28.8893C0 37.235 8.6185 44 19.25 44C29.8815 44 38.5 37.235 38.5 28.8893C38.5 18.216 25.9573 5.9499 21.12 1.617C19.965 0.583 19.25 0 19.25 0C19.25 0 18.535 0.583 17.38 1.617Z" fill="#800000"/>
</g>
<path id="Vector 7" d="M37.5 33H1C4.6 42.1921 14.5 44.1571 19 43.9905C32.2 43.1912 36.6667 36.3305 37.5 33Z" fill="#800000"/>
</g>
</svg>
