<svg width="24" height="24" viewBox="0 0 24 24" fill="none" xmlns="http://www.w3.org/2000/svg">
<rect width="24" height="24" fill="#1E1E1E"/>
<g id="Home">
<g clip-path="url(#clip0_0_1)">
<rect x="-203" y="-324" width="430" height="932" rx="55.47" fill="white"/>
<g id="tools">
<g id="request for blood">
<g id="Rectangle 13" filter="url(#filter0_d_0_1)">
<rect x="-38" y="-27" width="99" height="99" rx="20" fill="white"/>
</g>
<path id="Vector" fill-rule="evenodd" clip-rule="evenodd" d="M12.0009 0.79461L12.6471 0.331736C12.5735 0.229092 12.4764 0.145465 12.3641 0.0877771C12.2517 0.0300893 12.1272 0 12.0009 0C11.8745 0 11.75 0.0300893 11.6377 0.0877771C11.5253 0.145465 11.4283 0.229092 11.3546 0.331736L12.0009 0.79461ZM12.0009 0.79461L11.3546 0.331736L11.3512 0.335165L11.3426 0.345451L11.3152 0.386595C11.154 0.612766 10.9963 0.841372 10.8421 1.07233C10.4547 1.64967 10.0821 2.23674 9.72445 2.83297C9.30322 3.52426 8.92315 4.23981 8.58624 4.9759C8.28455 5.65307 8.02057 6.40052 8.02057 7.02969C8.02057 8.11144 8.43197 9.15548 9.1742 9.92865C9.91643 10.7018 10.9346 11.1458 12.0009 11.1458C13.0671 11.1458 14.0836 10.7035 14.8275 9.92865C15.5715 9.15376 15.9811 8.11144 15.9811 7.0314C15.9811 6.40052 15.7172 5.65307 15.4155 4.97419C15.0786 4.2381 14.6985 3.52254 14.2773 2.83125C13.7773 1.99761 13.2467 1.18273 12.6865 0.38831L12.6591 0.345451L12.6505 0.335165L12.6488 0.333451L12.0009 0.796324V0.79461ZM0.00171416 8.76289V16.8649C0.00190833 17.7742 0.363233 18.6461 1.00621 19.289L4.76195 23.0451V24H10.4753V19.073C10.4754 18.5731 10.377 18.0782 10.1858 17.6164C9.99465 17.1546 9.71439 16.7349 9.36104 16.3814L6.89608 13.9162L6.88922 13.9094C6.61776 13.6835 6.26965 13.5711 5.9174 13.5956C5.56514 13.62 5.23588 13.7794 4.99818 14.0405C4.76048 14.3016 4.63267 14.6444 4.64135 14.9975C4.65003 15.3505 4.79454 15.6866 5.04478 15.9357L6.62181 17.5129C6.70367 17.592 6.76897 17.6866 6.81389 17.7911C6.8588 17.8957 6.88245 18.0082 6.88344 18.122C6.88443 18.2358 6.86274 18.3487 6.81965 18.4541C6.77655 18.5594 6.71291 18.6551 6.63244 18.7356C6.55196 18.8161 6.45627 18.8797 6.35094 18.9228C6.2456 18.9659 6.13274 18.9876 6.01894 18.9866C5.90514 18.9856 5.79267 18.962 5.6881 18.917C5.58354 18.8721 5.48896 18.8068 5.4099 18.725L3.83287 17.1478C3.25915 16.5733 2.9349 15.7959 2.93041 14.984C2.92591 14.1721 3.24154 13.3912 3.80887 12.8105V8.76118C3.80887 8.25603 3.60823 7.77158 3.25107 7.41439C2.89392 7.0572 2.40952 6.85654 1.90444 6.85654C1.39935 6.85654 0.914947 7.0572 0.557796 7.41439C0.200645 7.77158 0 8.25603 0 8.76118L0.00171416 8.76289ZM24 16.8649V8.76289C24 8.25775 23.7994 7.7733 23.4422 7.41611C23.0851 7.05892 22.6007 6.85825 22.0956 6.85825C21.5905 6.85825 21.1061 7.05892 20.7489 7.41611C20.3918 7.7733 20.1911 8.25775 20.1911 8.76289V12.8105C20.7595 13.3913 21.0758 14.173 21.0713 14.9858C21.0668 15.7985 20.7419 16.5766 20.1671 17.1512L18.5901 18.7267C18.4285 18.8828 18.212 18.9692 17.9872 18.9673C17.7625 18.9653 17.5475 18.8752 17.3886 18.7162C17.2297 18.5573 17.1396 18.3423 17.1376 18.1176C17.1357 17.8928 17.2221 17.6763 17.3782 17.5146L18.9552 15.9374C19.2098 15.6891 19.358 15.3515 19.3685 14.996C19.379 14.6405 19.2509 14.2948 19.0114 14.0319C18.7719 13.769 18.4396 13.6094 18.0847 13.5869C17.7297 13.5643 17.3799 13.6806 17.1091 13.9111L17.1022 13.9179L14.6407 16.3797C14.2871 16.7334 14.0067 17.1533 13.8156 17.6154C13.6244 18.0776 13.5261 18.5729 13.5265 19.073V24H19.2381V23.0468L22.9938 19.289C23.3125 18.9708 23.5654 18.593 23.738 18.177C23.9107 17.7611 23.9997 17.3152 24 16.8649Z" fill="black"/>
<path id="Vector_2" d="M16.2809 5.39372L11.8544 -1L7.75265 5.35002C6.79755 6.69562 6.71419 8.44529 7.71749 9.8944C9.14364 11.9542 12.2165 12.6155 14.5817 11.373C16.946 10.1309 17.707 7.45506 16.2809 5.39372Z" fill="#800000"/>
</g>
</g>
</g>
</g>
<defs>
<filter id="filter0_d_0_1" x="-42" y="-29" width="107" height="107" filterUnits="userSpaceOnUse" color-interpolation-filters="sRGB">
<feFlood flood-opacity="0" result="BackgroundImageFix"/>
<feColorMatrix in="SourceAlpha" type="matrix" values="0 0 0 0 0 0 0 0 0 0 0 0 0 0 0 0 0 0 127 0" result="hardAlpha"/>
<feMorphology radius="2" operator="dilate" in="SourceAlpha" result="effect1_dropShadow_0_1"/>
<feOffset dy="2"/>
<feGaussianBlur stdDeviation="1"/>
<feComposite in2="hardAlpha" operator="out"/>
<feColorMatrix type="matrix" values="0 0 0 0 0 0 0 0 0 0 0 0 0 0 0 0 0 0 0.25 0"/>
<feBlend mode="normal" in2="BackgroundImageFix" result="effect1_dropShadow_0_1"/>
<feBlend mode="normal" in="SourceGraphic" in2="effect1_dropShadow_0_1" result="shape"/>
</filter>
<clipPath id="clip0_0_1">
<rect x="-203" y="-324" width="430" height="932" rx="55.47" fill="white"/>
</clipPath>
</defs>
</svg>
