<svg width="29" height="29" viewBox="0 0 29 29" fill="none" xmlns="http://www.w3.org/2000/svg">
<g id="lets-icons:search-alt">
<g id="Group">
<path id="Vector" d="M13.2916 21.7502C17.9631 21.7502 21.75 17.9632 21.75 13.2918C21.75 8.62042 17.9631 4.8335 13.2916 4.8335C8.62024 4.8335 4.83331 8.62042 4.83331 13.2918C4.83331 17.9632 8.62024 21.7502 13.2916 21.7502Z" stroke="black" stroke-width="2"/>
<path id="Vector_2" d="M13.2916 9.66699C12.3302 9.66699 11.4082 10.0489 10.7284 10.7287C10.0485 11.4085 9.66663 12.3306 9.66663 13.292" stroke="#800000" stroke-width="2" stroke-linecap="round"/>
</g>
<path id="Vector 6" d="M24.0637 25.4781C24.4543 25.8686 25.0874 25.8686 25.478 25.4781C25.8685 25.0876 25.8685 24.4544 25.478 24.0639L24.0637 25.4781ZM18.6262 20.0406L24.0637 25.4781L25.478 24.0639L20.0405 18.6264L18.6262 20.0406Z" fill="black"/>
</g>
</svg>
