<svg width="374" height="249" viewBox="0 0 374 249" fill="none" xmlns="http://www.w3.org/2000/svg">
<path d="M336.525 231.97H311.751V232.139H336.525V231.97Z" fill="#EBEBEB"/>
<path d="M247.753 233.807H241.252V233.976H247.753V233.807Z" fill="#EBEBEB"/>
<path d="M311.003 225.703H296.649V225.872H311.003V225.703Z" fill="#EBEBEB"/>
<path d="M71.5462 226.838H39.2401V227.006H71.5462V226.838Z" fill="#EBEBEB"/>
<path d="M82.9457 226.838H78.2109V227.006H82.9457V226.838Z" fill="#EBEBEB"/>
<path d="M168.412 229.687H98.3396V229.856H168.412V229.687Z" fill="#EBEBEB"/>
<path d="M177.276 190.984H32.8522C31.7194 190.984 30.633 190.578 29.832 189.855C29.0311 189.132 28.5811 188.151 28.5811 187.128V3.82238C28.5909 2.80553 29.0453 1.83336 29.8452 1.11748C30.6451 0.401595 31.7258 -3.89842e-05 32.8522 2.83812e-09H177.276C178.409 2.83813e-09 179.495 0.406272 180.296 1.12944C181.097 1.85261 181.547 2.83344 181.547 3.85615V187.128C181.547 188.151 181.097 189.132 180.296 189.855C179.495 190.578 178.409 190.984 177.276 190.984ZM32.8522 0.135067C31.7696 0.136852 30.7319 0.525909 29.9665 1.21703C29.201 1.90815 28.7701 2.845 28.7681 3.82238V187.128C28.7701 188.105 29.201 189.042 29.9665 189.733C30.7319 190.424 31.7696 190.814 32.8522 190.815H177.276C178.359 190.814 179.396 190.424 180.162 189.733C180.927 189.042 181.358 188.105 181.36 187.128V3.82238C181.358 2.845 180.927 1.90815 180.162 1.21703C179.396 0.525909 178.359 0.136852 177.276 0.135067H32.8522Z" fill="#EBEBEB"/>
<path d="M339.076 190.984H194.637C193.505 190.982 192.42 190.576 191.619 189.853C190.819 189.13 190.368 188.15 190.366 187.128V3.82238C190.378 2.80608 190.833 1.83493 191.632 1.11943C192.432 0.403922 193.511 0.00172094 194.637 0H339.076C340.2 0.00351477 341.277 0.406719 342.073 1.12222C342.87 1.83772 343.322 2.80787 343.332 3.82238V187.128C343.332 188.148 342.884 189.127 342.086 189.85C341.289 190.573 340.206 190.981 339.076 190.984ZM194.637 0.135067C193.555 0.136852 192.517 0.525909 191.751 1.21703C190.986 1.90815 190.555 2.845 190.553 3.82238V187.128C190.555 188.105 190.986 189.042 191.751 189.733C192.517 190.424 193.555 190.814 194.637 190.815H339.076C340.158 190.814 341.196 190.424 341.962 189.733C342.727 189.042 343.158 188.105 343.16 187.128V3.82238C343.158 2.845 342.727 1.90815 341.962 1.21703C341.196 0.525909 340.158 0.136852 339.076 0.135067H194.637Z" fill="#EBEBEB"/>
<path d="M374 221.104H0V221.273H374V221.104Z" fill="#EBEBEB"/>
<path d="M162.009 33.9895H160.663V128.786H162.009V33.9895Z" fill="#E0E0E0"/>
<path d="M245.823 33.9895H244.476V128.786H245.823V33.9895Z" fill="#E0E0E0"/>
<path d="M251.096 39.9527H155.39L153.37 35.6981H253.116L251.096 39.9527Z" fill="#EBEBEB"/>
<path d="M251.096 45.7943H155.39L153.37 41.5397H253.116L251.096 45.7943Z" fill="#EBEBEB"/>
<path d="M251.096 51.636H155.39L153.37 47.3814H253.116L251.096 51.636Z" fill="#EBEBEB"/>
<path d="M251.096 57.4776H155.39L153.37 53.223H253.116L251.096 57.4776Z" fill="#EBEBEB"/>
<path d="M251.096 63.3192H155.39L153.37 59.0646H253.116L251.096 63.3192Z" fill="#EBEBEB"/>
<path d="M251.096 69.1608H155.39L153.37 64.9062H253.116L251.096 69.1608Z" fill="#EBEBEB"/>
<path d="M251.096 75.0025H155.39L153.37 70.7479H253.116L251.096 75.0025Z" fill="#EBEBEB"/>
<path d="M251.096 80.8441H155.39L153.37 76.5895H253.116L251.096 80.8441Z" fill="#EBEBEB"/>
<path d="M251.096 86.679H155.39L153.37 82.4311H253.116L251.096 86.679Z" fill="#EBEBEB"/>
<path d="M251.096 92.5206H155.39L153.37 88.266H253.116L251.096 92.5206Z" fill="#EBEBEB"/>
<path d="M251.096 98.3622H155.39L153.37 94.1077H253.116L251.096 98.3622Z" fill="#EBEBEB"/>
<path d="M251.096 104.204H155.39L153.37 99.9493H253.116L251.096 104.204Z" fill="#EBEBEB"/>
<path d="M251.096 110.046H155.39L153.37 105.791H253.116L251.096 110.046Z" fill="#EBEBEB"/>
<path d="M251.096 115.887H155.39L153.37 111.633H253.116L251.096 115.887Z" fill="#EBEBEB"/>
<path d="M251.096 121.729H155.39L153.37 117.474H253.116L251.096 121.729Z" fill="#EBEBEB"/>
<path d="M251.096 127.57H155.39L153.37 123.316H253.116L251.096 127.57Z" fill="#EBEBEB"/>
<path d="M253.116 127.57H153.37V130.002H253.116V127.57Z" fill="#E0E0E0"/>
<path d="M256.594 30.3697H149.892V36.0425H256.594V30.3697Z" fill="#E0E0E0"/>
<path d="M150.984 87.4759C150.696 87.4759 150.42 87.3727 150.217 87.1891C150.013 87.0054 149.899 86.7564 149.899 86.4967V53.4053C149.899 53.1456 150.013 52.8966 150.217 52.7129C150.42 52.5293 150.696 52.4261 150.984 52.4261C151.271 52.4261 151.547 52.5293 151.751 52.7129C151.954 52.8966 152.068 53.1456 152.068 53.4053V86.4967C152.068 86.7564 151.954 87.0054 151.751 87.1891C151.547 87.3727 151.271 87.4759 150.984 87.4759Z" fill="#E0E0E0"/>
<path d="M151.38 34.908H150.595V54.5602H151.38V34.908Z" fill="#E0E0E0"/>
<path d="M296.881 138.68H294.637V114.435C294.674 111.843 293.609 109.337 291.661 107.432C289.713 105.527 287.03 104.37 284.165 104.197C281.241 104.065 278.379 104.987 276.207 106.76C274.036 108.533 272.733 111.012 272.586 113.652C272.582 113.779 272.524 113.9 272.424 113.989C272.323 114.079 272.189 114.13 272.048 114.131H270.888C270.815 114.131 270.743 114.118 270.676 114.092C270.608 114.067 270.548 114.029 270.497 113.982C270.446 113.935 270.406 113.879 270.379 113.818C270.353 113.756 270.34 113.691 270.342 113.625C270.488 110.572 271.918 107.685 274.341 105.552C276.764 103.418 279.996 102.2 283.38 102.144C290.807 102.029 296.844 107.743 296.844 114.449L296.881 138.68Z" fill="#F0F0F0"/>
<path d="M324.168 141.327H308.221V221.077H324.168V141.327Z" fill="#E6E6E6"/>
<path d="M312.574 141.327H139.786V221.077H312.574V141.327Z" fill="#F5F5F5"/>
<path d="M312.574 157.933H139.786V159.284H182.235V221.077H183.731V159.284H225.028V221.077H226.524V159.284H267.814V221.077H269.31V159.284H312.574V157.933Z" fill="#E0E0E0"/>
<path d="M177.934 193.388C177.537 193.388 177.157 193.246 176.876 192.993C176.596 192.739 176.438 192.396 176.438 192.038V185.96C176.438 185.601 176.596 185.258 176.876 185.005C177.157 184.751 177.537 184.609 177.934 184.609C178.331 184.609 178.712 184.751 178.992 185.005C179.273 185.258 179.43 185.601 179.43 185.96V192.038C179.43 192.396 179.273 192.739 178.992 192.993C178.712 193.246 178.331 193.388 177.934 193.388Z" fill="#E6E6E6"/>
<path d="M188.032 193.388C187.635 193.388 187.255 193.246 186.974 192.993C186.694 192.739 186.536 192.396 186.536 192.038V185.96C186.536 185.601 186.694 185.258 186.974 185.005C187.255 184.751 187.635 184.609 188.032 184.609C188.429 184.609 188.81 184.751 189.09 185.005C189.371 185.258 189.528 185.601 189.528 185.96V192.038C189.528 192.396 189.371 192.739 189.09 192.993C188.81 193.246 188.429 193.388 188.032 193.388Z" fill="#E6E6E6"/>
<path d="M263.513 193.388C263.116 193.388 262.736 193.246 262.455 192.993C262.175 192.739 262.017 192.396 262.017 192.038V185.96C262.017 185.601 262.175 185.258 262.455 185.005C262.736 184.751 263.116 184.609 263.513 184.609C263.91 184.609 264.29 184.751 264.571 185.005C264.851 185.258 265.009 185.601 265.009 185.96V192.038C265.009 192.396 264.851 192.739 264.571 192.993C264.29 193.246 263.91 193.388 263.513 193.388Z" fill="#E6E6E6"/>
<path d="M273.611 193.388C273.214 193.388 272.834 193.246 272.553 192.993C272.273 192.739 272.115 192.396 272.115 192.038V185.96C272.115 185.601 272.273 185.258 272.553 185.005C272.834 184.751 273.214 184.609 273.611 184.609C274.008 184.609 274.388 184.751 274.669 185.005C274.949 185.258 275.107 185.601 275.107 185.96V192.038C275.107 192.396 274.949 192.739 274.669 192.993C274.388 193.246 274.008 193.388 273.611 193.388Z" fill="#E6E6E6"/>
<path d="M327.908 139.578H308.086V143.069H327.908V139.578Z" fill="#E0E0E0"/>
<path d="M314.07 139.578H136.046V143.069H314.07V139.578Z" fill="#EBEBEB"/>
<path d="M317.511 139.976H258.501C258.12 139.976 257.755 139.84 257.486 139.596C257.216 139.353 257.065 139.024 257.065 138.68C257.065 138.336 257.216 138.006 257.486 137.763C257.755 137.52 258.12 137.383 258.501 137.383H317.511C317.892 137.383 318.257 137.52 318.527 137.763C318.796 138.006 318.947 138.336 318.947 138.68C318.947 139.024 318.796 139.353 318.527 139.596C318.257 139.84 317.892 139.976 317.511 139.976Z" fill="#E6E6E6"/>
<path d="M302.521 135.202H300.285V137.768H302.521V135.202Z" fill="#E0E0E0"/>
<path d="M303.486 135.843H299.32L300.135 131.352H302.671L303.486 135.843Z" fill="#F0F0F0"/>
<path d="M291.211 135.202H288.975V137.768H291.211V135.202Z" fill="#E0E0E0"/>
<path d="M292.169 135.843H288.01L288.818 131.352H291.361L292.169 135.843Z" fill="#F0F0F0"/>
<path d="M128.02 48.4551H71.7257V93.9726H128.02V48.4551Z" fill="#F5F5F5"/>
<path d="M128.028 49.9139H71.7257C71.5139 49.9139 71.3042 49.8761 71.1086 49.8027C70.913 49.7293 70.7353 49.6217 70.5859 49.4862C70.4365 49.3507 70.3182 49.1898 70.2378 49.0129C70.1574 48.8359 70.1165 48.6464 70.1175 48.4551C70.1175 48.0694 70.2867 47.6994 70.5881 47.426C70.8895 47.1527 71.2985 46.9982 71.7257 46.9964H128.028C128.455 46.9982 128.864 47.1527 129.165 47.426C129.467 47.6994 129.636 48.0694 129.636 48.4551C129.637 48.6464 129.596 48.8359 129.516 49.0129C129.435 49.1898 129.317 49.3507 129.168 49.4862C129.018 49.6217 128.84 49.7293 128.645 49.8027C128.449 49.8761 128.24 49.9139 128.028 49.9139Z" fill="#EBEBEB"/>
<path d="M128.028 95.4313H71.7257C71.2985 95.4295 70.8895 95.2751 70.5881 95.0017C70.2867 94.7283 70.1175 94.3583 70.1175 93.9726C70.1195 93.5881 70.2896 93.2198 70.5907 92.9479C70.8919 92.676 71.2998 92.5224 71.7257 92.5206H128.028C128.455 92.5224 128.864 92.6769 129.165 92.9503C129.467 93.2236 129.636 93.5937 129.636 93.9794C129.634 94.3639 129.464 94.7322 129.163 95.0041C128.861 95.276 128.454 95.4295 128.028 95.4313Z" fill="#EBEBEB"/>
<path d="M111.295 173.297H79.6919V177.687H111.295V173.297Z" fill="#E0E0E0"/>
<path d="M80.2679 175.83H109.776C110.425 175.83 111.047 176.062 111.506 176.477C111.965 176.891 112.222 177.452 112.222 178.038V221.077H77.792V178.038C77.792 177.746 77.8562 177.456 77.981 177.187C78.1058 176.917 78.2887 176.672 78.519 176.467C78.7493 176.261 79.0225 176.099 79.3227 175.99C79.6229 175.881 79.9442 175.826 80.2679 175.83Z" fill="#F0F0F0"/>
<path d="M109.53 167.895H80.5222C79.0309 167.895 77.8219 168.986 77.8219 170.332V172.21C77.8219 173.556 79.0309 174.648 80.5222 174.648H109.53C111.021 174.648 112.23 173.556 112.23 172.21V170.332C112.23 168.986 111.021 167.895 109.53 167.895Z" fill="#F0F0F0"/>
<path d="M87.9199 221.077H71.8379V219.051L87.9199 217.7V221.077Z" fill="#E0E0E0"/>
<path d="M183.395 249.002C263.492 249.002 328.424 245.579 328.424 241.357C328.424 237.135 263.492 233.712 183.395 233.712C103.297 233.712 38.3649 237.135 38.3649 241.357C38.3649 245.579 103.297 249.002 183.395 249.002Z" fill="#F5F5F5"/>
<path d="M190.62 180.834C190.62 180.834 190.62 195.901 204.997 203.12C219.373 210.339 266.258 179.591 265.428 180.834C264.598 182.077 190.62 180.834 190.62 180.834Z" fill="#263238"/>
<path opacity="0.2" d="M190.62 180.834C190.62 180.834 190.62 195.901 204.997 203.12C219.373 210.339 266.258 179.591 265.428 180.834C264.598 182.077 190.62 180.834 190.62 180.834Z" fill="white"/>
<path d="M205.446 115.847C193.769 116.191 181.188 116.522 169.542 116.873C167.051 114.043 165.784 110.493 165.977 106.883C166.169 103.272 167.808 99.8483 170.589 97.2479C171.798 96.1267 173.243 95.2338 174.838 94.6209C180.709 92.2977 188.503 93.3647 193.949 96.5861C199.746 100.024 203.344 106.041 204.825 112.261C205.108 113.444 205.315 114.641 205.446 115.847Z" fill="#800000"/>
<path opacity="0.5" d="M205.446 115.847C193.769 116.191 181.188 116.522 169.542 116.873C167.051 114.043 165.784 110.493 165.977 106.883C166.169 103.272 167.808 99.8483 170.589 97.2479C171.798 96.1267 173.243 95.2338 174.838 94.6209C180.709 92.2977 188.503 93.3647 193.949 96.5861C199.746 100.024 203.344 106.041 204.825 112.261C205.108 113.444 205.315 114.641 205.446 115.847Z" fill="white"/>
<path opacity="0.5" d="M204.825 112.254L174.845 113.112C172.529 110.482 171.268 107.222 171.268 103.863C171.268 100.503 172.529 97.2432 174.845 94.6141C180.717 92.291 188.511 93.358 193.956 96.5794C199.716 100.017 203.344 106.027 204.825 112.254Z" fill="white"/>
<path d="M278.353 177.093C278.351 179.042 277.492 180.911 275.965 182.289C274.437 183.666 272.367 184.44 270.208 184.44H198.751L161.68 122.235C161.019 121.139 160.672 119.911 160.67 118.663C160.677 118.018 160.77 117.376 160.947 116.752C161.344 115.379 162.161 114.135 163.306 113.162C164.45 112.19 165.875 111.529 167.417 111.254C167.954 111.153 168.5 111.103 169.048 111.106H205.7C208.473 111.108 211.187 111.831 213.516 113.189C215.845 114.548 217.692 116.483 218.835 118.764L230.055 141.205L245.292 168.718C245.292 168.718 262.593 169.245 270.626 168.718C278.66 168.192 278.353 177.093 278.353 177.093Z" fill="#800000"/>
<path opacity="0.5" d="M278.353 177.093C278.351 179.042 277.492 180.911 275.965 182.289C274.437 183.666 272.367 184.44 270.208 184.44H198.751L161.68 122.235C161.019 121.139 160.672 119.911 160.67 118.663C160.677 118.018 160.77 117.376 160.947 116.752C161.344 115.379 162.161 114.135 163.306 113.162C164.45 112.19 165.875 111.529 167.417 111.254C167.954 111.153 168.5 111.103 169.048 111.106H205.7C208.473 111.108 211.187 111.831 213.516 113.189C215.845 114.548 217.692 116.483 218.835 118.764L230.055 141.205L245.292 168.718C245.292 168.718 262.593 169.245 270.626 168.718C278.66 168.192 278.353 177.093 278.353 177.093Z" fill="white"/>
<path opacity="0.5" d="M237.924 177.093C237.924 179.041 237.066 180.91 235.54 182.288C234.014 183.666 231.944 184.44 229.786 184.44H198.751L161.68 122.235C161.019 121.139 160.672 119.911 160.67 118.663C160.677 118.018 160.77 117.376 160.947 116.752C161.344 115.379 162.161 114.134 163.306 113.162C164.45 112.19 165.875 111.528 167.417 111.254C169.795 111.58 172.045 112.437 173.962 113.749C175.879 115.061 177.401 116.785 178.391 118.764L189.611 141.205L204.847 168.718C204.847 168.718 222.141 169.245 230.175 168.718C238.208 168.192 237.924 177.093 237.924 177.093Z" fill="white"/>
<path d="M288.077 185.041H198.452C197.265 185.041 196.089 184.83 194.992 184.42C193.896 184.009 192.899 183.408 192.06 182.649C191.221 181.891 190.555 180.991 190.102 180C189.648 179.01 189.415 177.948 189.416 176.876C189.416 174.713 190.368 172.638 192.063 171.108C193.757 169.578 196.055 168.718 198.452 168.718H288.077C289.264 168.718 290.44 168.928 291.537 169.337C292.635 169.747 293.632 170.348 294.471 171.105C295.311 171.863 295.977 172.763 296.432 173.753C296.887 174.743 297.121 175.805 297.121 176.876C297.121 179.042 296.168 181.119 294.472 182.65C292.776 184.181 290.476 185.041 288.077 185.041Z" fill="#800000"/>
<path opacity="0.5" d="M297.113 176.876C297.113 179.041 296.161 181.116 294.467 182.647C292.773 184.178 290.474 185.039 288.077 185.041H198.452C196.055 185.041 193.757 184.182 192.063 182.652C190.368 181.122 189.416 179.047 189.416 176.883C189.416 174.72 190.368 172.645 192.063 171.115C193.757 169.585 196.055 168.725 198.452 168.725H288.077C290.472 168.725 292.77 169.584 294.464 171.112C296.158 172.641 297.111 174.714 297.113 176.876Z" fill="white"/>
<path d="M334.551 204.801L304.975 171.919C304.059 170.902 302.88 170.103 301.542 169.594C300.203 169.085 298.746 168.882 297.3 169.002H259.721C257.447 168.826 255.187 169.453 253.415 170.751C251.596 172.084 250.438 174.014 250.195 176.118C249.953 178.221 250.645 180.326 252.121 181.968L281.704 214.857C282.53 215.776 283.572 216.517 284.754 217.026C285.937 217.536 287.231 217.801 288.541 217.802H327.624C329.301 217.817 330.947 217.401 332.372 216.602C333.796 215.804 334.94 214.656 335.669 213.293C336.397 211.929 336.681 210.407 336.487 208.903C336.293 207.4 335.629 205.977 334.573 204.801H334.551Z" fill="#800000"/>
<path opacity="0.2" d="M294.121 216.019C293.221 216.679 292.186 217.172 291.075 217.471C289.965 217.77 288.799 217.868 287.646 217.76C286.493 217.652 285.375 217.34 284.355 216.842C283.336 216.344 282.435 215.67 281.704 214.857L252.121 181.968C250.645 180.326 249.953 178.221 250.195 176.118C250.438 174.014 251.596 172.084 253.415 170.751C254.315 170.091 255.35 169.597 256.461 169.298C257.573 169 258.738 168.902 259.892 169.01C261.045 169.119 262.163 169.432 263.183 169.931C264.202 170.43 265.102 171.106 265.832 171.92L295.415 204.801C296.147 205.614 296.694 206.55 297.025 207.554C297.356 208.557 297.464 209.61 297.344 210.652C297.224 211.694 296.877 212.704 296.324 213.625C295.771 214.546 295.023 215.359 294.121 216.019Z" fill="white"/>
<path opacity="0.5" d="M334.551 204.801L304.975 171.919C304.059 170.902 302.88 170.103 301.542 169.594C300.203 169.085 298.746 168.882 297.3 169.002H259.721C257.447 168.826 255.187 169.453 253.415 170.751C251.596 172.084 250.438 174.014 250.195 176.118C249.953 178.221 250.645 180.326 252.121 181.968L281.704 214.857C282.53 215.776 283.572 216.517 284.754 217.026C285.937 217.536 287.231 217.801 288.541 217.802H327.624C329.301 217.817 330.947 217.401 332.372 216.602C333.796 215.804 334.94 214.656 335.669 213.293C336.397 211.929 336.681 210.407 336.487 208.903C336.293 207.4 335.629 205.977 334.573 204.801H334.551Z" fill="white"/>
<path d="M168.846 236.461H162.57V242.127H168.846V236.461Z" fill="#263238"/>
<path d="M232.262 236.461H225.986V242.127H232.262V236.461Z" fill="#263238"/>
<path d="M225.38 236.461H219.104V242.127H225.38V236.461Z" fill="#263238"/>
<path d="M288.795 236.461H282.52V242.127H288.795V236.461Z" fill="#263238"/>
<path d="M265.727 236.461H170.544L189.603 201.769H265.727V236.461Z" fill="#263238"/>
<path opacity="0.2" d="M265.727 236.461H170.544L189.603 201.769H265.727V236.461Z" fill="white"/>
<path opacity="0.2" d="M226.031 236.461H170.544L189.603 201.769H226.031V236.461Z" fill="white"/>
<path d="M293.56 232.605H160.079L156.586 239.757H297.053L293.56 232.605Z" fill="#263238"/>
<path opacity="0.2" d="M235.388 232.605H160.079L156.586 239.757H234.221L235.388 232.605Z" fill="white"/>
<path d="M254.926 143.954H203.09C200.698 143.954 198.759 145.705 198.759 147.864V149.336C198.759 151.496 200.698 153.247 203.09 153.247H254.926C257.318 153.247 259.257 151.496 259.257 149.336V147.864C259.257 145.705 257.318 143.954 254.926 143.954Z" fill="#800000"/>
<path opacity="0.5" d="M254.926 143.954H203.09C200.698 143.954 198.759 145.705 198.759 147.864V149.336C198.759 151.496 200.698 153.247 203.09 153.247H254.926C257.318 153.247 259.257 151.496 259.257 149.336V147.864C259.257 145.705 257.318 143.954 254.926 143.954Z" fill="white"/>
<path opacity="0.5" d="M259.249 148.573C259.249 147.341 258.707 146.159 257.742 145.288C256.777 144.416 255.468 143.927 254.103 143.927H203.905C202.54 143.927 201.231 144.416 200.266 145.288C199.301 146.159 198.759 147.341 198.759 148.573H259.249Z" fill="white"/>
<path d="M229.793 144.825C224.94 147.547 219.637 149.553 214.085 150.768L202.117 153.382C201.1 151.288 197.674 147.006 191.017 135.384C190.209 134.19 189.49 132.949 188.863 131.67C187.464 128.929 186.386 126.063 185.646 123.12C185.211 121.412 184.908 119.679 184.741 117.933C184.743 117.918 184.743 117.902 184.741 117.886C184.539 117.516 184.421 117.113 184.394 116.701C184.366 116.289 184.431 115.876 184.582 115.486C184.734 115.097 184.971 114.739 185.278 114.433C185.585 114.127 185.957 113.88 186.372 113.706H186.432C188.077 112.963 190.172 112.078 192.251 111.335C196.234 109.899 200.299 108.654 204.428 107.608C205.821 107.305 207.232 107.079 208.655 106.932C209.632 106.793 210.632 106.876 211.565 107.174C212.498 107.473 213.333 107.977 213.995 108.641C216.92 111.43 223.345 122.424 229.793 144.825Z" fill="#263238"/>
<g opacity="0.7">
<path d="M224.901 129.914C221.977 130.461 218.797 130.927 216.381 131.264C215.985 130.029 215.379 128.806 214.885 127.611L222.904 124.937C223.557 126.467 224.223 128.126 224.901 129.914Z" fill="white"/>
</g>
<path d="M201.212 111.882C195.295 114.03 191.869 111.437 191.869 111.437C193.62 108.236 190.179 102.104 187.942 98.8417L192.116 100.28L197.801 102.239C197.873 102.816 197.983 103.389 198.13 103.954C198.23 104.361 198.37 104.758 198.549 105.143V105.203C199.297 106.804 200.793 107.905 203.86 107.635C203.875 107.648 206.231 110.032 201.212 111.882Z" fill="#B25B52"/>
<path d="M196.156 93.8037C196.156 93.8037 198.676 94.9586 199.26 92.1762C196.746 90.6905 197.45 90.0286 196.462 88.4281C195.964 87.4676 195.187 86.6466 194.214 86.0522C193.241 85.4577 192.107 85.112 190.934 85.0514L189.169 86.0644C183.477 90.6567 196.156 93.8037 196.156 93.8037Z" fill="#263238"/>
<path d="M182.452 94.4318C181.864 92.7401 182.044 90.9068 182.953 89.3351C183.862 87.7634 185.426 86.5821 187.299 86.0509C192.954 84.3153 199.2 89.3668 201.706 93.4188C202.375 94.4585 202.718 95.6436 202.697 96.8463C202.675 98.0489 202.29 99.2234 201.583 100.243C200.877 101.263 199.875 102.089 198.686 102.632C197.498 103.175 196.168 103.415 194.839 103.326C190.733 103.09 188.556 100.861 184.494 97.3492C183.545 96.5528 182.841 95.5475 182.452 94.4318Z" fill="#B25B52"/>
<path d="M199.716 94.9653C197.925 95.5603 196.207 96.3231 194.592 97.2412C195.13 97.7647 195.86 98.0943 196.647 98.1688C197.434 98.2434 198.224 98.0577 198.871 97.6464C199.359 97.4192 199.73 97.0289 199.905 96.5584C200.08 96.0879 200.044 95.5745 199.806 95.1274L199.716 94.9653Z" fill="#263238"/>
<path d="M197.509 97.2007C198.205 96.7871 199.038 96.6056 199.866 96.6874C199.666 97.0893 199.324 97.4196 198.893 97.6261C198.203 98.0435 197.37 98.2254 196.544 98.1394C196.739 97.7365 197.079 97.4054 197.509 97.2007Z" fill="#FF5652"/>
<path d="M199.559 95.0261C199.604 95.1739 199.606 95.33 199.562 95.4784C199.519 95.6267 199.432 95.762 199.312 95.8703C198.23 96.4288 197.093 96.8968 195.916 97.2682C195.73 97.3404 195.527 97.3673 195.326 97.3459C195.125 97.3246 194.934 97.2559 194.772 97.1466C196.297 96.3164 197.898 95.6069 199.559 95.0261Z" fill="white"/>
<path d="M189.88 101.975L184.382 99.2739C185.024 97.1144 186.047 95.0623 187.411 93.1959L187.696 93.3242L189.88 101.975Z" fill="#B25B52"/>
<path opacity="0.2" d="M189.88 101.975L184.382 99.2739C185.024 97.1144 186.047 95.0623 187.411 93.1959L187.696 93.3242L189.88 101.975Z" fill="black"/>
<path d="M187.411 93.2365C186.047 95.1028 185.024 97.155 184.382 99.3145L180.949 97.6261L183.634 91.4941L187.411 93.2365Z" fill="#263238"/>
<path d="M197.726 94.317C198.063 94.1653 198.359 93.9488 198.593 93.6828C198.826 93.4167 198.993 93.1076 199.08 92.7772C197.588 92.5188 196.142 92.0804 194.779 91.4738L197.726 94.317Z" fill="#9D2724"/>
<path d="M185.22 98.3487C186.297 97.5248 188.474 98.1529 189.64 98.8485C190.949 99.6251 191.249 100.874 189.812 101.307C188.64 101.612 187.386 101.538 186.267 101.097C184.861 100.55 184.15 99.1726 185.22 98.3487Z" fill="#B25B52"/>
<path d="M191.997 92.9326C192.221 92.7637 192.692 92.8921 192.969 93.1689C193.246 93.4458 193.313 93.8443 193.089 94.0131C192.864 94.1819 192.46 94.0604 192.124 93.7835C191.787 93.5066 191.765 93.1082 191.997 92.9326Z" fill="#263238"/>
<path d="M195.699 89.7315C195.931 89.5559 196.357 89.6572 196.672 89.9611C196.986 90.265 197.053 90.6364 196.821 90.8255C196.589 91.0146 196.163 90.8931 195.849 90.5892C195.535 90.2853 195.475 89.9003 195.699 89.7315Z" fill="#263238"/>
<path d="M193.852 88.9076C193.895 88.9141 193.939 88.9114 193.98 88.8997C194.022 88.8879 194.06 88.8675 194.091 88.84C194.315 88.6044 194.594 88.4172 194.909 88.2921C195.223 88.1671 195.565 88.1074 195.909 88.1174C195.942 88.1222 195.976 88.1209 196.009 88.1136C196.042 88.1063 196.073 88.0931 196.1 88.0749C196.127 88.0566 196.15 88.0337 196.167 88.0074C196.185 87.981 196.196 87.9519 196.2 87.9216C196.207 87.8584 196.187 87.7953 196.144 87.7451C196.101 87.6949 196.038 87.6615 195.969 87.6514C195.545 87.6323 195.122 87.7015 194.733 87.8538C194.344 88.006 193.999 88.2372 193.725 88.5294C193.676 88.5758 193.648 88.6375 193.648 88.7016C193.648 88.7657 193.676 88.8274 193.725 88.8738C193.764 88.8926 193.807 88.904 193.852 88.9076Z" fill="#263238"/>
<path d="M190.321 93.1487C190.36 93.1311 190.394 93.1054 190.42 93.0737C190.446 93.042 190.464 93.0052 190.471 92.9663C190.482 92.6558 190.572 92.3518 190.734 92.0778C190.896 91.8038 191.126 91.5671 191.406 91.3861C191.436 91.372 191.463 91.3524 191.485 91.3284C191.507 91.3044 191.523 91.2766 191.532 91.2467C191.541 91.2168 191.543 91.1856 191.538 91.1549C191.533 91.1243 191.521 91.0949 191.503 91.0686C191.466 91.0145 191.407 90.9756 191.338 90.9605C191.27 90.9453 191.197 90.955 191.136 90.9876C190.784 91.2081 190.493 91.4989 190.286 91.8373C190.078 92.1758 189.96 92.5529 189.94 92.9393C189.938 92.9712 189.943 93.0032 189.954 93.0334C189.966 93.0636 189.984 93.0914 190.008 93.1153C190.031 93.1391 190.06 93.1585 190.092 93.1724C190.124 93.1862 190.159 93.1942 190.194 93.1959C190.24 93.1901 190.284 93.1738 190.321 93.1487Z" fill="#263238"/>
<path d="M320.092 184.724L318.798 188.742L313.15 185.912L311.557 185.115L310.457 184.562L313.823 180.462L314.504 180.928L316.008 181.948L320.092 184.724Z" fill="#B25B52"/>
<path d="M330.13 182.252C328.566 184.028 327.056 185.581 325.919 186.858C324.064 188.938 323.465 189.802 322.044 191.47C321.873 191.662 321.627 191.787 321.356 191.819C321.085 191.85 320.812 191.786 320.593 191.639L316.853 188.56C316.777 188.49 316.735 188.397 316.735 188.3C316.735 188.202 316.777 188.109 316.853 188.04L319.845 184.17C320.398 183.754 321.025 183.425 321.7 183.198C323.734 182.725 325.29 182.678 329.023 179.855C329.224 179.728 329.471 179.674 329.714 179.703C329.958 179.731 330.18 179.841 330.339 180.01C330.81 180.442 331.012 181.266 330.13 182.252Z" fill="#263238"/>
<path opacity="0.2" d="M315.738 181.759L312.806 185.757L311.557 185.116L314.504 180.928L315.738 181.759Z" fill="black"/>
<path d="M314.975 180.253L311.003 185.912C311.003 185.912 288.728 178.2 269.235 161.789L269.295 161.499C258.225 164.011 225.806 164.45 220.6 159.473C217.863 156.731 215.94 153.821 215.461 150.235L220.6 148.695C223.308 147.702 227.99 146.203 229.524 144.541C229.524 144.541 259.01 146.169 271.143 151.335C283.859 155.563 314.975 180.253 314.975 180.253Z" fill="#800000"/>
<g opacity="0.1">
<path d="M314.975 180.253L311.003 185.912C311.003 185.912 288.728 178.2 269.235 161.789L269.295 161.499C258.225 164.011 225.806 164.45 220.6 159.473C217.863 156.731 215.94 153.821 215.461 150.235L220.6 148.695C223.308 147.702 227.99 146.203 229.524 144.541C229.524 144.541 259.01 146.169 271.143 151.335C283.859 155.563 314.975 180.253 314.975 180.253Z" fill="black"/>
</g>
<path d="M314.078 190.971L311.549 194.523L305.82 191.943L303.83 191.038L306.837 186.547V186.54L314.078 190.971Z" fill="#B25B52"/>
<path opacity="0.2" d="M308.797 187.736L305.872 191.835L305.82 191.943L303.83 191.038L306.837 186.547L308.797 187.736Z" fill="black"/>
<path d="M307.869 185.973L307.63 186.358L303.763 191.977L265.211 170.184C253.789 173.426 214.826 173.75 209.044 168.833C208.614 168.457 208.207 168.06 207.824 167.645C207.405 167.219 207.024 166.773 206.665 166.328C206.664 166.314 206.664 166.301 206.665 166.287C205.148 164.022 204.025 161.56 203.336 158.987C202.772 157.069 202.345 155.12 202.057 153.152C213.015 151.194 226.203 148.04 229.546 144.521L236.129 153.571C247.214 154.543 264.037 156.947 268.412 158.534C281.996 162.283 307.869 185.973 307.869 185.973Z" fill="#800000"/>
<path d="M207.824 167.651C207.413 167.224 207.033 166.773 206.687 166.301C207.024 166.807 207.405 167.226 207.824 167.651Z" fill="#800000"/>
<path d="M323.884 187.216C323.6 187.58 323.308 187.932 323.039 188.283L323.001 188.33L322.149 189.363L321.767 189.823C321.573 190.066 321.363 190.329 321.139 190.592L320.69 191.133L319.793 192.254C317.997 194.543 317.429 195.482 316.053 197.305C315.888 197.514 315.64 197.657 315.362 197.705C315.083 197.753 314.794 197.702 314.557 197.562L311.093 195.016L310.45 194.543C310.406 194.511 310.37 194.47 310.344 194.425C310.318 194.38 310.302 194.33 310.297 194.28C310.292 194.229 310.298 194.177 310.316 194.129C310.333 194.08 310.361 194.035 310.398 193.996L313.255 189.775C313.81 189.313 314.444 188.934 315.132 188.654C317.234 188.046 318.872 187.911 322.575 184.751C323.353 184.048 325.38 185.278 323.884 187.216Z" fill="#263238"/>
<path d="M206.643 166.28C204.929 164.112 203.767 161.628 203.239 159.007H203.314C204.003 161.572 205.125 164.025 206.643 166.28Z" fill="#800000"/>
<path d="M209.141 143.954H157.304C154.913 143.954 152.973 145.705 152.973 147.864V149.336C152.973 151.496 154.913 153.247 157.304 153.247H209.141C211.533 153.247 213.472 151.496 213.472 149.336V147.864C213.472 145.705 211.533 143.954 209.141 143.954Z" fill="#800000"/>
<path opacity="0.5" d="M209.141 143.954H157.304C154.913 143.954 152.973 145.705 152.973 147.864V149.336C152.973 151.496 154.913 153.247 157.304 153.247H209.141C211.533 153.247 213.472 151.496 213.472 149.336V147.864C213.472 145.705 211.533 143.954 209.141 143.954Z" fill="white"/>
<path opacity="0.5" d="M213.472 148.573C213.472 147.341 212.93 146.159 211.964 145.288C210.999 144.416 209.69 143.927 208.325 143.927H158.127C157.451 143.926 156.781 144.046 156.156 144.279C155.53 144.512 154.962 144.854 154.483 145.285C154.005 145.717 153.625 146.229 153.366 146.794C153.107 147.358 152.973 147.962 152.973 148.573H213.472Z" fill="white"/>
<path d="M202.708 144.67C195.624 145.23 191.294 144.953 184.232 144.926C178.114 144.926 177.246 144.926 177.246 143.144C177.246 141.118 177.77 137.64 177.77 135.634C180.522 135.789 182.968 136.059 185.684 135.634L185.354 138.842C193.051 138.666 195.639 140.726 202.708 141.475V144.67Z" fill="#B25B52"/>
<path opacity="0.2" d="M189.992 133.716C188.048 130.381 186.599 126.83 185.684 123.154L187.18 122.357L189.992 133.716Z" fill="black"/>
<path d="M185.564 114.192C182.766 114.651 180.56 116.731 179.438 119.088C178.316 121.445 177.403 134.783 177.366 134.256H176.408L175.735 138.828C179.333 138.734 183.903 138.436 187.494 138.342C187.494 138.342 187.651 135.452 187.494 134.04L186.544 134.114L188.533 122.06C188.868 120.123 188.694 118.143 188.025 116.279C187.928 115.985 187.795 115.702 187.628 115.435C187.172 114.807 186.424 114.05 185.564 114.192Z" fill="#263238"/>
<path d="M217.518 141.239C217.518 141.899 217.302 142.545 216.895 143.093C216.489 143.642 215.911 144.07 215.236 144.322C214.56 144.574 213.817 144.64 213.1 144.511C212.383 144.381 211.724 144.063 211.208 143.596C210.691 143.128 210.34 142.533 210.198 141.886C210.057 141.238 210.131 140.567 210.412 139.958C210.692 139.348 211.167 138.828 211.776 138.462C212.384 138.096 213.1 137.902 213.831 137.903C214.809 137.905 215.747 138.257 216.439 138.883C217.13 139.508 217.518 140.356 217.518 141.239Z" fill="#800000"/>
<path d="M213.487 146.601C214.549 146.509 215.592 146.281 216.583 145.926C216.795 145.842 216.985 145.721 217.144 145.569C217.302 145.418 217.425 145.239 217.505 145.044C217.585 144.848 217.621 144.641 217.611 144.432C217.6 144.224 217.543 144.02 217.444 143.832C217.302 143.549 217.152 143.265 216.972 142.981C216 143.414 214.818 143.907 213.801 143.556C211.826 142.88 210.674 141.307 208.565 141.266L202.267 141.536C201.979 142.539 201.948 143.587 202.177 144.602C205.783 145.878 209.614 146.555 213.487 146.601Z" fill="#B25B52"/>
<path d="M214.369 130.934L209.994 133.453C209.994 133.453 205.333 135.479 203.823 134.459C203.176 133.732 202.645 132.927 202.244 132.068C202.105 131.821 202.054 131.542 202.097 131.268C202.139 130.993 202.274 130.738 202.484 130.535L205.476 128.178C206.128 127.675 206.958 127.397 207.817 127.395H213.419L214.369 130.934Z" fill="#B25B52"/>
<path d="M232.927 127.3C232.879 127.367 232.821 127.429 232.755 127.483C232.685 127.548 232.607 127.607 232.523 127.658C232.434 127.726 232.339 127.787 232.239 127.84C231.741 128.111 231.215 128.337 230.668 128.516C230.519 128.57 230.354 128.631 230.182 128.678C230.01 128.725 229.845 128.793 229.658 128.84C229.299 128.941 228.91 129.049 228.521 129.144L228.125 129.238L227.003 129.502H226.883C226.248 129.637 225.582 129.772 224.909 129.9C224.83 129.92 224.75 129.934 224.669 129.941C222.425 130.366 219.987 130.738 217.937 131.021C217.661 131.062 217.384 131.102 217.129 131.129L216.381 131.231C215.985 129.988 214.399 127.692 213.906 126.503L221.932 123.863L223.734 123.268C223.734 123.268 221.76 120.439 221.131 119.662C220.503 118.886 220.002 118.264 219.433 117.555C216.995 112.963 215.244 109.748 213.27 108.269C212.327 107.47 211.105 106.993 209.814 106.919C209.814 106.919 214.048 106.054 215.469 106.446C216.883 106.901 218.184 107.604 219.299 108.512C223.519 111.552 227.202 115.155 230.219 119.196C230.272 119.271 230.347 119.365 230.414 119.473C230.691 119.851 230.96 120.236 231.214 120.621C232.516 122.539 234.184 125.679 232.927 127.3Z" fill="#263238"/>
<path opacity="0.2" d="M222.433 121.411L220.241 118.656C219.493 117.15 218.827 115.813 218.177 114.638L219.037 115.381C220.878 116.995 222.073 119.117 222.433 121.411Z" fill="black"/>
<path d="M218.528 132.554C217.043 132.131 215.473 132.006 213.928 132.19C213.105 130.096 212.21 128.027 211.243 125.983C212.663 125.41 214.18 125.059 215.731 124.943C216.636 127.429 218.132 129.975 218.528 132.554Z" fill="#263238"/>
<path opacity="0.1" d="M218.528 132.554C217.043 132.131 215.473 132.006 213.928 132.19C213.105 130.096 212.21 128.027 211.243 125.983C212.663 125.41 214.18 125.059 215.731 124.943C216.636 127.429 218.132 129.975 218.528 132.554Z" fill="white"/>
<path d="M181.255 97.8152C179.819 96.917 179.168 95.2827 178.966 93.7159C178.765 92.1492 180.62 91.8453 180.41 90.2785C180.201 88.7117 179.513 87.0774 178.061 86.2265C179.311 86.5304 180.896 86.2873 182.026 86.8546C181.241 85.6625 179.993 84.7766 178.525 84.3693C180.561 84.2322 182.608 84.436 184.562 84.9704C184.427 83.6197 183.066 81.8301 182.175 80.7225L187.105 83.4239C187.592 82.4015 187.65 81.2542 187.269 80.1958C188.81 81.695 192.161 84.8691 192.161 84.8691L192.909 86.1117C189.917 86.3818 190.553 87.827 190.553 87.827C190.553 87.827 183.716 88.2727 181.255 97.8152Z" fill="#263238"/>
<path opacity="0.1" d="M176.408 134.27L187.509 134.054L187.494 138.355L175.735 138.842L176.408 134.27Z" fill="white"/>
<path d="M84.1575 233.084L89.5132 235.657L90.0218 227.986L84.5165 227.709L84.1575 233.084Z" fill="#F7978D"/>
<path d="M89.76 234.435L84.0827 232.132C83.9828 232.092 83.8709 232.084 83.765 232.108C83.6591 232.133 83.5655 232.189 83.4992 232.267L80.5072 235.934C80.3806 236.095 80.3292 236.294 80.3642 236.489C80.3992 236.684 80.5178 236.858 80.6942 236.974L80.8513 237.055C82.8485 237.825 83.8433 238.109 86.3716 239.122C87.8676 239.743 91.8245 241.506 93.9563 242.363C96.0881 243.221 97.2924 241.438 96.507 240.912C92.9764 238.555 91.2261 236.569 90.4781 235.05C90.335 234.769 90.0779 234.549 89.76 234.435Z" fill="#263238"/>
<path opacity="0.2" d="M90.0218 227.992L89.9246 230.491L84.4193 230.194L84.5165 227.709L90.0218 227.992Z" fill="black"/>
<path d="M98.9006 119.851C100.015 125.842 98.0478 154.969 95.9086 167.847C93.0961 184.92 90.9568 229.654 90.9568 229.654L83.604 229.14C83.604 229.14 81.36 182.232 83.1252 168.516C82.6091 150.822 81.0832 119.892 81.0832 119.892L98.9006 119.851Z" fill="#800000"/>
<path opacity="0.1" d="M98.9006 119.851C100.015 125.842 98.0478 154.969 95.9086 167.847C93.0961 184.92 90.9568 229.654 90.9568 229.654L83.604 229.14C83.604 229.14 81.36 182.232 83.1252 168.516C82.6091 150.822 81.0832 119.892 81.0832 119.892L98.9006 119.851Z" fill="black"/>
<path opacity="0.2" d="M81.9733 139.173C81.7938 134.688 85.3842 130.765 86.6408 139.24C87.4337 144.643 85.4066 154.03 82.856 160.648C82.6091 153.713 82.28 145.993 81.9733 139.173Z" fill="black"/>
<path d="M43.8627 221.273L48.0366 223.67L51.7915 218.214L47.6177 215.816L43.8627 221.273Z" fill="#F7978D"/>
<path d="M48.6798 223.582L44.0871 219.767C44.0106 219.701 43.9088 219.664 43.8029 219.664C43.697 219.664 43.5952 219.701 43.5186 219.767L39.7786 222.759C39.6902 222.838 39.62 222.932 39.5721 223.036C39.5242 223.139 39.4996 223.251 39.4996 223.363C39.4996 223.475 39.5242 223.587 39.5721 223.69C39.62 223.794 39.6902 223.888 39.7786 223.967C41.3943 225.278 42.247 225.825 44.2666 227.513C45.5083 228.539 46.9968 230.005 48.7098 231.437C50.4227 232.868 51.986 231.342 51.41 230.606C48.8145 227.29 49.353 226.142 49.0688 224.393C49.037 224.092 48.9008 223.809 48.6798 223.582Z" fill="#263238"/>
<path opacity="0.2" d="M51.7915 218.22L50.101 220.665L45.8748 218.146L47.6102 215.816L51.7915 218.22Z" fill="black"/>
<path d="M87.9274 126.733C87.9274 126.733 80.986 164.552 76.9617 178.848C74.052 189.14 51.7616 219.774 51.7616 219.774L46.0618 216.708C46.0618 216.708 53.7288 191.254 65.9063 177.795C66.6543 161.81 65.1583 135.458 72.1745 126.787L87.9274 126.733Z" fill="#800000"/>
<path opacity="0.1" d="M87.9274 126.733C87.9274 126.733 80.986 164.552 76.9617 178.848C74.052 189.14 51.7616 219.774 51.7616 219.774L46.0618 216.708C46.0618 216.708 53.7288 191.254 65.9063 177.795C66.6543 161.81 65.1583 135.458 72.1745 126.787L87.9274 126.733Z" fill="black"/>
<path d="M98.4518 94.9653C100.965 92.6692 103.321 90.3055 105.625 87.8541C107.929 85.4026 110.165 82.9106 112.26 80.2633L112.656 79.7703L113.083 79.1963C113.359 78.8114 113.614 78.4264 113.831 78.0415C114.294 77.2648 114.683 76.468 115.08 75.7183C115.8 74.1936 116.432 72.636 116.972 71.0518C118.013 67.9565 118.8 64.7965 119.328 61.5971C119.428 61.2461 119.368 60.8738 119.164 60.5623C118.959 60.2507 118.625 60.0254 118.236 59.9358C117.848 59.8462 117.435 59.8998 117.09 60.0847C116.745 60.2696 116.495 60.5707 116.396 60.9218C115.229 63.8325 113.98 66.7769 112.656 69.5796C111.983 70.991 111.25 72.3619 110.472 73.6653C110.083 74.3407 109.672 74.935 109.245 75.5225C109.036 75.8196 108.812 76.0965 108.595 76.3667L108.258 76.7516L107.869 77.1906C105.7 79.5677 103.381 81.9179 101.137 84.2275C98.8931 86.5372 96.4471 88.8468 94.1059 91.1024C93.8152 91.3627 93.5851 91.6728 93.4293 92.0146C93.2735 92.3564 93.195 92.723 93.1986 93.0926C93.2021 93.4622 93.2876 93.8274 93.45 94.1667C93.6124 94.506 93.8483 94.8125 94.144 95.0682C94.4397 95.3239 94.789 95.5235 95.1715 95.6553C95.554 95.7871 95.9618 95.8485 96.3709 95.8358C96.7801 95.823 97.1823 95.7365 97.5538 95.5812C97.9253 95.4259 98.2586 95.205 98.534 94.9316L98.4518 94.9653Z" fill="#F7978D"/>
<path d="M116.441 61.9145L116.007 57.4641L121.288 59.4293C121.288 59.4293 120.697 62.0698 118.498 63.1098L116.441 61.9145Z" fill="#F7978D"/>
<path d="M96.0806 87.1179C95.4298 86.3143 105.259 79.4326 105.259 79.4326L106.964 89.333C106.964 89.333 105.004 92.9866 102.154 94.9788C99.3045 96.971 94.8987 90.292 96.0806 87.1179Z" fill="#800000"/>
<path d="M119.927 54.7425L121.849 56.0931C122.064 56.2413 122.219 56.4495 122.289 56.6852C122.359 56.9209 122.341 57.171 122.238 57.3965L121.288 59.4225L116.007 57.4573L118.214 54.9316C118.414 54.7027 118.707 54.5545 119.027 54.5191C119.348 54.4837 119.671 54.564 119.927 54.7425Z" fill="#F7978D"/>
<path d="M102.304 90.3596C102.394 100.348 100.247 108.134 99.312 115.002C99.1923 115.874 99.0053 118.757 99.9478 124.768C100.589 129.7 100.954 134.659 101.04 139.625L66.2803 137.646C67.4247 124.187 74.7476 116.036 74.7402 114.185C74.7402 108.607 74.067 102.9 71.3742 91.9736C71.0779 90.7637 71.3259 89.4972 72.0637 88.4524C72.8016 87.4076 73.9687 86.6701 75.3086 86.4021C75.4636 86.3675 75.6211 86.3427 75.7799 86.3278C77.2759 86.1522 78.8542 85.9969 80.4923 85.9226C84.1667 85.6728 87.8562 85.6592 91.5328 85.8821C94.1208 86.0847 96.8959 86.4764 98.8781 86.7735C99.8234 86.9155 100.684 87.3519 101.309 88.0071C101.935 88.6622 102.287 89.4946 102.304 90.3596Z" fill="#800000"/>
<path d="M96.492 99.1389H96.0432L95.4523 97.5316C95.4261 97.4602 95.4192 97.3843 95.432 97.3101C95.4448 97.2358 95.4771 97.1654 95.5261 97.1047C95.5751 97.0439 95.6394 96.9946 95.7137 96.9608C95.788 96.927 95.8702 96.9097 95.9534 96.9103H96.5818C96.665 96.9097 96.7472 96.927 96.8215 96.9608C96.8958 96.9946 96.9601 97.0439 97.0091 97.1047C97.0581 97.1654 97.0904 97.2358 97.1032 97.3101C97.116 97.3843 97.1091 97.4602 97.0829 97.5316L96.492 99.1389Z" fill="#263238"/>
<path d="M96.2826 97.4911C96.9642 97.4911 97.5168 96.9922 97.5168 96.3768C97.5168 95.7614 96.9642 95.2625 96.2826 95.2625C95.6009 95.2625 95.0484 95.7614 95.0484 96.3768C95.0484 96.9922 95.6009 97.4911 96.2826 97.4911Z" fill="#800000"/>
<path opacity="0.5" d="M96.2826 97.0656C96.7039 97.0656 97.0455 96.7572 97.0455 96.3768C97.0455 95.9963 96.7039 95.6879 96.2826 95.6879C95.8612 95.6879 95.5196 95.9963 95.5196 96.3768C95.5196 96.7572 95.8612 97.0656 96.2826 97.0656Z" fill="white"/>
<path d="M99.6785 98.4095H92.8941C92.3777 98.4095 91.9591 98.7875 91.9591 99.2537V102.448C91.9591 102.914 92.3777 103.292 92.8941 103.292H99.6785C100.195 103.292 100.613 102.914 100.613 102.448V99.2537C100.613 98.7875 100.195 98.4095 99.6785 98.4095Z" fill="#800000"/>
<path opacity="0.8" d="M99.6785 98.4095H92.8941C92.3777 98.4095 91.9591 98.7875 91.9591 99.2537V102.448C91.9591 102.914 92.3777 103.292 92.8941 103.292H99.6785C100.195 103.292 100.613 102.914 100.613 102.448V99.2537C100.613 98.7875 100.195 98.4095 99.6785 98.4095Z" fill="white"/>
<path d="M99.5962 98.6796H92.9614C92.5731 98.6796 92.2583 98.9639 92.2583 99.3145V102.374C92.2583 102.724 92.5731 103.009 92.9614 103.009H99.5962C99.9845 103.009 100.299 102.724 100.299 102.374V99.3145C100.299 98.9639 99.9845 98.6796 99.5962 98.6796Z" fill="#800000"/>
<path opacity="0.5" d="M99.5962 98.6796H92.9614C92.5731 98.6796 92.2583 98.9639 92.2583 99.3145V102.374C92.2583 102.724 92.5731 103.009 92.9614 103.009H99.5962C99.9845 103.009 100.299 102.724 100.299 102.374V99.3145C100.299 98.9639 99.9845 98.6796 99.5962 98.6796Z" fill="white"/>
<path d="M95.0484 99.3212H93.1036V101.307H95.0484V99.3212Z" fill="#800000"/>
<path d="M95.8712 100.01C95.8255 100.01 95.7818 99.9937 95.7495 99.9645C95.7172 99.9354 95.6991 99.8959 95.6991 99.8547C95.6991 99.8135 95.7172 99.774 95.7495 99.7449C95.7818 99.7157 95.8255 99.6994 95.8712 99.6994H99.484C99.5296 99.6994 99.5734 99.7157 99.6056 99.7449C99.6379 99.774 99.656 99.8135 99.656 99.8547C99.656 99.8959 99.6379 99.9354 99.6056 99.9645C99.5734 99.9937 99.5296 100.01 99.484 100.01H95.8712Z" fill="white"/>
<path d="M95.8712 101.975C95.8255 101.975 95.7818 101.959 95.7495 101.93C95.7172 101.901 95.6991 101.861 95.6991 101.82C95.6991 101.779 95.7172 101.739 95.7495 101.71C95.7818 101.681 95.8255 101.665 95.8712 101.665H99.484C99.5296 101.665 99.5734 101.681 99.6056 101.71C99.6379 101.739 99.656 101.779 99.656 101.82C99.656 101.861 99.6379 101.901 99.6056 101.93C99.5734 101.959 99.5296 101.975 99.484 101.975H95.8712Z" fill="white"/>
<path d="M95.8712 101.003C95.8255 101.003 95.7818 100.986 95.7495 100.957C95.7172 100.928 95.6991 100.889 95.6991 100.847C95.6991 100.806 95.7172 100.767 95.7495 100.738C95.7818 100.708 95.8255 100.692 95.8712 100.692H99.484C99.5296 100.692 99.5734 100.708 99.6056 100.738C99.6379 100.767 99.656 100.806 99.656 100.847C99.656 100.889 99.6379 100.928 99.6056 100.957C99.5734 100.986 99.5296 101.003 99.484 101.003H95.8712Z" fill="white"/>
<path opacity="0.4" d="M91.4954 85.9091C91.4954 85.9091 95.4074 88.4686 91.1064 94.6884C87.7253 91.6164 84.1753 88.6998 80.4698 85.9496L91.4954 85.9091Z" fill="white"/>
<path d="M77.5452 121.121H76.8869C76.7598 121.121 76.655 121.06 76.6625 120.986L76.9617 118.433C76.9617 118.359 77.0889 118.298 77.216 118.298H77.8818C78.0089 118.298 78.1062 118.352 78.0987 118.433L77.807 120.979C77.792 121.06 77.6798 121.121 77.5452 121.121Z" fill="#800000"/>
<path d="M97.1727 121.06H96.507C96.3798 121.06 96.2751 120.999 96.2826 120.925L96.5818 118.372C96.5818 118.298 96.7089 118.237 96.8361 118.237H97.5018C97.629 118.237 97.7337 118.298 97.7187 118.372L97.427 120.925C97.412 120.993 97.2998 121.053 97.1727 121.06Z" fill="#800000"/>
<path d="M87.3589 121.087H86.7007C86.566 121.087 86.4688 121.026 86.4763 120.952L86.7755 118.399C86.7755 118.325 86.8952 118.264 87.0298 118.264H87.688C87.8152 118.264 87.9124 118.325 87.905 118.399L87.6132 120.952C87.5926 120.996 87.5567 121.033 87.5109 121.058C87.4651 121.082 87.4118 121.092 87.3589 121.087Z" fill="#800000"/>
<path d="M68.9207 92.7435C67.7763 95.2084 66.7515 97.6599 65.7866 100.172C65.3154 101.422 64.8441 102.671 64.4402 104.001C63.9846 105.355 63.6224 106.733 63.3556 108.128C63.2762 108.559 63.2262 108.994 63.206 109.431C63.1911 109.77 63.2137 110.109 63.2733 110.444C63.2733 110.572 63.3406 110.707 63.3855 110.836L63.4528 111.072C63.491 111.177 63.5385 111.278 63.595 111.376L63.6847 111.538V111.612V111.666L63.767 111.774C64.2233 112.355 64.6272 112.956 65.1358 113.503C66.1013 114.639 67.1723 115.699 68.3373 116.671C69.5295 117.645 70.8422 118.493 72.2493 119.196C72.9673 119.555 73.718 119.858 74.4933 120.101C74.8823 120.223 75.2862 120.338 75.6901 120.432L76.3259 120.547C76.5653 120.587 76.7373 120.608 77.0739 120.641L77.5078 117.94C77.4095 117.886 77.307 117.839 77.2011 117.798L76.7972 117.616C76.5279 117.488 76.2586 117.346 75.9968 117.197C75.4701 116.876 74.9632 116.529 74.4784 116.157C73.4922 115.402 72.5834 114.568 71.7631 113.665C71.3667 113.186 70.9478 112.747 70.5813 112.227C70.2148 111.707 69.8333 111.254 69.4967 110.761C69.1601 110.268 68.8384 109.715 68.4944 109.195V109.093V109.039V109.087V109.195C68.4944 109.262 68.5692 109.35 68.5841 109.39C68.5882 109.431 68.5882 109.472 68.5841 109.512L68.629 109.667C68.629 109.755 68.629 109.789 68.629 109.667C68.6534 109.45 68.6984 109.236 68.7636 109.026C69.0887 107.861 69.4782 106.711 69.9305 105.582C70.3868 104.4 70.8655 103.191 71.3667 101.996C72.369 99.5981 73.4087 97.1669 74.4335 94.783L68.9207 92.7435Z" fill="#F7978D"/>
<path d="M84.352 115.549L82.3099 114.948C82.1626 114.903 82.0068 114.885 81.8515 114.894C81.6963 114.903 81.5446 114.941 81.4054 115.004C81.2662 115.066 81.1423 115.154 81.0407 115.26C80.9392 115.366 80.8621 115.49 80.8139 115.624C80.7464 115.808 80.7372 116.005 80.7875 116.194C80.8377 116.382 80.9453 116.555 81.0982 116.691L75.2787 132.899C75.1701 133.206 75.2004 133.539 75.3629 133.827C75.5254 134.114 75.8071 134.331 76.1464 134.432L76.6476 134.58C76.9878 134.678 77.3572 134.651 77.6752 134.504C77.9932 134.358 78.2342 134.103 78.3455 133.797L84.165 117.589C84.3757 117.556 84.5726 117.472 84.7346 117.346C84.8967 117.22 85.0177 117.056 85.085 116.873C85.1801 116.61 85.1564 116.323 85.0192 116.076C84.882 115.828 84.6423 115.639 84.352 115.549Z" fill="#800000"/>
<path opacity="0.6" d="M84.352 115.549L82.3099 114.948C82.1626 114.903 82.0068 114.885 81.8515 114.894C81.6963 114.903 81.5446 114.941 81.4054 115.004C81.2662 115.066 81.1423 115.154 81.0407 115.26C80.9392 115.366 80.8621 115.49 80.8139 115.624C80.7464 115.808 80.7372 116.005 80.7875 116.194C80.8377 116.382 80.9453 116.555 81.0982 116.691L75.2787 132.899C75.1701 133.206 75.2004 133.539 75.3629 133.827C75.5254 134.114 75.8071 134.331 76.1464 134.432L76.6476 134.58C76.9878 134.678 77.3572 134.651 77.6752 134.504C77.9932 134.358 78.2342 134.103 78.3455 133.797L84.165 117.589C84.3757 117.556 84.5726 117.472 84.7346 117.346C84.8967 117.22 85.0177 117.056 85.085 116.873C85.1801 116.61 85.1564 116.323 85.0192 116.076C84.882 115.828 84.6423 115.639 84.352 115.549Z" fill="white"/>
<path d="M81.532 114.969C81.9949 115.335 82.5493 115.595 83.1477 115.725C83.7172 115.939 84.3365 116.023 84.9504 115.968C84.8069 115.77 84.5933 115.623 84.3445 115.549L82.3024 114.948C82.0503 114.877 81.7791 114.884 81.532 114.969Z" fill="#800000"/>
<path d="M79.9163 124.775C79.3852 124.619 79.0038 124.376 79.0486 124.221L75.8622 133.101C75.8319 133.186 75.8206 133.275 75.8287 133.364C75.8368 133.453 75.8642 133.539 75.9094 133.618C75.9545 133.697 76.0166 133.767 76.0919 133.825C76.1673 133.882 76.2544 133.925 76.3484 133.952L76.8495 134.094C77.038 134.15 77.2431 134.135 77.4198 134.054C77.5965 133.973 77.7304 133.832 77.792 133.662L80.9785 124.781C80.9112 124.937 80.4399 124.937 79.9163 124.775Z" fill="#800000"/>
<path d="M80.9785 124.781C80.9261 124.937 80.4474 124.93 79.9163 124.781C79.3852 124.633 78.9888 124.376 79.0486 124.221C79.1085 124.065 79.5797 124.065 80.1108 124.221C80.6419 124.376 81.0383 124.626 80.9785 124.781Z" fill="#800000"/>
<path opacity="0.3" d="M80.9785 124.781C80.9261 124.937 80.4474 124.93 79.9163 124.781C79.3852 124.633 78.9888 124.376 79.0486 124.221C79.1085 124.065 79.5797 124.065 80.1108 124.221C80.6419 124.376 81.0383 124.626 80.9785 124.781Z" fill="black"/>
<g opacity="0.8">
<path d="M81.6218 116.988C79.6969 122.359 77.7721 127.728 75.8472 133.095C75.836 133.16 75.8508 133.226 75.889 133.282C75.9272 133.338 75.9862 133.38 76.0555 133.401C76.1249 133.421 76.1999 133.418 76.2673 133.393C76.3347 133.368 76.3899 133.322 76.4232 133.263C78.343 127.892 80.2679 122.523 82.1977 117.157C82.2089 117.092 82.1941 117.025 82.1559 116.969C82.1177 116.913 82.0587 116.871 81.9894 116.851C81.9201 116.831 81.845 116.833 81.7776 116.858C81.7103 116.883 81.655 116.929 81.6218 116.988Z" fill="white"/>
</g>
<path d="M75.3535 120.385L80.784 122.235L81.6517 117.508C81.6517 117.508 78.4876 116.833 76.5503 118.183L75.3535 120.385Z" fill="#F7978D"/>
<path d="M84.0528 121.864L84.8008 120.155C84.9396 119.827 84.9313 119.463 84.7777 119.14C84.6241 118.817 84.3372 118.561 83.978 118.426L81.6367 117.548L80.784 122.235L82.28 122.654C82.6314 122.739 83.0052 122.706 83.3315 122.561C83.6579 122.416 83.9143 122.168 84.0528 121.864Z" fill="#F7978D"/>
<path d="M80.9037 89.0224C82.3997 94.81 72.3092 104.555 72.3092 104.555L64.1186 96.5726C64.1186 96.5726 68.068 89.2857 73.0946 87.0639C76.5877 85.5241 80.2454 86.4426 80.9037 89.0224Z" fill="#800000"/>
<path d="M81.532 74.7256C82.28 77.9267 82.9682 83.7953 80.4923 85.9429C84.295 87.3627 87.7877 89.3818 90.8072 91.9061C93.5823 87.4826 91.5552 85.9023 91.5552 85.9023C87.5983 85.0649 87.6806 82.4109 88.3612 79.9189L81.532 74.7256Z" fill="#F7978D"/>
<path opacity="0.2" d="M82.28 75.2929C82.3388 77.1984 82.8489 79.0706 83.776 80.7833C84.4268 81.9651 86.1995 82.4852 87.9947 82.6067C87.9516 81.696 88.0652 80.7847 88.3313 79.9054L82.28 75.2929Z" fill="black"/>
<path d="M86.3491 59.9493C86.1846 59.5643 86.6708 59.2064 87.0971 59.1051C87.7103 58.9651 88.3576 59.0128 88.9375 59.2406C89.5175 59.4684 89.9973 59.8635 90.3019 60.364C90.6064 60.8645 90.7184 61.442 90.6204 62.0062C90.5223 62.5703 90.2197 63.0891 89.76 63.4813C89.9096 63.1706 90.6052 62.8059 90.9344 62.9545C91.2467 63.146 91.4703 63.4344 91.5627 63.7649C91.6922 64.0419 91.7311 64.3465 91.6749 64.6428C91.6479 64.7923 91.57 64.9305 91.452 65.0382C91.3341 65.1459 91.1819 65.2178 91.0166 65.2439C91.7816 65.8333 92.3511 66.6023 92.6622 67.4657C92.7877 67.9062 92.7595 68.371 92.5815 68.7965C92.4034 69.2219 92.0842 69.5874 91.6674 69.8429C92.5426 70.4304 93.3579 71.2341 93.2681 72.2133C93.2158 72.7073 93.0276 73.1816 92.7206 73.5933C92.4136 74.0049 91.9976 74.3407 91.5103 74.5702C91.9965 75.4076 92.9016 76.3329 92.4603 77.1838C91.9068 78.244 90.1415 78.5885 89.8946 79.7365C90.3808 79.8513 90.8895 79.8784 91.3906 79.9932C91.5497 80.2876 91.6235 80.6135 91.6052 80.9407C91.5869 81.2678 91.477 81.5854 91.2859 81.8638C91.0316 82.1475 90.5379 81.9651 90.134 81.9516C89.9335 81.923 89.7282 81.9394 89.5364 81.9995C89.3446 82.0596 89.1722 82.1614 89.0344 82.296C88.9688 82.3987 88.9342 82.5152 88.9342 82.6337C88.9342 82.7523 88.9688 82.8687 89.0344 82.9714C89.624 83.2421 90.2623 83.4159 90.9194 83.4846C90.4199 83.5894 89.9023 83.604 89.3965 83.5275C88.8908 83.451 88.4067 83.285 87.9723 83.0389C87.5438 82.8074 87.1839 82.4855 86.9233 82.1009C86.6628 81.7163 86.5094 81.2804 86.4763 80.8306C86.4763 79.5947 87.516 78.5885 88.5108 77.7308C88.7053 77.562 88.9821 77.2446 88.7427 77.1298C88.6182 77.0831 88.4848 77.0591 88.35 77.0591C88.2152 77.0591 88.0818 77.0831 87.9573 77.1298C87.7081 77.2279 87.434 77.263 87.1644 77.2311C86.7175 76.795 86.3376 76.3067 86.035 75.7791C85.6983 75.2566 85.6042 74.6351 85.7732 74.0502C85.9426 73.6457 86.1965 73.2743 86.5212 72.9562C86.7559 72.6619 87.0473 72.408 87.3814 72.2066C87.7703 72.004 88.2939 71.8757 88.4061 71.484C88.4323 71.3172 88.3937 71.1473 88.2969 71.0033C88.2001 70.8592 88.051 70.7499 87.875 70.6938C87.5208 70.5859 87.1493 70.5311 86.7755 70.5317C86.3975 70.5306 86.0341 70.4003 85.7582 70.1671C85.444 69.8429 85.085 69.2148 85.2795 68.8164C85.4128 68.6204 85.5883 68.4504 85.7956 68.3167C86.5429 67.6209 87.0609 66.751 87.2916 65.8044C87.3242 65.7122 87.3242 65.613 87.2916 65.5208C87.2168 65.3047 86.8727 65.2844 86.6633 65.406C86.4796 65.5527 86.3048 65.7082 86.1397 65.8719C85.9527 66.0138 85.631 66.0745 85.4814 65.8719C85.085 65.406 81.4796 63.9473 84.5016 60.834C84.7559 60.5706 84.8157 60.1924 85.1149 59.9695C85.2976 59.8616 85.5104 59.8024 85.7288 59.7988C85.9471 59.7952 86.1622 59.8474 86.3491 59.9493Z" fill="#263238"/>
<path d="M75.8397 70.7343C77.5826 75.8669 78.1585 78.0685 81.8237 80.1215C87.2617 83.201 93.859 80.1687 93.8815 74.7188C93.8815 69.7754 91.0466 62.2184 84.9055 61.354C83.5414 61.1548 82.1436 61.274 80.845 61.7002C79.5464 62.1263 78.39 62.8453 77.486 63.7888C76.5819 64.7323 75.9602 65.8688 75.6799 67.0904C75.3996 68.312 75.4701 69.578 75.8846 70.7681L75.8397 70.7343Z" fill="#F7978D"/>
<path d="M73.6481 61.7254C73.7154 61.3135 73.1469 61.0501 72.6906 61.0501C72.0554 61.0358 71.4329 61.2131 70.9218 61.554C70.4106 61.8949 70.0399 62.3799 69.8683 62.9323C69.6967 63.4847 69.7339 64.0731 69.9741 64.6042C70.2143 65.1354 70.6438 65.5791 71.1946 65.8652C70.9702 65.5883 70.1998 65.3587 69.923 65.5883C69.6681 65.8399 69.522 66.1659 69.5116 66.5068C69.4576 66.8054 69.4965 67.1116 69.6238 67.3915C69.6917 67.5292 69.8033 67.6456 69.9444 67.7261C70.0855 67.8066 70.2498 67.8477 70.4167 67.844C69.8239 68.5755 69.4644 69.4397 69.377 70.3427C69.3685 70.7977 69.5154 71.2441 69.7978 71.6211C70.0802 71.9981 70.4843 72.2874 70.9553 72.4497C70.2522 73.2061 69.6612 74.1516 69.9978 75.0903C70.1735 75.5599 70.4762 75.9825 70.8785 76.3197C71.2808 76.657 71.77 76.8983 72.3017 77.0217C72.0399 77.9334 71.3891 79.0477 72.0399 79.7636C72.8477 80.682 74.6504 80.6483 75.1815 81.7153C74.7402 81.9246 74.254 82.0597 73.8126 82.2691C73.7279 82.5879 73.7365 82.9211 73.8374 83.236C73.9384 83.551 74.1283 83.8368 74.3886 84.0654C74.7028 84.2951 75.1366 84.0114 75.5256 83.9169C75.7138 83.8478 75.918 83.8216 76.1202 83.8405C76.3223 83.8593 76.5162 83.9226 76.685 84.0249C76.7837 84.1101 76.8547 84.2181 76.8903 84.3372C76.9259 84.4562 76.9248 84.5818 76.8869 84.7003C76.8046 84.9366 75.5031 85.4837 75.1815 85.5917C76.2188 85.587 77.2117 85.2105 77.9416 84.5449C78.2992 84.2322 78.5671 83.8456 78.7222 83.4185C78.8773 82.9914 78.9149 82.5366 78.8317 82.0935C78.54 80.8846 77.246 80.1215 76.0641 79.4935C75.8322 79.3719 75.4807 79.122 75.6826 78.9599C75.9021 78.8264 76.1686 78.7711 76.4306 78.8046C76.6959 78.8529 76.971 78.8318 77.2235 78.7438C77.5566 78.2287 77.8083 77.674 77.9715 77.096C78.0698 76.8103 78.1045 76.5099 78.0737 76.212C78.0429 75.9142 77.9472 75.6247 77.792 75.3604C77.5206 74.9983 77.1723 74.6884 76.7672 74.4487C76.4605 74.2142 76.1113 74.0292 75.735 73.9017C75.3086 73.7869 74.7626 73.7734 74.5606 73.4155C74.4909 73.258 74.4842 73.0836 74.5415 72.9221C74.5989 72.7606 74.7167 72.6223 74.8748 72.5308C75.1945 72.3545 75.5428 72.2246 75.907 72.1458C76.2737 72.0677 76.5943 71.8675 76.8046 71.5853C76.9482 71.376 77.0346 71.1388 77.0567 70.8934C77.0788 70.648 77.036 70.4014 76.9318 70.1739C76.7512 70.0093 76.5347 69.8805 76.296 69.7957C75.4078 69.261 74.6969 68.5187 74.239 67.6481C74.1768 67.5687 74.1405 67.4751 74.1343 67.378C74.1343 67.1551 74.4858 67.0606 74.7177 67.1349C74.9357 67.239 75.1456 67.3563 75.346 67.486C75.5704 67.5873 75.8921 67.5738 75.9968 67.3712C76.2586 66.8445 79.4002 64.6699 75.6677 62.2657C75.361 62.0631 75.1964 61.7052 74.8598 61.5566C74.6607 61.4789 74.4414 61.4535 74.227 61.4834C74.0126 61.5132 73.812 61.5971 73.6481 61.7254Z" fill="#263238"/>
<path d="M79.5722 60.2599C83.3796 57.1061 87.5758 58.3758 89.775 59.409C90.8807 59.9349 91.8517 60.6648 92.6249 61.5513C93.398 62.4378 93.9561 63.4612 94.263 64.5551C94.4948 65.4127 94.263 67.3982 92.4154 67.9317C91.9012 66.9328 91.1801 66.032 90.2911 65.2777C88.9148 64.2917 86.3416 64.1904 85.3169 64.4673C84.3244 66.5911 82.9745 68.5638 81.3151 70.3157C79.6844 71.9432 77.2834 73.098 74.8823 72.7941C73.7592 71.5467 73.0312 70.0479 72.7757 68.4569C72.5202 66.866 72.7467 65.2423 73.4312 63.7582C74.9047 60.8407 79.5722 60.2599 79.5722 60.2599Z" fill="#263238"/>
<path d="M74.5532 73.6113C74.7164 74.1065 74.9877 74.5672 75.3513 74.9662C75.7149 75.3652 76.1633 75.6944 76.67 75.9344C78.0164 76.5557 79.0038 75.5427 78.914 74.2461C78.8093 73.0778 77.979 71.3422 76.498 71.2476C76.177 71.234 75.8574 71.2924 75.5676 71.4176C75.2778 71.5428 75.0268 71.7308 74.8371 71.9649C74.6475 72.1991 74.525 72.472 74.4807 72.7592C74.4363 73.0465 74.4715 73.3393 74.5831 73.6113H74.5532Z" fill="#F7978D"/>
<path d="M84.6736 70.444C84.7858 70.8694 85.1224 71.1598 85.4216 71.1193C85.7208 71.0788 85.8779 70.6533 85.7732 70.2346C85.6684 69.8159 85.3169 69.5188 85.0252 69.5593C84.7334 69.5998 84.5614 70.0185 84.6736 70.444Z" fill="#263238"/>
<path d="M89.9844 69.3094C90.0891 69.7349 90.4257 70.0253 90.7324 69.9848C91.0391 69.9442 91.1962 69.5255 91.084 69.0933C90.9718 68.6611 90.6352 68.3842 90.336 68.418C90.0368 68.4517 89.8647 68.884 89.9844 69.3094Z" fill="#263238"/>
<path d="M90.2088 68.472L91.256 67.9385C91.256 67.9385 90.8895 68.884 90.2088 68.472Z" fill="#263238"/>
<path d="M88.7876 70.3359C89.4597 71.2124 90.2598 72.003 91.1662 72.6861C90.9729 72.8984 90.7296 73.0692 90.454 73.186C90.1784 73.3028 89.8775 73.3627 89.573 73.3614L88.7876 70.3359Z" fill="#FF5652"/>
<path d="M88.4061 74.9619C88.4297 74.9434 88.4458 74.9185 88.452 74.8909C88.4583 74.8632 88.4543 74.8346 88.4407 74.8092C88.4271 74.7838 88.4046 74.7632 88.3767 74.7506C88.3488 74.7379 88.3171 74.7339 88.2864 74.7391C87.7102 74.8933 87.1019 74.9229 86.5106 74.8256C85.9194 74.7282 85.3618 74.5065 84.883 74.1786C84.8546 74.162 84.8205 74.1551 84.787 74.1593C84.7534 74.1634 84.7226 74.1781 84.7 74.2009C84.6775 74.2238 84.6647 74.2531 84.664 74.2836C84.6632 74.3142 84.6746 74.344 84.696 74.3676C85.2076 74.7305 85.809 74.9759 86.4486 75.0829C87.0883 75.19 87.7471 75.1554 88.3687 74.9822L88.4061 74.9619Z" fill="#263238"/>
<path d="M83.028 69.073C83.068 69.0459 83.1012 69.0114 83.1252 68.9717C83.2579 68.6746 83.4668 68.4101 83.7346 68.2C84.0025 67.9898 84.3217 67.84 84.6661 67.7629C84.704 67.7586 84.7405 67.7475 84.7735 67.7303C84.8065 67.713 84.8354 67.6899 84.8583 67.6623C84.8812 67.6348 84.8977 67.6034 84.9069 67.5699C84.9161 67.5365 84.9177 67.5017 84.9117 67.4677C84.9056 67.4337 84.8921 67.4011 84.8718 67.3719C84.8515 67.3427 84.825 67.3175 84.7937 67.2978C84.7624 67.2781 84.727 67.2642 84.6897 67.2571C84.6523 67.25 84.6138 67.2498 84.5764 67.2564C84.1378 67.3466 83.7296 67.5304 83.386 67.7924C83.0424 68.0545 82.7734 68.3871 82.6016 68.7624C82.587 68.7938 82.5795 68.8276 82.5795 68.8617C82.5795 68.8958 82.5871 68.9295 82.6017 68.961C82.6163 68.9924 82.6378 69.0209 82.6647 69.0448C82.6917 69.0687 82.7236 69.0875 82.7587 69.1001C82.8022 69.1174 82.8501 69.1241 82.8974 69.1193C82.9447 69.1146 82.9898 69.0986 83.028 69.073Z" fill="#263238"/>
<path d="M91.4954 67.2429H91.5328C91.5595 67.219 91.5806 67.1906 91.5951 67.1593C91.6095 67.128 91.617 67.0945 91.617 67.0606C91.617 67.0266 91.6095 66.9931 91.5951 66.9618C91.5806 66.9305 91.5595 66.9021 91.5328 66.8782C91.213 66.6015 90.8259 66.3963 90.4024 66.279C89.9789 66.1617 89.5309 66.1356 89.0943 66.2029C89.0224 66.2189 88.9603 66.2597 88.9212 66.3164C88.8821 66.3732 88.869 66.4415 88.8848 66.5068C88.8936 66.5396 88.9095 66.5706 88.9315 66.5979C88.9536 66.6252 88.9814 66.6483 89.0134 66.6659C89.0453 66.6834 89.0808 66.6951 89.1178 66.7003C89.1548 66.7054 89.1926 66.7039 89.2289 66.6959C89.5797 66.6418 89.9396 66.6639 90.2791 66.7601C90.6185 66.8564 90.9277 67.0242 91.1812 67.2497C91.2278 67.2784 91.2831 67.2932 91.3395 67.2919C91.3959 67.2907 91.4504 67.2736 91.4954 67.2429Z" fill="#263238"/>
<path d="M84.898 69.6133L85.9527 69.073C85.9527 69.073 85.5862 69.9982 84.898 69.6133Z" fill="#263238"/>
<path d="M142.12 223.218C141.822 223.218 141.537 223.111 141.327 222.921C141.116 222.731 140.998 222.473 140.998 222.205V30.4778C140.998 30.2091 141.116 29.9515 141.327 29.7615C141.537 29.5715 141.822 29.4648 142.12 29.4648C142.418 29.4648 142.703 29.5715 142.913 29.7615C143.124 29.9515 143.242 30.2091 143.242 30.4778V222.185C143.245 222.319 143.218 222.453 143.163 222.578C143.108 222.704 143.026 222.818 142.921 222.914C142.817 223.01 142.692 223.087 142.555 223.139C142.417 223.191 142.269 223.218 142.12 223.218Z" fill="#263238"/>
<path d="M168.854 41.7828H115.603C115.306 41.7828 115.02 41.6761 114.81 41.4861C114.6 41.2962 114.481 41.0385 114.481 40.7698C114.481 40.5012 114.6 40.2435 114.81 40.0535C115.02 39.8636 115.306 39.7568 115.603 39.7568H168.854C169.151 39.7568 169.436 39.8636 169.647 40.0535C169.857 40.2435 169.976 40.5012 169.976 40.7698C169.976 41.0385 169.857 41.2962 169.647 41.4861C169.436 41.6761 169.151 41.7828 168.854 41.7828Z" fill="#263238"/>
<path d="M127.16 233.253L139.667 232.139V213.905H144.626V232.139L157.185 233.253C157.786 233.307 158.343 233.561 158.748 233.965C159.154 234.37 159.377 234.896 159.376 235.441V237.136H124.916V235.441C124.916 234.889 125.147 234.356 125.563 233.95C125.979 233.545 126.549 233.296 127.16 233.253Z" fill="#263238"/>
<path opacity="0.2" d="M127.16 233.253L139.667 232.139V213.905H144.626V232.139L157.185 233.253C157.786 233.307 158.343 233.561 158.748 233.965C159.154 234.37 159.377 234.896 159.376 235.441V237.136H124.916V235.441C124.916 234.889 125.147 234.356 125.563 233.95C125.979 233.545 126.549 233.296 127.16 233.253Z" fill="white"/>
<path d="M154.791 239.237C154.79 239.817 154.979 240.384 155.335 240.867C155.69 241.35 156.197 241.726 156.79 241.949C157.383 242.172 158.036 242.231 158.666 242.119C159.296 242.007 159.876 241.728 160.33 241.318C160.785 240.909 161.095 240.386 161.221 239.818C161.347 239.249 161.283 238.659 161.037 238.123C160.792 237.587 160.376 237.129 159.842 236.807C159.308 236.485 158.68 236.313 158.037 236.313C157.611 236.312 157.19 236.387 156.796 236.533C156.402 236.68 156.044 236.895 155.742 237.167C155.441 237.438 155.202 237.761 155.038 238.116C154.875 238.471 154.791 238.852 154.791 239.237Z" fill="#263238"/>
<path d="M129.509 239.237C129.51 239.817 129.321 240.385 128.965 240.868C128.609 241.351 128.102 241.727 127.508 241.95C126.915 242.173 126.261 242.231 125.631 242.118C125 242.006 124.421 241.726 123.967 241.316C123.512 240.906 123.203 240.383 123.078 239.814C122.953 239.244 123.018 238.655 123.265 238.119C123.511 237.583 123.929 237.125 124.464 236.804C124.999 236.482 125.627 236.311 126.27 236.313C126.695 236.313 127.116 236.388 127.509 236.535C127.902 236.682 128.259 236.897 128.56 237.169C128.861 237.441 129.099 237.763 129.262 238.118C129.425 238.472 129.509 238.853 129.509 239.237Z" fill="#263238"/>
<path d="M135.126 68.2491C134.236 69.7957 132.882 71.1531 132.561 71.1531C132.448 71.1531 132.306 71.4367 132.164 71.8284C131.968 72.3467 131.596 72.7957 131.1 73.1112C130.604 73.4266 130.01 73.5922 129.404 73.5843H123.113C122.507 73.5922 121.913 73.4266 121.417 73.1112C120.922 72.7957 120.549 72.3467 120.353 71.8284C120.219 71.457 120.076 71.1531 119.957 71.1531C119.62 71.1531 118.281 69.8024 117.391 68.2491C116.501 66.6959 117.503 60.8948 117.952 58.6662C118.401 56.4376 116.501 51.6022 117.952 49.664C119.194 48.0027 133.324 48.0027 134.565 49.664C136.016 51.6022 134.124 56.4173 134.565 58.6662C135.007 60.915 136.016 66.7026 135.126 68.2491Z" fill="#800000"/>
<path opacity="0.5" d="M135.126 68.2491C134.236 69.7957 132.882 71.1531 132.561 71.1531C132.448 71.1531 132.306 71.4367 132.164 71.8284C131.968 72.3467 131.596 72.7957 131.1 73.1112C130.604 73.4266 130.01 73.5922 129.404 73.5843H123.113C122.507 73.5922 121.913 73.4266 121.417 73.1112C120.922 72.7957 120.549 72.3467 120.353 71.8284C120.219 71.457 120.076 71.1531 119.957 71.1531C119.62 71.1531 118.281 69.8024 117.391 68.2491C116.501 66.6959 117.503 60.8948 117.952 58.6662C118.401 56.4376 116.501 51.6022 117.952 49.664C119.194 48.0027 133.324 48.0027 134.565 49.664C136.016 51.6022 134.124 56.4173 134.565 58.6662C135.007 60.915 136.016 66.7026 135.126 68.2491Z" fill="white"/>
<path d="M128.656 46.0982H123.801L122.305 48.6375H130.152L128.656 46.0982ZM126.337 47.9486C125.103 47.9486 124.093 47.665 124.093 47.3273C124.093 46.9897 125.096 46.706 126.337 46.706C127.579 46.706 128.581 46.9829 128.581 47.3273C128.581 47.6717 127.571 47.9486 126.337 47.9486Z" fill="#800000"/>
<path d="M119.201 58.6729C119.59 56.6469 117.937 52.2775 119.201 50.5217C120.286 49.0157 132.576 49.0157 133.668 50.5217C134.924 52.2775 133.279 56.6537 133.668 58.6729C134.057 60.6922 134.924 65.9463 134.146 67.351C133.368 68.7556 132.209 69.978 131.902 69.978C131.805 69.978 131.678 70.2414 131.558 70.579C131.434 70.9401 131.212 71.2673 130.911 71.5304C130.61 71.7936 130.241 71.9843 129.838 72.085L129.913 75.59C129.913 75.7405 129.846 75.8848 129.729 75.9911C129.611 76.0975 129.451 76.1573 129.284 76.1573C129.117 76.1573 128.956 76.0978 128.837 75.9916C128.718 75.8854 128.65 75.7411 128.649 75.59L128.596 72.8482C128.596 72.6691 128.517 72.4973 128.377 72.3706C128.237 72.244 128.047 72.1728 127.848 72.1728H127.781C127.582 72.1728 127.392 72.244 127.252 72.3706C127.112 72.4973 127.033 72.6691 127.033 72.8482L127.085 75.5495C127.085 75.6999 127.019 75.8442 126.901 75.9506C126.783 76.057 126.624 76.1168 126.457 76.1168C126.29 76.1168 126.13 76.057 126.013 75.9506C125.895 75.8442 125.829 75.6999 125.829 75.5495L125.769 72.8076C125.769 72.6285 125.69 72.4568 125.55 72.3301C125.409 72.2035 125.219 72.1323 125.021 72.1323H124.617C124.418 72.1323 124.228 72.2035 124.088 72.3301C123.948 72.4568 123.869 72.6285 123.869 72.8076L123.929 75.509C123.912 75.6496 123.838 75.7797 123.721 75.8741C123.604 75.9686 123.453 76.0208 123.297 76.0208C123.14 76.0208 122.989 75.9686 122.872 75.8741C122.755 75.7797 122.681 75.6496 122.665 75.509L122.59 71.8284C122.296 71.6879 122.037 71.4962 121.826 71.2643C121.616 71.0324 121.458 70.765 121.363 70.4777C121.243 70.1401 121.116 69.8767 121.019 69.8767C120.727 69.8767 119.56 68.6476 118.775 67.2497C117.99 65.8517 118.865 60.5841 119.254 58.5716" fill="white"/>
<path d="M131.865 55.3773C131.865 55.823 131.476 56.0526 130.72 56.0526H129.224V53.4729H130.616C131.364 53.4729 131.7 53.743 131.7 54.1482C131.704 54.2658 131.669 54.3818 131.602 54.4823C131.534 54.5829 131.436 54.6638 131.319 54.7155C131.478 54.7558 131.618 54.8426 131.717 54.9623C131.816 55.0821 131.868 55.228 131.865 55.3773ZM129.905 53.9523V54.5601H130.563C130.885 54.5601 131.057 54.4521 131.057 54.2495C131.057 54.0469 130.885 53.9523 130.563 53.9523H129.905ZM131.199 55.303C131.199 55.0869 131.02 54.9856 130.676 54.9856H129.928V55.6204H130.676C131.02 55.6204 131.199 55.5259 131.199 55.303Z" fill="black"/>
<path d="M133.668 58.6729C134.049 60.6989 134.924 65.9462 134.146 67.3509C133.368 68.7556 132.209 69.978 131.902 69.978C131.805 69.978 131.678 70.2414 131.558 70.579C131.434 70.9401 131.212 71.2673 130.911 71.5304C130.61 71.7936 130.241 71.9843 129.838 72.085L129.913 75.59C129.913 75.7405 129.846 75.8848 129.729 75.9911C129.611 76.0975 129.451 76.1573 129.284 76.1573C129.117 76.1573 128.956 76.0977 128.837 75.9915C128.718 75.8854 128.65 75.7411 128.649 75.59L128.596 72.8482C128.596 72.669 128.517 72.4973 128.377 72.3706C128.237 72.244 128.047 72.1728 127.848 72.1728H127.781C127.582 72.1728 127.392 72.244 127.252 72.3706C127.112 72.4973 127.033 72.669 127.033 72.8482L127.085 75.5495C127.085 75.6999 127.019 75.8442 126.901 75.9506C126.783 76.057 126.624 76.1168 126.457 76.1168C126.29 76.1168 126.13 76.057 126.013 75.9506C125.895 75.8442 125.829 75.6999 125.829 75.5495L125.769 72.8076C125.769 72.6285 125.69 72.4567 125.55 72.3301C125.409 72.2035 125.219 72.1323 125.021 72.1323H124.617C124.418 72.1323 124.228 72.2035 124.088 72.3301C123.948 72.4567 123.869 72.6285 123.869 72.8076L123.929 75.509C123.912 75.6496 123.838 75.7796 123.721 75.8741C123.604 75.9686 123.453 76.0208 123.297 76.0208C123.14 76.0208 122.989 75.9686 122.872 75.8741C122.755 75.7796 122.681 75.6496 122.665 75.509L122.59 71.8284C122.296 71.6879 122.037 71.4961 121.826 71.2643C121.616 71.0324 121.458 70.765 121.363 70.4777C121.243 70.1401 121.116 69.8767 121.019 69.8767C120.727 69.8767 119.56 68.6476 118.775 67.2496C117.99 65.8517 118.865 60.5841 119.254 58.5716C121.473 59.6616 123.96 60.2325 126.487 60.2325C129.014 60.2325 131.5 59.6616 133.72 58.5716L133.668 58.6729Z" fill="#800000"/>
<path opacity="0.2" d="M122.163 74.7121H124.303V75.8939C124.301 76.0915 124.212 76.2805 124.057 76.4196C123.901 76.5587 123.691 76.6368 123.472 76.6368H122.986C122.768 76.6368 122.559 76.5585 122.404 76.4192C122.25 76.2799 122.163 76.0909 122.163 75.8939V74.7121Z" fill="white"/>
<path opacity="0.2" d="M128.237 74.7121H130.369V75.8939C130.369 76.0909 130.282 76.2799 130.128 76.4192C129.974 76.5585 129.764 76.6368 129.546 76.6368H129.06C128.842 76.6368 128.632 76.5585 128.478 76.4192C128.324 76.2799 128.237 76.0909 128.237 75.8939V74.7121Z" fill="white"/>
<path d="M128.746 48.2525C127.987 48.2508 127.259 47.9777 126.722 47.493C126.185 47.0083 125.883 46.3515 125.881 45.666V40.7699C125.881 40.6803 125.92 40.5944 125.99 40.5311C126.061 40.4678 126.156 40.4322 126.255 40.4322C126.354 40.4322 126.449 40.4678 126.519 40.5311C126.59 40.5944 126.629 40.6803 126.629 40.7699V45.666C126.629 46.1729 126.852 46.659 127.249 47.0174C127.646 47.3759 128.184 47.5772 128.746 47.5772C129.307 47.5772 129.846 47.3759 130.243 47.0174C130.64 46.659 130.863 46.1729 130.863 45.666V45.0582C130.863 44.9687 130.902 44.8828 130.972 44.8195C131.042 44.7561 131.137 44.7206 131.237 44.7206C131.336 44.7206 131.431 44.7561 131.501 44.8195C131.571 44.8828 131.611 44.9687 131.611 45.0582V45.666C131.609 46.3515 131.306 47.0083 130.769 47.493C130.232 47.9777 129.505 48.2508 128.746 48.2525Z" fill="#800000"/>
<path d="M185.676 139.875H175.204C168.755 139.877 162.368 138.731 156.41 136.504C150.451 134.276 145.037 131.011 140.476 126.893C135.916 122.776 132.299 117.888 129.832 112.508C127.365 107.128 126.096 101.362 126.098 95.5393V75.7926H126.846V95.5393C126.844 101.273 128.093 106.952 130.523 112.25C132.952 117.547 136.514 122.361 141.005 126.416C145.496 130.47 150.828 133.686 156.696 135.88C162.564 138.073 168.853 139.201 175.204 139.2H185.676V139.875Z" fill="#800000"/>
<path d="M188.481 140.152H182.841L183.26 138.923H188.818L188.481 140.152Z" fill="white"/>
<path d="M187.898 138.295C186.753 138.646 185.497 140.395 185.377 141.286H184.105C184.105 140.28 185.429 138.585 186.633 138.295H187.898Z" fill="#800000"/>
</svg>
