<svg width="365" height="217" viewBox="0 0 365 217" fill="none" xmlns="http://www.w3.org/2000/svg">
<g opacity="0.3">
<path d="M147.458 111.256V213.852H189.337V111.256H147.458ZM186.309 201.601H150.486V181.695H186.309V201.601ZM186.309 170.976H150.486V151.069H186.309V170.976ZM186.309 140.35H150.486V120.444H186.309V140.35Z" fill="black" stroke="black" stroke-linecap="round" stroke-linejoin="round"/>
<path d="M185.623 96.6782H177.323V111.373H185.623V96.6782Z" stroke="black" stroke-linecap="round" stroke-linejoin="round"/>
<path d="M183.691 99.7254H177.323V107.642H183.691V99.7254Z" stroke="black" stroke-linecap="round" stroke-linejoin="round"/>
<path d="M183.156 92.6561H179.785V96.6221H183.156V92.6561Z" stroke="black" stroke-linecap="round" stroke-linejoin="round"/>
<path d="M174.366 105.641H162.257V111.598H174.366V105.641Z" stroke="black" stroke-linecap="round" stroke-linejoin="round"/>
<path d="M161.248 101.726H156.036V113.124H161.248V101.726Z" stroke="black" stroke-linecap="round" stroke-linejoin="round"/>
<path d="M154.689 103.936H150.486V113.129H154.689V103.936Z" stroke="black" stroke-linecap="round" stroke-linejoin="round"/>
</g>
<g opacity="0.3">
<path d="M335.018 1.5145H198.787V102.068H335.018V1.5145Z" stroke="black" stroke-linecap="round" stroke-linejoin="round"/>
<path d="M262.361 5.08746H203.833V98.4953H262.361V5.08746Z" stroke="black" stroke-linecap="round" stroke-linejoin="round"/>
<path d="M329.972 5.08746H270.939V98.4953H329.972V5.08746Z" stroke="black" stroke-linecap="round" stroke-linejoin="round"/>
<path d="M266.398 2.53534V101.047" stroke="black" stroke-linecap="round" stroke-linejoin="round"/>
<path d="M264.561 66.262C264.452 66.262 264.344 66.2402 264.243 66.1978C264.143 66.1554 264.051 66.0933 263.974 66.015C263.897 65.9367 263.837 65.8438 263.795 65.7417C263.754 65.6395 263.733 65.5301 263.734 65.4198V55.3644C263.734 55.1424 263.821 54.9295 263.976 54.7725C264.131 54.6155 264.342 54.5273 264.561 54.5273C264.781 54.5273 264.991 54.6155 265.146 54.7725C265.302 54.9295 265.389 55.1424 265.389 55.3644V65.4198C265.389 65.5301 265.369 65.6395 265.327 65.7417C265.286 65.8438 265.225 65.9367 265.148 66.015C265.071 66.0933 264.98 66.1554 264.879 66.1978C264.778 66.2402 264.67 66.262 264.561 66.262Z" fill="black" stroke="black" stroke-linecap="round" stroke-linejoin="round"/>
<path d="M268.588 66.262C268.479 66.262 268.371 66.2402 268.27 66.1978C268.169 66.1554 268.078 66.0933 268.001 66.015C267.924 65.9367 267.863 65.8438 267.822 65.7417C267.78 65.6395 267.759 65.5301 267.76 65.4198V55.3644C267.76 55.1424 267.847 54.9295 268.003 54.7725C268.158 54.6155 268.368 54.5273 268.588 54.5273C268.697 54.5266 268.805 54.5477 268.907 54.5895C269.008 54.6312 269.1 54.6926 269.178 54.7704C269.256 54.8481 269.317 54.9406 269.36 55.0425C269.402 55.1444 269.425 55.2538 269.425 55.3644V65.4198C269.425 65.5308 269.403 65.6407 269.361 65.7433C269.319 65.8458 269.257 65.9388 269.18 66.0171C269.102 66.0954 269.009 66.1573 268.908 66.1993C268.806 66.2414 268.697 66.2627 268.588 66.262Z" fill="black" stroke="black" stroke-linecap="round" stroke-linejoin="round"/>
</g>
<g opacity="0.3">
<path d="M147.928 1.51448H11.6967V102.068H147.928V1.51448Z" stroke="black" stroke-linecap="round" stroke-linejoin="round"/>
<path d="M75.271 5.08745H16.7422V98.4953H75.271V5.08745Z" stroke="black" stroke-linecap="round" stroke-linejoin="round"/>
<path d="M142.882 5.08745H83.8486V98.4953H142.882V5.08745Z" stroke="black" stroke-linecap="round" stroke-linejoin="round"/>
<path d="M79.3075 2.53533V101.047" stroke="black" stroke-linecap="round" stroke-linejoin="round"/>
<path d="M77.4709 66.262C77.2501 66.262 77.0384 66.1732 76.8823 66.0153C76.7261 65.8574 76.6384 65.6431 76.6384 65.4198V55.3644C76.6398 55.1419 76.7281 54.929 76.884 54.7722C77.04 54.6153 77.251 54.5273 77.4709 54.5273C77.69 54.5286 77.8997 54.6172 78.0546 54.7739C78.2095 54.9306 78.2971 55.1428 78.2984 55.3644V65.4198C78.2984 65.6422 78.2114 65.8557 78.0564 66.0135C77.9013 66.1713 77.6909 66.2606 77.4709 66.262Z" fill="black" stroke="black" stroke-linecap="round" stroke-linejoin="round"/>
<path d="M81.4922 66.262C81.2723 66.2606 81.0618 66.1713 80.9068 66.0135C80.7518 65.8557 80.6647 65.6422 80.6647 65.4198V55.3644C80.6661 55.1428 80.7537 54.9306 80.9086 54.7739C81.0635 54.6172 81.2732 54.5286 81.4922 54.5273C81.7117 54.5273 81.9221 54.6155 82.0773 54.7725C82.2325 54.9295 82.3197 55.1424 82.3197 55.3644V65.4198C82.3204 65.5301 82.2994 65.6395 82.2582 65.7417C82.2169 65.8438 82.156 65.9367 82.0791 66.015C82.0022 66.0933 81.9108 66.1554 81.81 66.1978C81.7093 66.2401 81.6013 66.262 81.4922 66.262Z" fill="black" stroke="black" stroke-linecap="round" stroke-linejoin="round"/>
</g>
<path d="M229.782 204.046L231.987 206.501L239.051 211.187C239.313 211.745 239.462 212.351 239.49 212.968V213.535C239.483 213.801 239.374 214.055 239.185 214.24C238.997 214.426 238.744 214.53 238.481 214.53H218.404C218.319 214.531 218.236 214.501 218.171 214.444C218.106 214.388 218.063 214.31 218.051 214.224C217.83 212.849 217.698 211.461 217.657 210.069C217.657 208.288 218.757 202.484 218.757 202.484L229.121 202.04L229.782 204.046Z" fill="white" stroke="#263238" stroke-linecap="round" stroke-linejoin="round"/>
<path d="M218.051 214.224C218.063 214.31 218.106 214.388 218.171 214.444C218.236 214.501 218.319 214.531 218.404 214.53H238.501C238.764 214.531 239.017 214.426 239.206 214.241C239.394 214.055 239.503 213.801 239.51 213.535V212.969C239.515 212.877 239.515 212.785 239.51 212.693H217.844C217.92 213.341 218.001 213.898 218.051 214.224Z" fill="white" stroke="#263238" stroke-linecap="round" stroke-linejoin="round"/>
<path d="M196.264 202.326L195.916 205.133C195.916 205.133 192.53 211.897 192.273 212.601C192.132 213.236 192.132 213.895 192.273 214.53H207.117C207.117 214.53 207.723 211.019 206.946 209.089C206.169 207.16 206.396 203.924 206.396 203.924L205.987 202.326C205.987 202.326 198.449 201.356 196.264 202.326Z" fill="white" stroke="#263238" stroke-linecap="round" stroke-linejoin="round"/>
<path d="M192.288 214.53H207.132C207.235 213.891 207.302 213.247 207.334 212.601H192.288C192.147 213.236 192.147 213.895 192.288 214.53Z" fill="white" stroke="#263238" stroke-linecap="round" stroke-linejoin="round"/>
<path d="M232.87 121.975C232.87 121.975 230.004 167.479 230.443 175.733C230.882 183.987 229.782 204.062 229.782 204.062C229.782 204.062 226.033 204.715 224.933 205.174C223.833 205.634 218.273 206.068 218.273 206.068C217.969 204.145 217.764 202.208 217.657 200.264C217.677 198.176 217.824 196.091 218.096 194.021C218.318 192.684 214.564 134.909 214.564 134.909L212.36 136.027L206.628 201.361L206.406 205.823L199.796 204.939L195.497 205.899C195.497 205.899 194.725 199.81 194.947 198.472C195.169 197.135 196.269 190.663 196.269 190.663L194.281 121.755C194.281 121.755 222.728 123.077 232.87 121.975Z" fill="#800000" stroke="#263238" stroke-linecap="round" stroke-linejoin="round"/>
<path d="M241.079 74.3369L243.652 90.4459L242.593 92.2834L234.863 86.6075L233.193 76.9451L241.079 74.3369Z" fill="#B5B5B5" stroke="#263238" stroke-linecap="round" stroke-linejoin="round"/>
<path d="M233.929 79.0532L241.326 77.721V75.9805L234.706 77.2514L233.929 79.0532Z" fill="#263238" stroke="#263238" stroke-linecap="round" stroke-linejoin="round"/>
<path d="M212.572 42.5884C212.572 42.5884 212.117 48.7135 212.117 49.7956C212.117 50.8777 203.626 52.557 199.534 55.7778C197.233 57.5898 194.377 61.4537 194.377 63.7558C194.377 66.0578 195.593 96.7344 195.593 96.7344L193.403 123.506C193.403 123.506 203.429 126.206 211.31 126.972C219.191 127.738 234.192 123.287 234.192 123.287C234.192 123.287 233.042 98.7097 233.042 97.0253C233.042 95.3409 232.739 90.9002 232.739 90.9002L234.101 78.017L234.707 77.2463L243.96 75.4088C243.96 75.4088 241.498 66.7315 237.436 60.3767C234.409 55.6196 225.155 52.5519 224.247 52.2457L223.339 51.9394L223.036 48.7186C223.036 48.7186 214.847 45.5029 212.572 42.5884Z" fill="#800000" stroke="#263238" stroke-linecap="round" stroke-linejoin="round"/>
<path d="M223.339 51.9445L223.036 48.7238C223.036 48.7238 214.847 45.503 212.571 42.5986C212.571 42.5986 212.117 48.7238 212.117 49.8059C212.117 50.2295 210.806 50.745 208.969 51.4137C210.881 54.1496 215.675 60.9842 217.123 62.6941C218.505 64.4725 219.723 66.3759 220.76 68.3802L226.22 52.9909C225.211 52.5979 224.469 52.3529 224.247 52.2763L223.339 51.9445Z" fill="#B5B5B5" stroke="#263238" stroke-linecap="round" stroke-linejoin="round"/>
<path d="M223.303 51.5974L223.036 48.7238C223.036 48.7238 214.847 45.503 212.572 42.5986C212.572 42.5986 212.501 43.5378 212.42 44.7475C213.005 45.9828 216.527 53.1338 219.509 53.0113C220.881 52.9127 222.196 52.4224 223.303 51.5974Z" fill="#263238" stroke="#263238" stroke-linecap="round" stroke-linejoin="round"/>
<path d="M231.674 80.3191C231.674 80.3191 241.382 87.8376 242.895 89.0627C244.409 90.2877 244.263 92.2834 243.198 94.1261C242.134 95.9687 237.144 97.9594 235.468 96.5812C233.793 95.2031 230.009 87.6845 229.565 86.7555C229.121 85.8266 227.592 81.8503 227.592 81.8503L231.674 80.3191Z" fill="#B5B5B5" stroke="#263238" stroke-linecap="round" stroke-linejoin="round"/>
<path d="M230.917 77.4046C230.917 77.4046 227.733 75.7202 225.917 75.2608C224.101 74.8014 221.997 79.0992 221.997 79.0992L231.548 78.946L230.917 77.4046Z" fill="white" stroke="#263238" stroke-linecap="round" stroke-linejoin="round"/>
<path d="M216.971 77.2514L209.539 95.3511H226.523L234.101 77.0983L216.971 77.2514Z" fill="#263238" stroke="#263238" stroke-linecap="round" stroke-linejoin="round"/>
<path d="M204.08 88.4502C204.08 88.4502 211.058 83.3868 211.966 83.0805C212.874 82.7743 215.301 82.1617 215.301 82.1617L214.242 84.3106L219.242 84.4638C219.242 84.4638 220.155 84.3106 220.004 85.8419C219.852 87.3732 217.274 87.6846 217.274 87.6846C217.274 87.6846 216.058 92.4366 213.924 92.8807C211.789 93.3248 204.519 92.8807 204.519 92.8807C204.519 92.8807 190.421 102.068 188.6 99.4805C186.778 96.8926 188.297 74.7861 188.297 74.7861L198.454 77.083L198.151 88.8943L204.08 88.4502Z" fill="#B5B5B5" stroke="#263238" stroke-linecap="round" stroke-linejoin="round"/>
<path d="M188.227 77.8537L198.398 79.4564V78.6551L188.358 75.8477L188.227 77.8537Z" fill="#263238" stroke="#263238" stroke-linecap="round" stroke-linejoin="round"/>
<path d="M198.166 88.9096L191.95 89.0627" stroke="#263238" stroke-linecap="round" stroke-linejoin="round"/>
<path d="M220.004 85.8419C220.155 84.3106 219.242 84.4637 219.242 84.4637L214.242 84.3106L215.301 82.1617C215.301 82.1617 212.874 82.7742 211.966 83.0805C211.058 83.3867 204.08 88.4502 204.08 88.4502C204.08 88.4502 202.753 90.2009 204.08 93.192L204.534 92.896C204.534 92.896 211.815 93.3605 213.939 92.896C216.063 92.4315 217.274 87.6845 217.274 87.6845C217.274 87.6845 219.852 87.3783 220.004 85.8419Z" fill="white" stroke="#263238" stroke-linecap="round" stroke-linejoin="round"/>
<path d="M203.172 54.2465C203.172 54.2465 196.35 54.8591 192.102 58.3861C190.86 59.4069 185.431 75.1076 185.431 75.1076L199.231 78.6347L200.291 73.265" fill="#800000"/>
<path d="M203.172 54.2465C203.172 54.2465 196.35 54.8591 192.102 58.3861C190.86 59.4069 185.431 75.1076 185.431 75.1076L199.231 78.6347L200.291 73.265" stroke="#263238" stroke-linecap="round" stroke-linejoin="round"/>
<path d="M211.401 33.6049C211.401 33.6049 209.509 30.7312 208.752 33.6049C207.995 36.4786 208.752 37.6883 209.882 38.4437C211.012 39.1992 211.396 39.1635 211.396 39.1635C211.396 39.1635 211.588 42.9967 212.91 45.4876C214.231 47.9785 217.269 50.8522 220.11 51.0462C222.95 51.2401 224.847 49.127 225.791 47.7845C226.734 46.4421 229.772 38.9695 229.772 35.3302C229.772 31.6908 229.393 24.9838 227.496 22.8758C225.599 20.7677 219.358 18.8689 214.812 20.7677C210.266 22.6665 210.831 31.6908 211.401 33.6049Z" fill="#B5B5B5" stroke="#263238" stroke-linecap="round" stroke-linejoin="round"/>
<path d="M223.823 34.733C223.823 34.733 224.555 39.3268 224.434 40.3017C224.313 41.2766 223.087 41.7871 221.865 41.7871C221.006 41.7131 220.192 41.3666 219.539 40.7968" stroke="#263238" stroke-linecap="round" stroke-linejoin="round"/>
<path d="M219.05 43.7624C219.769 44.2653 220.623 44.5347 221.497 44.5347C222.371 44.5347 223.225 44.2653 223.944 43.7624" stroke="#263238" stroke-linecap="round" stroke-linejoin="round"/>
<path d="M220.397 34.4879C219.692 34.0923 218.907 33.8641 218.102 33.8208C217.297 33.7775 216.493 33.9201 215.75 34.2378" stroke="#263238" stroke-width="2" stroke-linecap="round" stroke-linejoin="round"/>
<path d="M224.555 34.6105C224.555 34.6105 226.512 33.3752 228.223 34.733" stroke="#263238" stroke-width="2" stroke-linecap="round" stroke-linejoin="round"/>
<path d="M217.097 37.2085C217.097 37.2085 218.808 38.0762 219.908 37.086" stroke="#263238" stroke-linecap="round" stroke-linejoin="round"/>
<path d="M225.291 37.2085C225.291 37.2085 226.512 38.0763 227.612 37.719" stroke="#263238" stroke-linecap="round" stroke-linejoin="round"/>
<path d="M271.933 210.044H273.951V18.6342H271.933V210.044Z" fill="white" stroke="#263238" stroke-linecap="round" stroke-linejoin="round"/>
<path d="M261.605 211.294H284.466V209.967H261.605V211.294Z" fill="white" stroke="#263238" stroke-linecap="round" stroke-linejoin="round"/>
<path d="M261.261 212.892C261.26 212.567 261.355 212.248 261.533 211.977C261.711 211.706 261.964 211.495 262.261 211.37C262.558 211.245 262.884 211.211 263.2 211.274C263.515 211.337 263.805 211.493 264.033 211.723C264.261 211.952 264.416 212.245 264.479 212.564C264.542 212.883 264.51 213.214 264.388 213.515C264.265 213.815 264.057 214.072 263.789 214.253C263.522 214.434 263.208 214.53 262.886 214.53C262.456 214.53 262.044 214.358 261.739 214.051C261.435 213.744 261.263 213.327 261.261 212.892Z" fill="#263238" stroke="#263238" stroke-linecap="round" stroke-linejoin="round"/>
<path d="M281.444 212.892C281.444 212.568 281.539 212.251 281.717 211.982C281.895 211.712 282.148 211.502 282.444 211.378C282.74 211.254 283.065 211.222 283.379 211.285C283.694 211.348 283.982 211.504 284.209 211.733C284.435 211.962 284.589 212.254 284.652 212.572C284.714 212.89 284.682 213.22 284.56 213.519C284.437 213.818 284.23 214.074 283.963 214.254C283.697 214.434 283.384 214.53 283.063 214.53C282.851 214.53 282.64 214.488 282.444 214.406C282.247 214.323 282.069 214.203 281.918 214.05C281.768 213.898 281.648 213.718 281.567 213.519C281.486 213.32 281.444 213.107 281.444 212.892Z" fill="#263238" stroke="#263238" stroke-linecap="round" stroke-linejoin="round"/>
<path d="M291.444 19.0374V19.5478C291.445 19.9726 291.363 20.3932 291.202 20.7858C291.042 21.1784 290.807 21.5352 290.51 21.8358C290.214 22.1363 289.861 22.3748 289.474 22.5375C289.086 22.7002 288.67 22.7839 288.25 22.7839H287.589C286.741 22.7839 285.927 22.443 285.327 21.8361C284.727 21.2292 284.39 20.4061 284.39 19.5478V19.0374H261.181V19.8898C261.181 20.3143 261.099 20.7347 260.939 21.127C260.779 21.5194 260.543 21.8758 260.247 22.176C259.95 22.4761 259.598 22.7141 259.21 22.8762C258.822 23.0384 258.406 23.1215 257.987 23.1208C257.567 23.1215 257.152 23.0384 256.764 22.8762C256.376 22.7141 256.024 22.4761 255.727 22.176C255.43 21.8758 255.195 21.5194 255.035 21.127C254.874 20.7347 254.792 20.3143 254.793 19.8898V19.3794" stroke="#263238" stroke-width="3" stroke-linecap="round" stroke-linejoin="round"/>
<path d="M257.528 51.1533V123.037" stroke="#263238" stroke-width="2" stroke-linecap="round" stroke-linejoin="round"/>
<path d="M255.701 21.8805C256.119 21.4807 256.669 21.2533 257.244 21.2429C257.82 21.2325 258.378 21.4399 258.809 21.8243C259.879 22.7839 261.251 24.0038 262.099 24.7542C263.658 26.1323 264.44 26.7244 264.44 26.7244H250.61L255.701 21.8805Z" fill="white" stroke="#263238" stroke-linecap="round" stroke-linejoin="round"/>
<path d="M261.998 46.6259H253.037C252.389 46.6259 251.768 46.3656 251.31 45.9023C250.852 45.439 250.595 44.8106 250.595 44.1554V26.7244H264.44V44.1554C264.44 44.4798 264.377 44.8011 264.254 45.1008C264.132 45.4005 263.952 45.6729 263.725 45.9023C263.498 46.1317 263.229 46.3137 262.933 46.4378C262.636 46.562 262.319 46.6259 261.998 46.6259Z" fill="white" stroke="#263238" stroke-linecap="round" stroke-linejoin="round"/>
<path d="M261.337 45.6765H253.683C253.362 45.6765 253.045 45.6126 252.748 45.4884C252.452 45.3643 252.183 45.1823 251.956 44.9529C251.729 44.7235 251.55 44.4512 251.427 44.1514C251.304 43.8517 251.241 43.5305 251.241 43.206V35.4527H263.774V43.206C263.774 43.8604 263.518 44.488 263.061 44.9511C262.604 45.4143 261.984 45.6751 261.337 45.6765Z" fill="#800000" stroke="#263238" stroke-linecap="round" stroke-linejoin="round"/>
<path d="M256.635 51.0257H258.401V46.6871H256.635V51.0257Z" fill="#800000" stroke="#263238" stroke-linecap="round" stroke-linejoin="round"/>
<path d="M252.119 44.1963H262.846V28.1638H252.119V44.1963Z" fill="white" stroke="#263238" stroke-linecap="round" stroke-linejoin="round"/>
<path d="M256.766 22.8809C256.181 22.6367 255.681 22.2219 255.329 21.6892C254.978 21.1566 254.791 20.5302 254.793 19.8898V19.3794" fill="white"/>
<path d="M256.766 22.8809C256.181 22.6367 255.681 22.2219 255.329 21.6892C254.978 21.1566 254.791 20.5302 254.793 19.8898V19.3794" stroke="#263238" stroke-width="3" stroke-linecap="round" stroke-linejoin="round"/>
<path d="M313.08 164.085H240.928V196.329H313.08V164.085Z" fill="white" stroke="#263238" stroke-linecap="round" stroke-linejoin="round"/>
<path d="M258.754 186.12C257.861 186.12 257.005 185.761 256.374 185.123C255.743 184.484 255.388 183.618 255.388 182.716V166.382C255.388 165.479 255.743 164.613 256.374 163.975C257.005 163.336 257.861 162.977 258.754 162.977C259.646 162.977 260.502 163.336 261.133 163.975C261.765 164.613 262.119 165.479 262.119 166.382V182.716C262.119 183.618 261.765 184.484 261.133 185.123C260.502 185.761 259.646 186.12 258.754 186.12Z" fill="#263238" stroke="#263238" stroke-linecap="round" stroke-linejoin="round"/>
<path d="M260.434 131.076L249.672 166.04" stroke="#263238" stroke-width="8" stroke-linecap="round" stroke-linejoin="round"/>
<path d="M321.647 74.2501H291.696C291.135 74.2481 290.583 74.387 290.088 74.6542C289.593 74.9215 289.171 75.3088 288.861 75.7814C284.713 82.1617 269.153 106.152 269.521 107.683C269.94 109.469 263.633 162.043 263.633 162.043H314.331L332.853 109.24C333.438 107.736 333.509 106.078 333.055 104.529L324.927 76.7053C324.717 75.9918 324.283 75.3666 323.692 74.9239C323.1 74.4811 322.383 74.2446 321.647 74.2501Z" fill="#263238" stroke="#263238" stroke-linecap="round" stroke-linejoin="round"/>
<path d="M319.629 74.2501H289.678C289.117 74.2481 288.564 74.387 288.07 74.6542C287.575 74.9215 287.153 75.3088 286.843 75.7814C282.695 82.1617 267.134 106.152 267.503 107.683C267.922 109.469 261.615 162.043 261.615 162.043H312.313L330.835 109.24C331.42 107.736 331.491 106.078 331.037 104.529L322.908 76.7053C322.698 75.9918 322.265 75.3666 321.674 74.9239C321.082 74.4811 320.365 74.2446 319.629 74.2501Z" fill="#BDBDBD" stroke="#263238" stroke-linecap="round" stroke-linejoin="round"/>
<path d="M313.08 164.085H259.849L283.427 151.809L313.08 164.085Z" fill="#263238" stroke="#263238" stroke-linecap="round" stroke-linejoin="round"/>
<path d="M264.778 109.674L256.569 115.681C256.569 115.681 241.765 116.871 238.405 116.871C235.925 116.817 233.452 116.591 231.003 116.192C231.003 116.192 227.133 113.977 224.782 113.466C222.431 112.956 219.398 114.15 218.389 114.829C217.38 115.508 215.195 115.681 215.024 116.702C214.852 117.723 216.709 118.06 217.38 118.06C218.35 117.912 219.307 117.685 220.241 117.381C220.241 117.381 218.556 118.402 218.727 119.254C218.899 120.107 224.277 122.996 225.115 122.996C225.952 122.996 229.489 122.317 229.489 122.317C229.489 122.317 242.103 122.485 246.644 122.485H259.596L269.183 117.514L264.778 109.674Z" fill="white" stroke="#263238" stroke-linecap="round" stroke-linejoin="round"/>
<path d="M248.43 119.703C246.701 119.736 244.984 119.409 243.385 118.744C242.774 118.468 242.209 118.203 241.674 117.948C238.602 116.488 237.169 115.355 232.244 116.524C231.972 116.585 231.694 116.524 231.023 116.192C230.776 116.064 230.387 115.891 230.66 115.824C235.928 114.579 238.955 115.528 242.103 117.024C242.633 117.274 243.188 117.534 243.789 117.805C247.714 119.55 252.825 118.131 252.871 118.116C252.935 118.097 253.001 118.092 253.068 118.099C253.134 118.107 253.198 118.128 253.256 118.16C253.314 118.193 253.365 118.237 253.406 118.29C253.448 118.343 253.478 118.403 253.496 118.468C253.515 118.533 253.52 118.601 253.512 118.669C253.504 118.736 253.483 118.801 253.45 118.859C253.418 118.918 253.374 118.97 253.321 119.012C253.268 119.053 253.208 119.084 253.143 119.101C251.603 119.499 250.02 119.701 248.43 119.703Z" fill="#263238"/>
<path d="M252.169 116.769C252.763 117.838 253.048 119.055 252.992 120.28H255.146C255.146 120.28 255.005 117.835 254.48 116.937L252.169 116.769Z" fill="white" stroke="#263238" stroke-linecap="round" stroke-linejoin="round"/>
<path d="M313.922 122.143C313.922 122.143 320.481 121.465 320.481 120.612C320.481 119.76 320.986 104.962 320.143 103.089C319.301 101.216 313.418 99.5162 302.146 100.027C299.285 100.154 294.073 99.1742 294.073 99.1742C294.073 99.1742 290.077 100.43 287.554 100.43C285.031 100.43 280.49 99.4396 274.602 102.655C271.988 104.11 267.503 107.683 267.503 107.683L262.81 111.113L266.902 118.703L275.576 114.763C275.576 114.763 274.062 119.79 274.143 123.384C274.198 125.936 276.63 129.049 276.731 132.709C276.938 140.258 274.844 148.624 274.844 148.624C280.48 150.093 285.818 152.548 290.617 155.877C293.387 157.812 299.24 159.731 299.416 159.818C299.593 159.905 307.232 158.19 307.711 157.419C310.234 153.31 310.4 149.278 309.225 144.577L306.334 135.277L308.856 123.675L313.922 122.143Z" fill="#800000" stroke="#263238" stroke-linecap="round" stroke-linejoin="round"/>
<path d="M220.569 117.059L222.89 115.804C223.055 115.71 223.242 115.661 223.432 115.661C223.622 115.661 223.809 115.71 223.975 115.804C225.564 116.753 230.135 119.545 229.994 120.25C229.827 121.097 228.818 121.607 228.818 121.607L224.424 123.139L218.576 119.566C218.576 119.566 217.037 118.759 220.569 117.059Z" fill="white" stroke="#263238" stroke-linecap="round" stroke-linejoin="round"/>
<path d="M224.868 116.733C224.868 116.733 222.188 119.443 219.767 119.969" stroke="#263238" stroke-linecap="round" stroke-linejoin="round"/>
<path d="M227.042 117.958C227.042 117.958 224.519 120.755 221.85 121.281" stroke="#263238" stroke-linecap="round" stroke-linejoin="round"/>
<path d="M228.329 118.912C228.329 118.912 227.633 120.663 224.348 122.485" stroke="#263238" stroke-linecap="round" stroke-linejoin="round"/>
<path d="M262.704 122.317H225.534C224.745 122.317 224.106 122.964 224.106 123.761V131.081C224.106 131.879 224.745 132.525 225.534 132.525H262.704C263.493 132.525 264.132 131.879 264.132 131.081V123.761C264.132 122.964 263.493 122.317 262.704 122.317Z" fill="#BDBDBD" stroke="#263238" stroke-linecap="round" stroke-linejoin="round"/>
<path d="M262.704 122.317H235.968C235.179 122.317 234.54 122.964 234.54 123.761V131.081C234.54 131.879 235.179 132.525 235.968 132.525H262.704C263.493 132.525 264.132 131.879 264.132 131.081V123.761C264.132 122.964 263.493 122.317 262.704 122.317Z" fill="#263238" stroke="#263238" stroke-linecap="round" stroke-linejoin="round"/>
<path d="M220.261 151.809L219 151.421C218.651 151.315 218.282 151.295 217.924 151.363C217.566 151.43 217.229 151.583 216.941 151.809L182.379 179.143C182.005 179.437 181.732 179.842 181.598 180.3C181.463 180.759 181.473 181.249 181.627 181.702C181.781 182.155 182.071 182.547 182.456 182.825C182.842 183.103 183.303 183.252 183.776 183.252H250.252L283.417 151.835L220.261 151.809Z" fill="#BDBDBD" stroke="#263238" stroke-linecap="round" stroke-linejoin="round"/>
<path d="M280.662 140.126C277.024 137.982 268.239 136.297 268.239 136.297C268.239 136.297 242.507 129.09 239 129.243C235.494 129.397 207.188 155.153 206.734 155.301C206.28 155.449 204.917 156.066 204.917 156.066C204.917 156.066 202.339 156.219 197.036 152.539C191.733 148.859 188.555 144.725 186.889 146.414C185.224 148.104 186.738 156.225 189.917 162.508C193.096 168.791 197.944 172.313 198.706 172.619C199.468 172.926 206.885 167.26 208.247 166.183C209.61 165.106 219.761 158.828 224.898 156.378C230.034 153.928 238.243 147.496 239.454 146.256C240.081 145.61 240.739 144.996 241.427 144.418C241.427 144.418 259.147 151.008 264.299 151.467C265.041 151.534 265.858 151.656 266.716 151.809H283.427L281.07 154.04C282 154.036 282.928 153.944 283.84 153.764C289.749 152.539 284.3 142.275 280.662 140.126Z" fill="white" stroke="#263238" stroke-linecap="round" stroke-linejoin="round"/>
<path d="M280.662 140.126C277.024 137.982 268.239 136.297 268.239 136.297C268.239 136.297 242.507 129.09 239 129.243C236.846 129.34 225.18 139.232 216.487 146.797C219.746 147.818 224.958 150.258 226.679 155.444C231.755 152.585 238.375 147.348 239.454 146.256C240.081 145.61 240.739 144.996 241.427 144.418C241.427 144.418 259.147 151.008 264.299 151.467C265.041 151.534 265.858 151.656 266.716 151.809H283.427L281.07 154.04C282 154.036 282.928 153.944 283.84 153.764C289.749 152.539 284.3 142.275 280.662 140.126Z" fill="#263238" stroke="#263238" stroke-linecap="round" stroke-linejoin="round"/>
<path d="M200.301 166.469C197.959 164.687 194.054 156.771 194.054 156.771C194.054 156.771 195.028 154.219 195.028 152.621C195.002 151.949 194.852 151.287 194.584 150.671C190.744 147.608 188.302 144.99 186.915 146.394C185.245 148.078 186.763 156.204 189.942 162.487C193.121 168.771 197.97 172.293 198.731 172.599C199.14 172.767 201.486 171.195 203.777 169.536C202.685 168.439 201.524 167.414 200.301 166.469Z" fill="#263238" stroke="#263238" stroke-linecap="round" stroke-linejoin="round"/>
<path d="M189.917 162.503C192.707 168.01 196.774 171.394 198.247 172.354C197.717 171.333 196.91 169.802 195.825 167.867C193.015 162.683 190.828 157.177 189.311 151.467C188.025 146.496 187.293 146.19 187.011 146.307C186.967 146.337 186.926 146.371 186.889 146.409C185.219 148.093 186.738 156.219 189.917 162.503Z" fill="white" stroke="#263238" stroke-linecap="round" stroke-linejoin="round"/>
<path d="M308.317 141.703C306.737 140.314 301.157 139.273 298.488 138.911C291.051 136.43 280.712 133.847 277.327 131.852C271.872 128.631 265.969 130.167 263.542 132.924C261.115 135.68 249.303 150.089 245.06 155.454C242.59 158.608 239.741 161.439 236.578 163.881C236.578 163.881 231.275 162.503 227.94 160.048C224.605 157.592 220.372 153.305 218.399 155.607C216.426 157.909 222.94 169.092 224.454 171.849C225.968 174.605 229.373 180.863 230.509 181.036C233.385 181.496 240.201 173.069 242.779 171.685C245.358 170.302 252.179 163.728 259.147 159.746C265.404 156.173 272.331 148.098 272.331 148.098C273.903 149.483 275.592 150.726 277.377 151.814H283.432C282.761 152.437 297.731 159.302 301.212 159.236C305.794 160.073 309.21 156.459 310.007 154.045C311.006 151.095 311.98 144.913 308.317 141.703Z" fill="white" stroke="#263238" stroke-linecap="round" stroke-linejoin="round"/>
<path d="M218.399 155.607C216.426 157.904 222.94 169.092 224.454 171.849C225.968 174.605 229.373 180.863 230.509 181.036C231.936 181.266 234.343 179.296 236.715 177.091L227.224 164.284C227.617 163.593 227.943 162.865 228.198 162.11C228.313 161.767 228.349 161.401 228.303 161.042C228.256 160.683 228.129 160.339 227.93 160.037C224.61 157.597 220.367 153.305 218.399 155.607Z" fill="#263238" stroke="#263238" stroke-linecap="round" stroke-linejoin="round"/>
<path d="M310.027 154.06C311.006 151.095 311.98 144.913 308.317 141.703C306.737 140.314 301.157 139.273 298.488 138.911C291.051 136.43 280.712 133.847 277.327 131.852C271.872 128.631 265.969 130.167 263.542 132.924C261.524 135.215 253.042 145.536 247.79 152.044C250.378 151.784 256.367 152.095 258.754 159.976L259.147 159.741C265.404 156.168 272.331 148.093 272.331 148.093C273.903 149.478 275.592 150.721 277.377 151.809H283.432C282.761 152.437 297.731 159.302 301.212 159.236C305.814 160.088 309.23 156.475 310.027 154.06Z" fill="#263238" stroke="#263238" stroke-linecap="round" stroke-linejoin="round"/>
<path d="M272.331 148.093C274.057 145.758 275.529 143.24 276.721 140.585" stroke="#858585" stroke-linecap="round" stroke-linejoin="round"/>
<path d="M232.486 180.281C232.184 177.826 224.459 164.034 221.729 158.976C219.792 155.403 218.621 155.734 218.101 156.245C217.35 159.486 223.051 169.291 224.459 171.849C225.973 174.61 229.378 180.863 230.514 181.036C231.217 181.063 231.91 180.861 232.491 180.459C232.494 180.4 232.493 180.34 232.486 180.281Z" fill="white" stroke="#263238" stroke-linecap="round" stroke-linejoin="round"/>
<path d="M250.252 183.226C249.779 183.226 249.317 183.077 248.932 182.8C248.547 182.522 248.257 182.129 248.103 181.676C247.949 181.224 247.938 180.734 248.073 180.275C248.208 179.816 248.481 179.411 248.854 179.117L283.417 151.809C283.703 151.583 284.039 151.43 284.397 151.363C284.754 151.295 285.122 151.315 285.47 151.421L312.969 159.843C313.254 159.931 313.52 160.074 313.751 160.266C313.981 160.457 314.173 160.693 314.313 160.959C314.454 161.225 314.542 161.516 314.571 161.817C314.601 162.117 314.571 162.421 314.485 162.709C314.398 162.998 314.256 163.267 314.067 163.501C313.878 163.734 313.645 163.928 313.382 164.07C313.119 164.212 312.831 164.301 312.534 164.331C312.237 164.36 311.937 164.331 311.652 164.243L285.294 156.173L251.66 182.751C251.256 183.065 250.761 183.232 250.252 183.226Z" fill="#263238" stroke="#263238" stroke-linecap="round" stroke-linejoin="round"/>
<path d="M323.337 131.076L312.575 166.04" stroke="#263238" stroke-width="8" stroke-linecap="round" stroke-linejoin="round"/>
<path d="M313.08 164.085H279.945V196.329H313.08V164.085Z" fill="white" stroke="#263238" stroke-linecap="round" stroke-linejoin="round"/>
<path d="M281.577 209.966C282.321 206.764 280.358 203.558 277.192 202.805C274.026 202.053 270.857 204.039 270.113 207.242C269.369 210.444 271.333 213.651 274.499 214.403C277.664 215.155 280.834 213.169 281.577 209.966Z" fill="#263238" stroke="#263238" stroke-linecap="round" stroke-linejoin="round"/>
<path d="M279.299 208.579C279.299 209.274 279.095 209.954 278.714 210.533C278.332 211.111 277.789 211.562 277.153 211.828C276.518 212.094 275.819 212.164 275.145 212.028C274.47 211.892 273.851 211.557 273.365 211.066C272.879 210.574 272.547 209.947 272.413 209.265C272.279 208.583 272.348 207.876 272.611 207.233C272.874 206.59 273.32 206.041 273.892 205.655C274.463 205.268 275.135 205.062 275.823 205.062C276.745 205.062 277.629 205.433 278.281 206.092C278.933 206.752 279.299 207.646 279.299 208.579Z" fill="white" stroke="#263238" stroke-linecap="round" stroke-linejoin="round"/>
<path d="M269.864 199.534V203.051H275.823V208.579H278.058L282.034 203.051V199.534H269.864Z" fill="white" stroke="#263238" stroke-linecap="round" stroke-linejoin="round"/>
<path d="M335.407 210C336.197 206.809 334.28 203.574 331.126 202.775C327.971 201.975 324.774 203.914 323.984 207.106C323.194 210.297 325.11 213.532 328.265 214.331C331.42 215.13 334.617 213.191 335.407 210Z" fill="#263238" stroke="#263238" stroke-linecap="round" stroke-linejoin="round"/>
<path d="M333.191 208.579C333.191 209.274 332.987 209.954 332.605 210.533C332.223 211.111 331.68 211.562 331.045 211.828C330.41 212.094 329.711 212.164 329.037 212.028C328.362 211.892 327.743 211.557 327.257 211.066C326.771 210.574 326.439 209.947 326.305 209.265C326.171 208.583 326.24 207.876 326.503 207.233C326.766 206.59 327.212 206.041 327.783 205.655C328.355 205.268 329.027 205.062 329.715 205.062C330.636 205.063 331.52 205.434 332.172 206.094C332.823 206.753 333.19 207.647 333.191 208.579Z" fill="white" stroke="#263238" stroke-linecap="round" stroke-linejoin="round"/>
<path d="M323.756 199.534V203.051H329.715V208.579H331.95L335.921 203.051V199.534H323.756Z" fill="white" stroke="#263238" stroke-linecap="round" stroke-linejoin="round"/>
<path d="M299.172 210.014C299.956 206.821 298.033 203.59 294.877 202.797C291.72 202.004 288.526 203.949 287.742 207.142C286.959 210.335 288.881 213.566 292.038 214.359C295.194 215.152 298.388 213.207 299.172 210.014Z" fill="#263238" stroke="#263238" stroke-linecap="round" stroke-linejoin="round"/>
<path d="M296.934 208.579C296.934 209.274 296.73 209.954 296.348 210.533C295.966 211.111 295.423 211.562 294.788 211.828C294.152 212.094 293.453 212.164 292.779 212.028C292.105 211.892 291.485 211.557 290.999 211.066C290.513 210.574 290.182 209.947 290.048 209.265C289.913 208.583 289.982 207.876 290.245 207.233C290.509 206.59 290.954 206.041 291.526 205.655C292.098 205.268 292.77 205.062 293.457 205.062C294.379 205.063 295.262 205.434 295.914 206.094C296.566 206.753 296.932 207.647 296.934 208.579Z" fill="white" stroke="#263238" stroke-linecap="round" stroke-linejoin="round"/>
<path d="M287.498 199.534V203.051H293.457V208.579H295.692L299.663 203.051V199.534H287.498Z" fill="white" stroke="#263238" stroke-linecap="round" stroke-linejoin="round"/>
<path d="M225.695 209.959C226.439 206.756 224.475 203.55 221.309 202.798C218.144 202.045 214.974 204.032 214.231 207.234C213.487 210.437 215.45 213.643 218.616 214.395C221.782 215.148 224.951 213.161 225.695 209.959Z" fill="#263238" stroke="#263238" stroke-linecap="round" stroke-linejoin="round"/>
<path d="M223.425 208.579C223.425 209.274 223.221 209.954 222.839 210.533C222.457 211.111 221.914 211.562 221.279 211.828C220.643 212.094 219.944 212.164 219.27 212.028C218.596 211.892 217.976 211.557 217.49 211.066C217.004 210.574 216.673 209.947 216.539 209.265C216.404 208.583 216.473 207.876 216.736 207.233C216.999 206.59 217.445 206.041 218.017 205.655C218.588 205.268 219.261 205.062 219.948 205.062C220.87 205.063 221.753 205.434 222.405 206.094C223.057 206.753 223.423 207.647 223.425 208.579Z" fill="white" stroke="#263238" stroke-linecap="round" stroke-linejoin="round"/>
<path d="M213.984 199.534V203.051H219.948V208.579H222.183L226.154 203.051V199.534H213.984Z" fill="white" stroke="#263238" stroke-linecap="round" stroke-linejoin="round"/>
<path d="M339.483 195.645H268.845V200.07H339.483V195.645Z" fill="white" stroke="#263238" stroke-linecap="round" stroke-linejoin="round"/>
<path d="M337.465 195.645H266.827V200.07H337.465V195.645Z" fill="white" stroke="#263238" stroke-linecap="round" stroke-linejoin="round"/>
<path d="M317.954 195.645H268.845V200.07H317.954V195.645Z" fill="white" stroke="#263238" stroke-linecap="round" stroke-linejoin="round"/>
<path d="M281.625 195.645H210.987V200.07H281.625V195.645Z" fill="white" stroke="#263238" stroke-linecap="round" stroke-linejoin="round"/>
<path d="M278.598 195.645H207.96V200.07H278.598V195.645Z" fill="white" stroke="#263238" stroke-linecap="round" stroke-linejoin="round"/>
<path d="M321.909 122.317H295.334C294.546 122.317 293.906 122.964 293.906 123.761V131.081C293.906 131.879 294.546 132.525 295.334 132.525H321.909C322.698 132.525 323.337 131.879 323.337 131.081V123.761C323.337 122.964 322.698 122.317 321.909 122.317Z" fill="#BDBDBD" stroke="#263238" stroke-linecap="round" stroke-linejoin="round"/>
<path d="M326.955 122.317H303.004C302.215 122.317 301.576 122.964 301.576 123.761V131.081C301.576 131.879 302.215 132.525 303.004 132.525H326.955C327.744 132.525 328.383 131.879 328.383 131.081V123.761C328.383 122.964 327.744 122.317 326.955 122.317Z" fill="#263238" stroke="#263238" stroke-linecap="round" stroke-linejoin="round"/>
<path d="M309.043 104.11L308.372 115.171C308.372 115.171 295.758 118.233 294.916 119.081C294.073 119.928 288.018 127.758 287.685 128.268C287.352 128.779 288.694 130.821 289.365 131.331C290.036 131.841 291.888 133.373 292.897 132.862C293.906 132.352 296.263 131.331 296.263 130.821C296.263 130.31 294.749 129.973 294.749 129.973L299.118 122.143H318.796C318.796 122.143 320.648 121.296 320.648 119.423C320.648 117.55 320.451 111.935 320.451 111.935L320.532 106.831" fill="#800000"/>
<path d="M309.043 104.11L308.372 115.171C308.372 115.171 295.758 118.233 294.916 119.081C294.073 119.928 288.018 127.758 287.685 128.268C287.352 128.779 288.694 130.821 289.365 131.331C290.036 131.841 291.888 133.373 292.897 132.862C293.906 132.352 296.263 131.331 296.263 130.821C296.263 130.31 294.749 129.973 294.749 129.973L299.118 122.143H318.796C318.796 122.143 320.648 121.296 320.648 119.423C320.648 117.55 320.451 111.935 320.451 111.935L320.532 106.831" stroke="#263238" stroke-linecap="round" stroke-linejoin="round"/>
<path d="M318.796 122.143C318.796 122.143 320.648 121.296 320.648 119.423C320.648 118.131 320.895 114.712 320.648 113.129C315.769 110.414 310.89 112.205 308.478 113.359L308.367 115.171C308.367 115.171 295.753 118.233 294.915 119.081C294.078 119.928 288.018 127.758 287.68 128.268C287.342 128.779 288.689 130.821 289.365 131.331C290.041 131.841 291.888 133.373 292.897 132.862C293.906 132.352 296.258 131.331 296.258 130.821C296.258 130.31 294.744 129.973 294.744 129.973L299.118 122.143H318.796Z" fill="white" stroke="#263238" stroke-linecap="round" stroke-linejoin="round"/>
<path d="M288.523 128.952L290.208 131.673" stroke="#263238" stroke-linecap="round" stroke-linejoin="round"/>
<path d="M290.374 129.631L292.897 132.862" stroke="#263238" stroke-linecap="round" stroke-linejoin="round"/>
<path d="M294.744 129.973L293.568 131.673" stroke="#263238" stroke-linecap="round" stroke-linejoin="round"/>
<path d="M298.341 76.889H313.322C313.642 76.8888 313.959 76.9566 314.252 77.0881C314.545 77.2196 314.808 77.4118 315.023 77.6524C315.238 77.8929 315.4 78.1764 315.5 78.4845C315.6 78.7927 315.635 79.1186 315.602 79.4412L314.053 94.8764C313.997 95.4421 313.737 95.9671 313.323 96.3519C312.909 96.7367 312.37 96.9545 311.808 96.9641H296.015C295.685 96.9641 295.358 96.892 295.058 96.7526C294.757 96.6132 294.49 96.4098 294.275 96.1564C294.059 95.9029 293.9 95.6053 293.809 95.284C293.717 94.9627 293.696 94.6252 293.745 94.2945L296.076 78.8593C296.159 78.3114 296.433 77.8117 296.849 77.4504C297.264 77.089 297.794 76.8899 298.341 76.889Z" fill="white" stroke="#263238" stroke-linecap="round" stroke-linejoin="round"/>
<path d="M287.937 74.6023C287.937 74.6023 286.358 76.9962 286.358 78.7266C286.358 80.4569 286.863 82.5854 286.358 84.0503C285.854 85.5152 283.598 85.9134 284.123 86.8423C284.561 87.5348 285.093 88.1619 285.702 88.7054C285.702 88.7054 286.752 94.9581 287.408 95.4941C288.064 96.03 293.195 95.3613 293.195 95.3613L291.222 100.027C291.222 100.027 286.752 107.346 286.883 113.466C288.002 112.703 289.058 111.849 290.041 110.914C291.752 109.321 302.01 101.216 303.195 100.802C304.381 100.389 305.824 99.2049 303.064 88.5523C300.304 77.8997 294.774 73.6529 292.277 72.9843C289.779 72.3156 287.937 74.6023 287.937 74.6023Z" fill="white" stroke="#263238" stroke-linecap="round" stroke-linejoin="round"/>
<path d="M287.034 89.8947C287.034 89.8947 288.659 90.5787 290.829 89.2107" stroke="#263238" stroke-linecap="round" stroke-linejoin="round"/>
<path d="M290.001 83.3204C290.001 83.8308 289.824 84.2902 289.562 84.3004C289.3 84.3106 289.058 83.887 289.058 83.3561C289.058 82.8253 289.234 82.3914 289.497 82.3812C289.759 82.371 289.981 82.7896 290.001 83.3204Z" fill="#263238"/>
<path d="M287.958 80.9775C287.958 80.9775 289.582 79.4462 291.212 80.9775" stroke="#263238" stroke-linecap="round" stroke-linejoin="round"/>
<path d="M315.905 94.6978C315.905 94.6978 316.092 96.5965 313.463 95.836C312.005 95.4123 311.949 93.2839 312.166 91.4872C312.222 91.3494 312.282 91.2166 312.343 91.0941C313.604 88.542 316.379 82.861 313.352 76.889C310.325 70.917 304.497 66.0629 299.956 66.3385C296.928 66.5773 293.951 67.2652 291.121 68.3802C291.121 68.3802 285.066 68.125 284.562 71.1875C284.3 72.7903 285.213 74.0459 286.141 74.8779C286.752 75.436 287.554 75.7324 288.376 75.7048C289.394 75.7123 290.409 75.8252 291.404 76.0417C291.404 76.0417 291.908 79.8393 291.984 80.0945C292.867 83.4071 294.956 85.602 297.423 87.613C297.795 88.1017 298.092 88.6436 298.306 89.2209C299.623 92.6305 296.247 96.9947 295.869 100.598C295.491 104.202 299.245 102.875 299.81 105.34C300.375 107.805 297.373 107.994 297.373 107.994C297.373 107.994 298.306 111.409 301.873 109.704C304.618 108.387 305.022 104.707 304.462 101.782C305.232 101.751 305.997 101.647 306.747 101.471C309.936 104.263 312.913 102.645 315.184 101.17C317.777 99.4396 315.905 94.6978 315.905 94.6978Z" fill="#263238" stroke="#263238" stroke-linecap="round" stroke-linejoin="round"/>
<path d="M86.447 18.629H84.4288V210.039H86.447V18.629Z" fill="white" stroke="#263238" stroke-linecap="round" stroke-linejoin="round"/>
<path d="M96.7804 209.967H73.9188V211.294H96.7804V209.967Z" fill="white" stroke="#263238" stroke-linecap="round" stroke-linejoin="round"/>
<path d="M97.1184 212.892C97.1184 212.568 97.0234 212.251 96.8455 211.982C96.6675 211.712 96.4145 211.502 96.1186 211.378C95.8226 211.254 95.497 211.222 95.1828 211.285C94.8686 211.348 94.58 211.504 94.3535 211.733C94.127 211.962 93.9728 212.254 93.9103 212.572C93.8478 212.89 93.8799 213.22 94.0024 213.519C94.125 213.818 94.3326 214.074 94.599 214.254C94.8653 214.434 95.1784 214.53 95.4988 214.53C95.9283 214.53 96.3403 214.358 96.644 214.05C96.9478 213.743 97.1184 213.326 97.1184 212.892Z" fill="#263238" stroke="#263238" stroke-linecap="round" stroke-linejoin="round"/>
<path d="M76.941 212.892C76.941 212.568 76.8461 212.251 76.6681 211.982C76.4901 211.712 76.2372 211.502 75.9412 211.378C75.6453 211.254 75.3196 211.222 75.0054 211.285C74.6913 211.348 74.4027 211.504 74.1762 211.733C73.9497 211.962 73.7954 212.254 73.7329 212.572C73.6704 212.89 73.7025 213.22 73.8251 213.519C73.9477 213.818 74.1552 214.074 74.4216 214.254C74.6879 214.434 75.0011 214.53 75.3214 214.53C75.751 214.53 76.1629 214.358 76.4667 214.05C76.7704 213.743 76.941 213.326 76.941 212.892Z" fill="#263238" stroke="#263238" stroke-linecap="round" stroke-linejoin="round"/>
<path d="M66.9357 19.0374V19.5478C66.9357 20.4043 67.2714 21.2259 67.8691 21.8325C68.4668 22.4391 69.2779 22.7812 70.1245 22.7839H70.8007C71.2205 22.7839 71.6362 22.7002 72.0241 22.5375C72.4119 22.3748 72.7642 22.1363 73.0608 21.8358C73.3575 21.5352 73.5926 21.1784 73.7528 20.7858C73.913 20.3932 73.9952 19.9726 73.9945 19.5478V19.0374H97.2042V19.8898C97.2042 20.7467 97.5407 21.5685 98.1397 22.1745C98.7386 22.7804 99.551 23.1208 100.398 23.1208C100.818 23.1221 101.235 23.0396 101.623 22.8778C102.012 22.716 102.365 22.4782 102.663 22.1781C102.961 21.8779 103.197 21.5213 103.358 21.1286C103.519 20.736 103.602 20.315 103.602 19.8898V19.3794" stroke="#263238" stroke-width="3" stroke-linecap="round" stroke-linejoin="round"/>
<path d="M100.852 51.1534V123.037" stroke="#263238" stroke-width="2" stroke-linecap="round" stroke-linejoin="round"/>
<path d="M102.684 21.8805C102.266 21.4807 101.715 21.2533 101.14 21.2429C100.565 21.2325 100.007 21.4399 99.5756 21.8243C98.5009 22.7839 97.1335 24.0038 96.2808 24.7542C94.7217 26.1323 93.9447 26.7244 93.9447 26.7244H107.775L102.684 21.8805Z" fill="white" stroke="#263238" stroke-linecap="round" stroke-linejoin="round"/>
<path d="M93.9448 26.7244H107.79V44.1554C107.79 44.8106 107.533 45.439 107.075 45.9023C106.617 46.3656 105.995 46.6259 105.348 46.6259H96.3616C95.7139 46.6259 95.0928 46.3656 94.6348 45.9023C94.1768 45.439 93.9196 44.8106 93.9196 44.1554V26.7244H93.9448Z" fill="white" stroke="#263238" stroke-linecap="round" stroke-linejoin="round"/>
<path d="M94.6006 35.4578H107.124V43.2111C107.124 43.5356 107.061 43.8568 106.938 44.1565C106.815 44.4563 106.635 44.7286 106.409 44.958C106.182 45.1874 105.913 45.3694 105.616 45.4936C105.32 45.6177 105.002 45.6816 104.682 45.6816H97.0427C96.395 45.6816 95.7739 45.4213 95.3159 44.958C94.8579 44.4947 94.6006 43.8664 94.6006 43.2111V35.4578Z" fill="#800000" stroke="#263238" stroke-linecap="round" stroke-linejoin="round"/>
<path d="M101.75 46.6871H99.9843V51.0257H101.75V46.6871Z" fill="#800000" stroke="#263238" stroke-linecap="round" stroke-linejoin="round"/>
<path d="M106.266 28.1689H95.5391V44.2014H106.266V28.1689Z" fill="white" stroke="#263238" stroke-linecap="round" stroke-linejoin="round"/>
<path d="M101.614 22.8809C102.202 22.6385 102.705 22.2246 103.059 21.6918C103.413 21.1591 103.602 20.5318 103.602 19.8898V19.3794" fill="white"/>
<path d="M101.614 22.8809C102.202 22.6385 102.705 22.2246 103.059 21.6918C103.413 21.1591 103.602 20.5318 103.602 19.8898V19.3794" stroke="#263238" stroke-width="3" stroke-linecap="round" stroke-linejoin="round"/>
<path d="M29.4168 196.329H101.569V164.085H29.4168V196.329Z" fill="white" stroke="#263238" stroke-linecap="round" stroke-linejoin="round"/>
<path d="M80.3772 182.716C80.3772 184.596 81.8828 186.12 83.7401 186.12C85.5973 186.12 87.103 184.596 87.103 182.716V166.387C87.103 164.507 85.5973 162.983 83.7401 162.983C81.8828 162.983 80.3772 164.507 80.3772 166.387V182.716Z" fill="#263238" stroke="#263238" stroke-linecap="round" stroke-linejoin="round"/>
<path d="M82.0573 131.076L92.8195 166.04" stroke="#263238" stroke-width="8" stroke-linecap="round" stroke-linejoin="round"/>
<path d="M20.8494 74.2501H50.8C51.3601 74.249 51.9118 74.3882 52.4057 74.6554C52.8997 74.9227 53.3205 75.3095 53.6305 75.7814C57.7831 82.1617 73.3386 106.152 72.9753 107.683C72.5515 109.469 78.8585 162.043 78.8585 162.043H28.1503L9.62798 109.24C9.0431 107.736 8.97206 106.078 9.42616 104.529L17.5899 76.7053C17.7996 75.9956 18.23 75.3734 18.8173 74.931C19.4045 74.4887 20.1172 74.2499 20.8494 74.2501Z" fill="#263238" stroke="#263238" stroke-linecap="round" stroke-linejoin="round"/>
<path d="M22.8676 74.2501H52.8182C53.3783 74.249 53.93 74.3882 54.424 74.6554C54.9179 74.9227 55.3387 75.3095 55.6488 75.7814C59.8013 82.1617 75.3568 106.152 74.9936 107.683C74.5697 109.469 80.8767 162.043 80.8767 162.043H30.1686L11.6462 109.24C11.0613 107.736 10.9903 106.078 11.4444 104.529L19.6082 76.7053C19.8178 75.9956 20.2483 75.3734 20.8355 74.931C21.4228 74.4887 22.1355 74.2499 22.8676 74.2501Z" fill="#BDBDBD" stroke="#263238" stroke-linecap="round" stroke-linejoin="round"/>
<path d="M40.729 76.889H25.7234C25.4029 76.8888 25.0859 76.9566 24.7929 77.0881C24.4999 77.2196 24.2374 77.4118 24.0224 77.6524C23.8075 77.8929 23.6448 78.1764 23.545 78.4845C23.4451 78.7927 23.4103 79.1186 23.4428 79.4412L24.9918 94.8764C25.0494 95.4499 25.3158 95.9813 25.7392 96.3671C26.1626 96.753 26.7127 96.9658 27.2825 96.9641H43.055C43.3855 96.9641 43.7122 96.892 44.0126 96.7526C44.3131 96.6132 44.5802 96.4098 44.7958 96.1564C45.0114 95.9029 45.1703 95.6053 45.2617 95.284C45.3532 94.9627 45.3749 94.6252 45.3255 94.2945L42.9995 78.8593C42.9163 78.3105 42.6415 77.8101 42.225 77.4487C41.8085 77.0873 41.2778 76.8887 40.729 76.889Z" fill="white" stroke="#263238" stroke-linecap="round" stroke-linejoin="round"/>
<path d="M29.4117 164.085H82.6426L59.0646 151.809L29.4117 164.085Z" fill="#263238" stroke="#263238" stroke-linecap="round" stroke-linejoin="round"/>
<path d="M48.4285 99.1742C48.4285 99.1742 59.6953 100.369 62.2181 100.369C64.7409 100.369 67.2637 100.027 69.282 102.237C71.3002 104.447 74.9936 107.683 74.9936 107.683L85.9223 115.681C85.9223 115.681 100.726 116.871 104.086 116.871C106.57 116.818 109.046 116.591 111.498 116.192C111.498 116.192 115.368 113.977 117.72 113.466C120.071 112.956 123.103 114.15 124.112 114.829C125.121 115.508 127.306 115.681 127.478 116.702C127.649 117.723 125.793 118.06 125.121 118.06C124.151 117.912 123.195 117.685 122.261 117.381C122.261 117.381 123.946 118.402 123.774 119.254C123.603 120.107 118.224 122.996 117.387 122.996C116.549 122.996 113.012 122.317 113.012 122.317C113.012 122.317 100.398 122.485 95.8571 122.485H82.8949L68.1063 114.829C68.1063 114.829 69.1155 128.1 69.1155 128.779C69.1155 129.458 71.6382 136.946 71.6382 136.946C71.6382 136.946 49.4377 146.644 48.7666 146.986C48.0955 147.328 44.3921 150.559 44.3921 150.559C44.3921 150.559 39.6845 141.713 38.8419 139.671C37.9993 137.63 33.6298 123.675 33.6298 123.675L28.5843 122.143C28.5843 122.143 22.025 121.465 22.025 120.612C22.025 119.76 21.5204 104.962 22.358 103.089C23.1956 101.216 29.0888 99.5162 40.3556 100.027C43.2064 100.154 48.4285 99.1742 48.4285 99.1742Z" fill="white" stroke="#263238" stroke-linecap="round" stroke-linejoin="round"/>
<path d="M111.887 115.891C111.819 115.793 111.719 115.722 111.604 115.692C106.337 114.446 104.036 115.528 100.918 117.024C100.388 117.274 99.8329 117.534 99.2275 117.805C95.3121 119.55 90.1908 118.131 90.1454 118.116C90.0815 118.098 90.0147 118.093 89.9487 118.101C89.8828 118.109 89.8191 118.13 89.7612 118.163C89.6444 118.229 89.5584 118.34 89.5223 118.471C89.4862 118.601 89.5028 118.741 89.5686 118.86C89.6343 118.978 89.7438 119.065 89.873 119.101C91.4099 119.497 92.9894 119.7 94.5755 119.704C96.3042 119.733 98.0209 119.406 99.621 118.744C100.232 118.468 100.792 118.203 101.331 117.948C104.147 116.605 106.095 115.692 110.197 116.447C110.777 116.32 111.343 116.133 111.887 115.891Z" fill="#263238"/>
<path d="M90.8115 116.769C90.2154 117.837 89.9286 119.054 89.984 120.28H87.8346C87.8346 120.28 87.9759 117.835 88.4956 116.937L90.8115 116.769Z" fill="white" stroke="#263238" stroke-linecap="round" stroke-linejoin="round"/>
<path d="M28.5741 122.143C28.5741 122.143 22.0149 121.465 22.0149 120.612C22.0149 119.76 21.5103 104.962 22.3479 103.089C23.1854 101.216 29.0787 99.5162 40.3455 100.027C43.2063 100.154 48.4184 99.1742 48.4184 99.1742C48.4184 99.1742 59.6852 100.369 62.208 100.369C64.7308 100.369 67.2536 100.027 69.2718 102.237C71.29 104.447 74.9935 107.683 74.9935 107.683L79.6809 111.113L75.5838 118.703L68.1063 114.829C68.1063 114.829 69.1154 128.1 69.1154 128.779C69.1154 129.458 71.6382 136.946 71.6382 136.946C71.6382 136.946 49.4376 146.644 48.7666 146.986C48.0955 147.328 44.392 150.559 44.392 150.559C44.392 150.559 39.6845 141.713 38.8419 139.671C37.9993 137.63 33.6298 123.675 33.6298 123.675L28.5741 122.143Z" fill="#263238" stroke="#263238" stroke-linecap="round" stroke-linejoin="round"/>
<path d="M50.2904 73.3314C50.7949 74.4952 51.4711 77.3433 51.9151 78.5428C52.7526 80.8142 51.9756 81.2889 52.5912 83.4735C52.5912 83.4735 56.1231 85.8062 55.5731 86.4902C55.0231 87.1741 53.9484 88.9606 53.9484 88.9606C53.9484 88.9606 53.9484 96.617 53.4035 97.0458C52.8586 97.4745 49.0694 97.0458 49.0694 97.0458L50.0179 100.062C50.0179 100.062 54.0847 102.941 53.9484 107.331C53.8122 111.72 45.8149 108.974 42.8481 107.193C39.8813 105.412 37.5604 100.614 37.5604 100.614C37.6967 99.4758 37.7422 98.3288 37.6966 97.1836C37.5604 96.224 35.9357 92.799 35.9357 92.799C35.9357 92.799 30.6378 86.7556 30.0979 83.1826C29.5581 79.6096 32.2827 75.5262 36.7379 72.923C41.1932 70.3199 48.9331 71.8256 50.2904 73.3314Z" fill="white" stroke="#263238" stroke-linecap="round" stroke-linejoin="round"/>
<path d="M49.3064 69.498C50.8201 70.0697 51.9452 70.9425 51.6425 72.2339C51.4848 72.8959 51.125 73.4909 50.6142 73.9343C50.1034 74.3778 49.4675 74.6472 48.7968 74.7044C48.7968 74.7044 40.5321 75.5262 40.5321 76.6236C40.5321 77.721 43.7865 79.7729 43.2416 80.5998C42.7975 81.1349 42.167 81.4767 41.4807 81.5543C41.4807 81.5543 42.4293 84.4331 41.2082 84.8465C39.9872 85.26 39.9922 84.4331 39.19 83.8869C38.3877 83.3408 35.8044 84.0247 35.8044 86.9035C35.8044 89.7824 39.3363 90.6041 39.3363 90.6041L36.6268 93.4829C36.6268 93.4829 32.7871 89.6445 30.3703 87.4497C27.9535 85.2549 26.1673 80.0485 28.6094 75.2505C31.0515 70.4525 40.2597 68.6712 42.9742 68.5333C45.123 68.5001 47.2625 68.8261 49.3064 69.498Z" fill="#263238" stroke="#263238" stroke-linecap="round" stroke-linejoin="round"/>
<path d="M53.136 90.4664C53.136 90.4664 51.5063 91.1503 49.3417 89.7824" stroke="#263238" stroke-linecap="round" stroke-linejoin="round"/>
<path d="M49.0744 83.4225C49.1702 83.9329 49.4528 84.3311 49.7101 84.2851C49.9674 84.2392 50.1037 83.7747 50.0078 83.2643C49.9119 82.7539 49.6344 82.3557 49.3771 82.4068C49.1198 82.4578 48.9835 82.9019 49.0744 83.4225Z" fill="#263238"/>
<path d="M50.5577 80.462C50.5577 80.462 48.933 78.9307 47.3083 80.462" stroke="#263238" stroke-linecap="round" stroke-linejoin="round"/>
<path d="M53.4034 97.0457C53.4034 97.0457 49.367 96.4996 48.1207 96.0861C46.8745 95.6727 43.1054 94.4426 43.1054 94.4426L49.3418 98.281L49.0693 97.0457C49.0693 97.0457 52.465 97.7348 53.4034 97.0457Z" fill="#263238" stroke="#263238" stroke-linecap="round" stroke-linejoin="round"/>
<path d="M122.599 117.254L120.732 116.161C120.44 115.987 120.107 115.895 119.768 115.895C119.429 115.895 119.096 115.987 118.804 116.161C116.948 117.279 113.083 119.704 113.209 120.352C113.366 120.878 113.717 121.323 114.188 121.597C114.3 121.668 114.42 121.726 114.546 121.771L117.25 122.766C117.512 122.862 117.791 122.9 118.068 122.875C118.345 122.85 118.614 122.764 118.855 122.623L124.476 119.331C124.476 119.331 125.575 118.31 123.91 117.749C123.463 117.612 123.025 117.446 122.599 117.254Z" fill="white" stroke="#263238" stroke-linecap="round" stroke-linejoin="round"/>
<path d="M117.578 117.06C117.578 117.06 120.263 119.77 122.684 120.296" stroke="#263238" stroke-linecap="round" stroke-linejoin="round"/>
<path d="M115.419 118.285C115.419 118.285 117.942 121.082 120.606 121.607" stroke="#263238" stroke-linecap="round" stroke-linejoin="round"/>
<path d="M114.122 119.249C114.122 119.249 114.813 120.995 118.098 122.822" stroke="#263238" stroke-linecap="round" stroke-linejoin="round"/>
<path d="M79.7868 132.52H116.958C117.746 132.52 118.386 131.874 118.386 131.076V123.756C118.386 122.959 117.746 122.312 116.958 122.312H79.7868C78.9982 122.312 78.3589 122.959 78.3589 123.756V131.076C78.3589 131.874 78.9982 132.52 79.7868 132.52Z" fill="#BDBDBD" stroke="#263238" stroke-linecap="round" stroke-linejoin="round"/>
<path d="M79.7868 132.52H106.523C107.312 132.52 107.951 131.874 107.951 131.076V123.756C107.951 122.959 107.312 122.312 106.523 122.312H79.7868C78.9982 122.312 78.3589 122.959 78.3589 123.756V131.076C78.3589 131.874 78.9982 132.52 79.7868 132.52Z" fill="#263238" stroke="#263238" stroke-linecap="round" stroke-linejoin="round"/>
<path d="M122.23 151.809L123.497 151.421C123.845 151.315 124.213 151.295 124.57 151.363C124.927 151.43 125.264 151.583 125.55 151.809L160.113 179.117C160.486 179.411 160.759 179.816 160.894 180.275C161.029 180.734 161.018 181.224 160.864 181.676C160.71 182.129 160.42 182.522 160.035 182.8C159.65 183.077 159.188 183.226 158.715 183.226H92.2293L59.0646 151.809H122.23Z" fill="#BDBDBD" stroke="#263238" stroke-linecap="round" stroke-linejoin="round"/>
<path d="M61.8296 140.126C65.4675 137.982 74.2518 136.297 74.2518 136.297C74.2518 136.297 99.9843 129.09 103.491 129.243C106.998 129.397 135.303 155.148 135.758 155.301C136.212 155.454 137.579 156.066 137.579 156.066C137.579 156.066 140.152 156.219 145.455 152.539C150.758 148.859 153.937 144.725 155.602 146.414C157.267 148.104 155.753 156.225 152.574 162.508C149.396 168.791 144.547 172.308 143.79 172.614C143.033 172.921 135.606 167.255 134.244 166.178C132.882 165.101 122.73 158.823 117.593 156.373C112.457 153.923 104.248 147.496 103.037 146.256C101.826 145.016 101.069 144.418 101.069 144.418C101.069 144.418 83.344 151.008 78.1975 151.467C77.4558 151.534 76.6384 151.656 75.7807 151.809H59.0646L61.4209 154.04C60.4911 154.036 59.5636 153.944 58.6509 153.764C52.7425 152.539 58.1968 142.275 61.8296 140.126Z" fill="#800000" stroke="#263238" stroke-linecap="round" stroke-linejoin="round"/>
<path d="M134.123 166.091C135.132 164.769 136.449 162.972 136.817 162.518C137.428 161.752 136.817 158.838 137.12 157C137.166 156.64 137.347 156.312 137.624 156.082C138.138 156.061 138.647 155.973 139.138 155.821C139.283 155.847 139.427 155.883 139.567 155.928L139.643 155.663C141.721 154.908 143.684 153.862 145.475 152.555C150.778 148.879 153.957 144.74 155.622 146.429C157.287 148.119 155.773 156.24 152.595 162.523C149.416 168.806 144.547 172.308 143.79 172.614C143.033 172.921 135.606 167.255 134.244 166.178L134.123 166.091Z" fill="white" stroke="#263238" stroke-linecap="round" stroke-linejoin="round"/>
<path d="M152.574 162.503C149.784 168.01 145.722 171.394 144.244 172.354C144.779 171.333 145.581 169.802 146.666 167.867C149.476 162.683 151.663 157.177 153.18 151.467C154.466 146.496 155.198 146.19 155.486 146.307L155.602 146.409C157.272 148.093 155.753 156.219 152.574 162.503Z" fill="#263238" stroke="#263238" stroke-linecap="round" stroke-linejoin="round"/>
<path d="M42.4294 146.817C42.4294 146.782 42.4294 146.751 42.4294 146.715C42.7321 143.346 59.7004 135.067 65.1345 131.852C70.5686 128.636 76.4971 130.167 78.919 132.924C81.3409 135.68 93.1577 150.089 97.401 155.454C99.871 158.608 102.72 161.439 105.883 163.881C105.883 163.881 111.186 162.503 114.521 160.048C117.856 157.592 122.089 153.305 124.062 155.607C126.035 157.909 119.521 169.092 118.007 171.849C116.494 174.605 113.088 180.863 111.952 181.036C109.076 181.496 102.26 173.069 99.6816 171.685C97.1033 170.302 90.3069 163.728 83.344 159.746C77.0875 156.173 70.1649 148.098 70.1649 148.098C68.5922 149.482 66.9041 150.725 65.1194 151.814H59.0647L61.1737 153.815C60.7902 153.963 60.4017 154.106 60.0132 154.229C57.4551 155.045 55.6791 155.331 53.1361 155.928C47.4548 157.266 41.9803 152.703 42.4294 146.817Z" fill="#800000" stroke="#263238" stroke-linecap="round" stroke-linejoin="round"/>
<path d="M70.1649 148.093C68.4364 145.758 66.963 143.241 65.7701 140.585L70.1649 148.093Z" fill="white"/>
<path d="M70.1649 148.093C68.4364 145.758 66.963 143.241 65.7701 140.585" stroke="#263238" stroke-linecap="round" stroke-linejoin="round"/>
<path d="M124.112 155.607C126.085 157.904 119.571 169.092 118.058 171.849C116.544 174.605 113.138 180.863 112.003 181.036C109.808 181.388 105.317 176.56 102.164 173.64C101.929 172.442 101.876 171.215 102.008 170.001C102.462 166.168 105.943 163.876 105.943 163.876C105.943 163.876 111.246 162.498 114.581 160.042C117.916 157.587 122.124 153.305 124.112 155.607Z" fill="white" stroke="#263238" stroke-linecap="round" stroke-linejoin="round"/>
<path d="M109.985 180.281C110.287 177.826 118.012 164.034 120.742 158.976C122.679 155.403 123.855 155.734 124.37 156.245C125.121 159.486 119.42 169.291 118.012 171.849C116.499 174.61 113.093 180.863 111.958 181.036C111.257 181.065 110.566 180.866 109.985 180.47C109.98 180.407 109.98 180.344 109.985 180.281Z" fill="#263238" stroke="#263238" stroke-linecap="round" stroke-linejoin="round"/>
<path d="M92.2292 183.226C92.7024 183.226 93.1639 183.077 93.5492 182.8C93.9346 182.522 94.2245 182.129 94.3785 181.676C94.5324 181.224 94.5428 180.734 94.408 180.275C94.2732 179.816 94.0001 179.411 93.6268 179.117L59.0646 151.809C58.7778 151.583 58.4417 151.43 58.0844 151.363C57.7271 151.295 57.359 151.315 57.011 151.421L29.5126 159.843C28.9358 160.02 28.4521 160.421 28.1677 160.959C27.8834 161.496 27.8217 162.126 27.9964 162.709C28.171 163.293 28.5676 163.782 29.0989 164.07C29.6302 164.358 30.2527 164.42 30.8295 164.243L57.1977 156.173L90.8114 182.741C91.2164 183.06 91.7161 183.231 92.2292 183.226Z" fill="#263238" stroke="#263238" stroke-linecap="round" stroke-linejoin="round"/>
<path d="M19.154 131.076L29.9162 166.04" stroke="#263238" stroke-width="8" stroke-linecap="round" stroke-linejoin="round"/>
<path d="M70.8332 212.788C73.1327 210.462 73.1327 206.69 70.8332 204.364C68.5337 202.038 64.8055 202.038 62.5061 204.364C60.2066 206.69 60.2066 210.462 62.5061 212.788C64.8055 215.114 68.5337 215.114 70.8332 212.788Z" fill="#263238" stroke="#263238" stroke-linecap="round" stroke-linejoin="round"/>
<path d="M63.1919 208.579C63.1919 209.274 63.3958 209.954 63.7778 210.533C64.1598 211.111 64.7027 211.562 65.3379 211.828C65.9732 212.094 66.6722 212.164 67.3465 212.028C68.0209 211.892 68.6403 211.557 69.1265 211.066C69.6127 210.574 69.9438 209.947 70.0779 209.265C70.2121 208.583 70.1432 207.876 69.8801 207.233C69.617 206.59 69.1714 206.041 68.5997 205.655C68.028 205.268 67.3559 205.062 66.6683 205.062C65.7463 205.062 64.8621 205.433 64.2101 206.092C63.5582 206.752 63.1919 207.646 63.1919 208.579Z" fill="white" stroke="#263238" stroke-linecap="round" stroke-linejoin="round"/>
<path d="M72.6272 199.534V203.051H66.6683V208.579H64.4331L60.4572 203.051V199.534H72.6272Z" fill="white" stroke="#263238" stroke-linecap="round" stroke-linejoin="round"/>
<path d="M18.2166 210.858C19.4611 207.819 18.0344 204.334 15.0299 203.075C12.0255 201.816 8.5811 203.26 7.33663 206.299C6.09216 209.338 7.51888 212.823 10.5233 214.082C13.5277 215.341 16.9721 213.898 18.2166 210.858Z" fill="#263238" stroke="#263238" stroke-linecap="round" stroke-linejoin="round"/>
<path d="M9.30005 208.579C9.30005 209.274 9.50394 209.954 9.88593 210.533C10.2679 211.111 10.8109 211.562 11.4461 211.828C12.0813 212.094 12.7803 212.164 13.4547 212.028C14.129 211.892 14.7485 211.557 15.2347 211.066C15.7208 210.574 16.0519 209.947 16.1861 209.265C16.3202 208.583 16.2514 207.876 15.9882 207.233C15.7251 206.59 15.2795 206.041 14.7078 205.655C14.1362 205.268 13.464 205.062 12.7765 205.062C11.8549 205.063 10.9714 205.434 10.3197 206.094C9.66807 206.753 9.30138 207.647 9.30005 208.579Z" fill="white" stroke="#263238" stroke-linecap="round" stroke-linejoin="round"/>
<path d="M18.7403 199.534V203.051H12.7764V208.579H10.5412L6.57031 203.051V199.534H18.7403Z" fill="white" stroke="#263238" stroke-linecap="round" stroke-linejoin="round"/>
<path d="M53.5987 212.338C55.6602 209.794 55.2925 206.041 52.7775 203.955C50.2624 201.87 46.5524 202.242 44.4909 204.786C42.4294 207.33 42.7971 211.084 45.3122 213.169C47.8272 215.254 51.5372 214.882 53.5987 212.338Z" fill="#263238" stroke="#263238" stroke-linecap="round" stroke-linejoin="round"/>
<path d="M45.5576 208.579C45.5576 209.274 45.7614 209.954 46.1434 210.533C46.5254 211.111 47.0684 211.562 47.7036 211.828C48.3388 212.094 49.0378 212.164 49.7122 212.028C50.3865 211.892 51.006 211.557 51.4922 211.066C51.9783 210.574 52.3094 209.947 52.4436 209.265C52.5777 208.583 52.5089 207.876 52.2457 207.233C51.9826 206.59 51.537 206.041 50.9654 205.655C50.3937 205.268 49.7215 205.062 49.034 205.062C48.1124 205.063 47.2289 205.434 46.5772 206.094C45.9256 206.753 45.5589 207.647 45.5576 208.579Z" fill="white" stroke="#263238" stroke-linecap="round" stroke-linejoin="round"/>
<path d="M54.998 199.534V203.051H49.0341V208.579H46.7989L42.828 203.051V199.534H54.998Z" fill="white" stroke="#263238" stroke-linecap="round" stroke-linejoin="round"/>
<path d="M127.981 210.876C129.235 207.84 127.818 204.352 124.817 203.084C121.817 201.816 118.368 203.249 117.115 206.284C115.861 209.32 117.278 212.809 120.278 214.077C123.279 215.345 126.728 213.912 127.981 210.876Z" fill="#263238" stroke="#263238" stroke-linecap="round" stroke-linejoin="round"/>
<path d="M119.067 208.579C119.066 209.276 119.269 209.957 119.651 210.537C120.034 211.117 120.577 211.57 121.214 211.837C121.85 212.104 122.55 212.174 123.226 212.038C123.902 211.903 124.523 211.567 125.01 211.074C125.497 210.581 125.829 209.953 125.963 209.27C126.097 208.586 126.028 207.878 125.764 207.234C125.5 206.59 125.053 206.04 124.479 205.653C123.906 205.267 123.232 205.061 122.543 205.062C121.622 205.063 120.738 205.434 120.086 206.094C119.435 206.753 119.068 207.647 119.067 208.579Z" fill="white" stroke="#263238" stroke-linecap="round" stroke-linejoin="round"/>
<path d="M128.507 199.534V203.051H122.543V208.579H120.308L116.337 203.051V199.534H128.507Z" fill="white" stroke="#263238" stroke-linecap="round" stroke-linejoin="round"/>
<path d="M3.00816 200.07H73.6464V195.645H3.00816V200.07Z" fill="white" stroke="#263238" stroke-linecap="round" stroke-linejoin="round"/>
<path d="M5.02635 200.07H75.6646V195.645H5.02635V200.07Z" fill="white" stroke="#263238" stroke-linecap="round" stroke-linejoin="round"/>
<path d="M29.4117 196.329H62.546L62.546 164.085H29.4117L29.4117 196.329Z" fill="white" stroke="#263238" stroke-linecap="round" stroke-linejoin="round"/>
<path d="M24.5377 200.07H73.6464V195.645H24.5377V200.07Z" fill="white" stroke="#263238" stroke-linecap="round" stroke-linejoin="round"/>
<path d="M60.8609 200.07H131.499V195.645H60.8609V200.07Z" fill="white" stroke="#263238" stroke-linecap="round" stroke-linejoin="round"/>
<path d="M63.8882 200.07H134.526V195.645H63.8882V200.07Z" fill="white" stroke="#263238" stroke-linecap="round" stroke-linejoin="round"/>
<path d="M20.582 132.52H47.1571C47.9457 132.52 48.585 131.874 48.585 131.076V123.756C48.585 122.959 47.9457 122.312 47.1571 122.312H20.582C19.7934 122.312 19.1541 122.959 19.1541 123.756V131.076C19.1541 131.874 19.7934 132.52 20.582 132.52Z" fill="#BDBDBD" stroke="#263238" stroke-linecap="round" stroke-linejoin="round"/>
<path d="M15.5364 132.52H39.4878C40.2764 132.52 40.9157 131.874 40.9157 131.076V123.756C40.9157 122.959 40.2764 122.312 39.4878 122.312H15.5364C14.7478 122.312 14.1085 122.959 14.1085 123.756V131.076C14.1085 131.874 14.7478 132.52 15.5364 132.52Z" fill="#263238" stroke="#263238" stroke-linecap="round" stroke-linejoin="round"/>
<path d="M33.4481 104.11L34.1243 115.171C34.1243 115.171 46.7382 118.234 47.5758 119.081C48.4134 119.928 54.4731 127.758 54.8112 128.268C55.1492 128.779 53.802 130.821 53.1259 131.331C52.4498 131.841 50.6031 133.373 49.594 132.862C48.5849 132.352 46.2337 131.331 46.2337 130.821C46.2337 130.31 47.7473 129.973 47.7473 129.973L43.3829 122.143H23.7051C23.7051 122.143 21.8534 121.296 21.8534 119.423C21.8534 117.55 22.0502 111.935 22.0502 111.935L22.3479 103.089" fill="#263238"/>
<path d="M33.4481 104.11L34.1243 115.171C34.1243 115.171 46.7382 118.234 47.5758 119.081C48.4134 119.928 54.4731 127.758 54.8112 128.268C55.1492 128.779 53.802 130.821 53.1259 131.331C52.4498 131.841 50.6031 133.373 49.594 132.862C48.5849 132.352 46.2337 131.331 46.2337 130.821C46.2337 130.31 47.7473 129.973 47.7473 129.973L43.3829 122.143H23.7051C23.7051 122.143 21.8534 121.296 21.8534 119.423C21.8534 117.55 22.0502 111.935 22.0502 111.935L22.3479 103.089" stroke="#263238" stroke-linecap="round" stroke-linejoin="round"/>
<path d="M23.7051 122.143C23.7051 122.143 21.8534 121.296 21.8534 119.423C21.8534 118.131 21.6061 114.712 21.8534 113.129C26.7324 110.414 31.6115 112.205 34.0233 113.359L34.1343 115.171C34.1343 115.171 46.7483 118.234 47.5858 119.081C48.4234 119.928 54.4832 127.758 54.8212 128.269C55.1593 128.779 53.8121 130.821 53.136 131.331C52.4599 131.841 50.6132 133.373 49.6041 132.862C48.595 132.352 46.2437 131.331 46.2437 130.821C46.2437 130.31 47.7574 129.973 47.7574 129.973L43.3829 122.143H23.7051Z" fill="white" stroke="#263238" stroke-linecap="round" stroke-linejoin="round"/>
<path d="M34.1243 115.171C34.1243 115.171 29.2351 113.17 24.4216 114.186" stroke="#263238" stroke-linecap="round" stroke-linejoin="round"/>
<path d="M53.9685 128.952L52.2883 131.673" stroke="#263238" stroke-linecap="round" stroke-linejoin="round"/>
<path d="M52.1168 129.631L49.5941 132.862" stroke="#263238" stroke-linecap="round" stroke-linejoin="round"/>
<path d="M47.7473 129.973L48.9229 131.673" stroke="#263238" stroke-linecap="round" stroke-linejoin="round"/>
<path d="M339.039 133.807L345.311 194.624" stroke="#263238" stroke-width="2" stroke-miterlimit="10"/>
<path d="M344.302 182.986L341.456 179.949" stroke="#263238" stroke-width="2" stroke-miterlimit="10"/>
<path d="M342.319 180.858C342.313 180.393 342.209 179.935 342.014 179.514C341.819 179.093 341.538 178.72 341.189 178.418C340.457 177.759 336.617 176.121 336.249 177.489C335.855 178.979 339.786 181.904 342.319 180.858Z" fill="#800000" stroke="#263238" stroke-miterlimit="10"/>
<path d="M342.319 180.858L338.661 178.55" stroke="#263238" stroke-width="0.5" stroke-miterlimit="10"/>
<path d="M345.013 189.902L342.167 186.865" stroke="#263238" stroke-width="2" stroke-miterlimit="10"/>
<path d="M343.035 187.774C343.029 187.309 342.925 186.85 342.729 186.429C342.533 186.009 342.25 185.635 341.9 185.334C341.168 184.676 337.329 183.037 336.965 184.405C336.567 185.895 340.502 188.841 343.035 187.774Z" fill="#800000" stroke="#263238" stroke-miterlimit="10"/>
<path d="M343.035 187.774L339.377 185.467" stroke="#263238" stroke-width="0.5" stroke-miterlimit="10"/>
<path d="M342.556 166.106L339.715 163.069" stroke="#263238" stroke-width="2" stroke-miterlimit="10"/>
<path d="M340.568 163.978C340.562 163.513 340.458 163.055 340.264 162.634C340.069 162.214 339.787 161.84 339.438 161.538C338.706 160.88 334.861 159.246 334.498 160.614C334.115 162.105 338.045 165.024 340.568 163.978Z" fill="#800000" stroke="#263238" stroke-miterlimit="10"/>
<path d="M340.578 163.978L336.92 161.676" stroke="#263238" stroke-width="0.5" stroke-miterlimit="10"/>
<path d="M343.272 173.023L340.427 169.985" stroke="#263238" stroke-width="2" stroke-miterlimit="10"/>
<path d="M341.289 170.894C341.285 170.429 341.182 169.971 340.987 169.55C340.792 169.129 340.51 168.755 340.159 168.454C339.428 167.796 335.588 166.162 335.225 167.53C334.826 169.021 338.757 171.94 341.289 170.894Z" fill="#800000" stroke="#263238" stroke-miterlimit="10"/>
<path d="M341.289 170.894L337.631 168.592" stroke="#263238" stroke-width="0.5" stroke-miterlimit="10"/>
<path d="M341.4 154.872L338.555 151.835" stroke="#263238" stroke-width="2" stroke-miterlimit="10"/>
<path d="M339.418 152.743C339.412 152.279 339.308 151.821 339.113 151.4C338.918 150.979 338.637 150.605 338.287 150.303C337.556 149.645 333.716 148.012 333.348 149.38C332.954 150.865 336.885 153.79 339.418 152.743Z" fill="#800000" stroke="#263238" stroke-miterlimit="10"/>
<path d="M339.418 152.743L335.759 150.436" stroke="#263238" stroke-width="0.5" stroke-miterlimit="10"/>
<path d="M340.235 143.586L337.389 140.549" stroke="#263238" stroke-width="2" stroke-miterlimit="10"/>
<path d="M338.257 141.458C338.251 140.993 338.147 140.534 337.951 140.113C337.755 139.693 337.472 139.319 337.122 139.018C336.395 138.36 332.551 136.726 332.187 138.094C331.789 139.585 335.724 142.509 338.257 141.458Z" fill="#800000" stroke="#263238" stroke-miterlimit="10"/>
<path d="M338.257 141.458L334.599 139.156" stroke="#263238" stroke-width="0.5" stroke-miterlimit="10"/>
<path d="M343.822 178.892L345.982 175.325" stroke="#263238" stroke-width="2" stroke-miterlimit="10"/>
<path d="M345.326 176.396C345.237 175.941 345.244 175.471 345.349 175.019C345.453 174.566 345.652 174.142 345.931 173.773C346.512 172.977 349.938 170.573 350.573 171.833C351.265 173.211 348.015 176.892 345.326 176.396Z" fill="#800000" stroke="#263238" stroke-miterlimit="10"/>
<path d="M345.326 176.396L348.616 173.211" stroke="#263238" stroke-width="0.5" stroke-miterlimit="10"/>
<path d="M341.945 160.691L344.105 157.123" stroke="#263238" stroke-width="2" stroke-miterlimit="10"/>
<path d="M343.449 158.215C343.358 157.759 343.365 157.289 343.469 156.837C343.574 156.384 343.773 155.959 344.054 155.592C344.635 154.795 348.061 152.391 348.696 153.657C349.388 155.01 346.118 158.69 343.449 158.215Z" fill="#800000" stroke="#263238" stroke-miterlimit="10"/>
<path d="M343.449 158.195L346.739 155.01" stroke="#263238" stroke-width="0.5" stroke-miterlimit="10"/>
<path d="M341.118 152.692L343.282 149.124" stroke="#263238" stroke-width="2" stroke-miterlimit="10"/>
<path d="M342.621 150.196C342.532 149.74 342.541 149.27 342.646 148.818C342.751 148.365 342.951 147.941 343.232 147.573C343.812 146.776 347.238 144.372 347.874 145.638C348.565 147.011 345.311 150.691 342.621 150.196Z" fill="#800000" stroke="#263238" stroke-miterlimit="10"/>
<path d="M342.621 150.196L345.916 147.011" stroke="#263238" stroke-width="0.5" stroke-miterlimit="10"/>
<path d="M339.907 140.968L342.071 137.4" stroke="#263238" stroke-width="2" stroke-miterlimit="10"/>
<path d="M341.411 138.472C341.321 138.016 341.33 137.546 341.435 137.093C341.54 136.641 341.74 136.216 342.021 135.848C342.601 135.052 346.027 132.648 346.663 133.909C347.354 135.287 344.1 138.967 341.411 138.472Z" fill="#800000" stroke="#263238" stroke-miterlimit="10"/>
<path d="M341.411 138.472L344.705 135.287" stroke="#263238" stroke-width="0.5" stroke-miterlimit="10"/>
<path d="M338.984 133.47C338.894 133.014 338.903 132.544 339.008 132.091C339.113 131.638 339.313 131.214 339.594 130.846C340.174 130.05 343.6 127.646 344.236 128.912C344.927 130.285 341.678 133.965 338.984 133.47Z" fill="#800000" stroke="#263238" stroke-miterlimit="10"/>
<path d="M338.984 133.47L342.278 130.285" stroke="#263238" stroke-width="0.5" stroke-miterlimit="10"/>
<path d="M339.175 133.607C338.717 133.65 338.254 133.593 337.819 133.44C337.384 133.286 336.986 133.041 336.653 132.719C335.931 132.051 333.928 128.355 335.235 127.845C336.663 127.294 339.942 130.953 339.175 133.607Z" fill="#800000" stroke="#263238" stroke-miterlimit="10"/>
<path d="M339.175 133.607L336.39 129.963" stroke="#263238" stroke-width="0.5" stroke-miterlimit="10"/>
<path d="M355.584 142.183L349.347 203.005" stroke="#263238" stroke-width="2" stroke-miterlimit="10"/>
<path d="M350.725 191.403L348.56 187.835" stroke="#263238" stroke-width="2" stroke-miterlimit="10"/>
<path d="M349.221 188.907C349.31 188.451 349.302 187.981 349.197 187.528C349.091 187.076 348.892 186.651 348.611 186.283C348.03 185.487 344.604 183.088 343.969 184.349C343.277 185.722 346.527 189.407 349.221 188.907Z" fill="#800000" stroke="#263238" stroke-miterlimit="10"/>
<path d="M349.221 188.907L346.108 185.89" stroke="#263238" stroke-width="0.5" stroke-miterlimit="10"/>
<path d="M352.455 174.523L350.291 170.96" stroke="#263238" stroke-width="2" stroke-miterlimit="10"/>
<path d="M350.952 172.032C351.041 171.575 351.032 171.105 350.927 170.651C350.822 170.198 350.622 169.773 350.341 169.404C349.761 168.607 346.335 166.208 345.699 167.469C345.008 168.847 348.262 172.507 350.952 172.032Z" fill="#800000" stroke="#263238" stroke-miterlimit="10"/>
<path d="M350.952 172.032L347.844 169.011" stroke="#263238" stroke-width="0.5" stroke-miterlimit="10"/>
<path d="M351.749 181.439L349.584 177.877" stroke="#263238" stroke-width="2" stroke-miterlimit="10"/>
<path d="M350.24 178.949C350.33 178.493 350.321 178.022 350.216 177.57C350.111 177.117 349.911 176.693 349.63 176.325C349.05 175.524 345.624 173.125 344.988 174.391C344.297 175.764 347.551 179.444 350.24 178.949Z" fill="#800000" stroke="#263238" stroke-miterlimit="10"/>
<path d="M350.24 178.949L347.132 175.927" stroke="#263238" stroke-width="0.5" stroke-miterlimit="10"/>
<path d="M353.611 163.289L351.446 159.721" stroke="#263238" stroke-width="2" stroke-miterlimit="10"/>
<path d="M352.102 160.793C352.191 160.337 352.183 159.867 352.078 159.414C351.972 158.962 351.773 158.537 351.492 158.169C350.911 157.373 347.485 154.974 346.85 156.235C346.158 157.608 349.413 161.278 352.102 160.793Z" fill="#800000" stroke="#263238" stroke-miterlimit="10"/>
<path d="M352.102 160.793L348.994 157.776" stroke="#263238" stroke-width="0.5" stroke-miterlimit="10"/>
<path d="M354.766 152.003L352.602 148.435" stroke="#263238" stroke-width="2" stroke-miterlimit="10"/>
<path d="M353.263 149.507C353.355 149.053 353.351 148.584 353.25 148.131C353.149 147.679 352.954 147.254 352.677 146.884C352.097 146.087 348.671 143.688 348.035 144.949C347.319 146.322 350.568 150.007 353.263 149.507Z" fill="#800000" stroke="#263238" stroke-miterlimit="10"/>
<path d="M353.263 149.507L350.15 146.491" stroke="#263238" stroke-width="0.5" stroke-miterlimit="10"/>
<path d="M351.088 187.299L353.934 184.257" stroke="#263238" stroke-width="2" stroke-miterlimit="10"/>
<path d="M353.071 185.171C353.072 184.704 353.172 184.243 353.365 183.819C353.559 183.395 353.84 183.019 354.191 182.716C354.918 182.052 358.762 180.413 359.126 181.787C359.534 183.287 355.604 186.217 353.071 185.171Z" fill="#800000" stroke="#263238" stroke-miterlimit="10"/>
<path d="M353.071 185.171L356.941 182.741" stroke="#263238" stroke-width="0.5" stroke-miterlimit="10"/>
<path d="M352.955 169.097L355.801 166.055" stroke="#263238" stroke-width="2" stroke-miterlimit="10"/>
<path d="M354.938 166.969C354.942 166.504 355.045 166.045 355.24 165.624C355.435 165.203 355.717 164.83 356.068 164.529C356.795 163.866 360.639 162.227 361.003 163.6C361.401 165.085 357.471 168.015 354.938 166.969Z" fill="#800000" stroke="#263238" stroke-miterlimit="10"/>
<path d="M354.938 166.969L358.808 164.539" stroke="#263238" stroke-width="0.5" stroke-miterlimit="10"/>
<path d="M353.777 161.099L356.618 158.057" stroke="#263238" stroke-width="2" stroke-miterlimit="10"/>
<path d="M355.755 158.971C355.761 158.505 355.865 158.046 356.059 157.625C356.254 157.203 356.536 156.828 356.885 156.526C357.617 155.867 361.457 154.229 361.825 155.597C362.219 157.087 358.288 160.012 355.755 158.971Z" fill="#800000" stroke="#263238" stroke-miterlimit="10"/>
<path d="M355.755 158.971L359.63 156.541" stroke="#263238" stroke-width="0.5" stroke-miterlimit="10"/>
<path d="M354.978 149.369L357.824 146.332" stroke="#263238" stroke-width="2" stroke-miterlimit="10"/>
<path d="M356.961 147.241C356.965 146.776 357.069 146.318 357.264 145.897C357.459 145.476 357.741 145.102 358.091 144.801C358.818 144.143 362.663 142.504 363.026 143.872C363.424 145.363 359.494 148.287 356.961 147.241Z" fill="#800000" stroke="#263238" stroke-miterlimit="10"/>
<path d="M356.961 147.241L360.831 144.811" stroke="#263238" stroke-width="0.5" stroke-miterlimit="10"/>
<path d="M355.599 141.841C355.605 141.376 355.709 140.917 355.905 140.496C356.101 140.075 356.383 139.702 356.734 139.401C357.461 138.742 361.3 137.104 361.669 138.472C362.067 139.962 358.137 142.902 355.599 141.841Z" fill="#800000" stroke="#263238" stroke-miterlimit="10"/>
<path d="M355.599 141.841L359.474 139.411" stroke="#263238" stroke-width="0.5" stroke-miterlimit="10"/>
<path d="M355.76 142.019C355.304 141.965 354.865 141.812 354.471 141.572C354.078 141.331 353.74 141.009 353.48 140.626C352.904 139.819 351.699 135.782 353.081 135.557C354.59 135.317 357.052 139.579 355.76 142.019Z" fill="#800000" stroke="#263238" stroke-miterlimit="10"/>
<path d="M355.76 142.019L353.777 137.87" stroke="#263238" stroke-width="0.5" stroke-miterlimit="10"/>
<path d="M348.434 117.417V194.328" stroke="#263238" stroke-width="2" stroke-miterlimit="10"/>
<path d="M348.495 182.767L345.977 179.444" stroke="#263238" stroke-width="2" stroke-miterlimit="10"/>
<path d="M346.744 180.439C346.787 179.975 346.732 179.507 346.582 179.067C346.431 178.627 346.189 178.224 345.871 177.887C345.21 177.157 341.557 175.126 341.052 176.448C340.507 177.892 344.1 181.215 346.744 180.439Z" fill="#800000" stroke="#263238" stroke-miterlimit="10"/>
<path d="M346.744 180.439L343.343 177.759" stroke="#263238" stroke-width="0.5" stroke-miterlimit="10"/>
<path d="M348.495 168.311L345.977 164.988" stroke="#263238" stroke-width="2" stroke-miterlimit="10"/>
<path d="M346.744 165.984C346.788 165.52 346.734 165.052 346.583 164.611C346.432 164.171 346.189 163.768 345.871 163.432C345.21 162.697 341.557 160.665 341.052 161.992C340.507 163.442 344.1 166.76 346.744 165.984Z" fill="#800000" stroke="#263238" stroke-miterlimit="10"/>
<path d="M346.744 165.984L343.343 163.309" stroke="#263238" stroke-width="0.5" stroke-miterlimit="10"/>
<path d="M348.495 151.34L345.977 148.022" stroke="#263238" stroke-width="2" stroke-miterlimit="10"/>
<path d="M346.744 149.027C346.787 148.564 346.732 148.096 346.582 147.655C346.431 147.215 346.189 146.813 345.871 146.475C345.21 145.745 341.557 143.714 341.052 145.036C340.507 146.475 344.1 149.793 346.744 149.027Z" fill="#800000" stroke="#263238" stroke-miterlimit="10"/>
<path d="M346.744 149.017L343.343 146.338" stroke="#263238" stroke-width="0.5" stroke-miterlimit="10"/>
<path d="M348.495 140.044L345.977 136.726" stroke="#263238" stroke-width="2" stroke-miterlimit="10"/>
<path d="M346.744 137.722C346.787 137.258 346.732 136.79 346.582 136.349C346.431 135.909 346.189 135.507 345.871 135.169C345.21 134.434 341.557 132.408 341.052 133.73C340.507 135.174 344.1 138.497 346.744 137.722Z" fill="#800000" stroke="#263238" stroke-miterlimit="10"/>
<path d="M346.744 137.722L343.343 135.042" stroke="#263238" stroke-width="0.5" stroke-miterlimit="10"/>
<path d="M348.495 128.697L345.977 125.379" stroke="#263238" stroke-width="2" stroke-miterlimit="10"/>
<path d="M346.744 126.375C346.787 125.911 346.732 125.443 346.582 125.003C346.431 124.562 346.189 124.16 345.871 123.823C345.21 123.093 341.557 121.061 341.052 122.383C340.507 123.828 344.1 127.151 346.744 126.375Z" fill="#800000" stroke="#263238" stroke-miterlimit="10"/>
<path d="M346.744 126.375L343.343 123.695" stroke="#263238" stroke-width="0.5" stroke-miterlimit="10"/>
<path d="M348.439 187.177L350.957 183.859" stroke="#263238" stroke-width="2" stroke-miterlimit="10"/>
<path d="M350.19 184.854C350.147 184.39 350.204 183.922 350.355 183.482C350.507 183.042 350.75 182.639 351.068 182.302C351.724 181.567 355.377 179.541 355.881 180.863C356.431 182.307 352.819 185.63 350.19 184.854Z" fill="#800000" stroke="#263238" stroke-miterlimit="10"/>
<path d="M350.19 184.854L353.792 182.032" stroke="#263238" stroke-width="0.5" stroke-miterlimit="10"/>
<path d="M348.439 164.192L350.957 160.869" stroke="#263238" stroke-width="2" stroke-miterlimit="10"/>
<path d="M350.19 161.865C350.148 161.401 350.204 160.933 350.356 160.492C350.507 160.052 350.75 159.65 351.068 159.313C351.724 158.583 355.377 156.551 355.881 157.873C356.431 159.318 352.819 162.64 350.19 161.865Z" fill="#800000" stroke="#263238" stroke-miterlimit="10"/>
<path d="M350.19 161.865L353.792 159.042" stroke="#263238" stroke-width="0.5" stroke-miterlimit="10"/>
<path d="M348.439 152.845L350.957 149.523" stroke="#263238" stroke-width="2" stroke-miterlimit="10"/>
<path d="M350.19 150.518C350.147 150.054 350.203 149.586 350.354 149.145C350.506 148.705 350.749 148.303 351.068 147.966C351.724 147.231 355.377 145.199 355.881 146.526C356.431 147.976 352.819 151.294 350.19 150.518Z" fill="#800000" stroke="#263238" stroke-miterlimit="10"/>
<path d="M350.19 150.518L353.792 147.7" stroke="#263238" stroke-width="0.5" stroke-miterlimit="10"/>
<path d="M348.439 137.849L350.957 134.526" stroke="#263238" stroke-width="2" stroke-miterlimit="10"/>
<path d="M350.19 135.522C350.147 135.057 350.203 134.589 350.354 134.149C350.506 133.709 350.749 133.306 351.068 132.969C351.724 132.234 355.377 130.203 355.881 131.53C356.431 132.98 352.819 136.297 350.19 135.522Z" fill="#800000" stroke="#263238" stroke-miterlimit="10"/>
<path d="M350.19 135.522L353.792 132.704" stroke="#263238" stroke-width="0.5" stroke-miterlimit="10"/>
<path d="M348.439 126.058L350.957 122.735" stroke="#263238" stroke-width="2" stroke-miterlimit="10"/>
<path d="M350.19 123.736C350.147 123.272 350.204 122.804 350.355 122.363C350.507 121.923 350.75 121.521 351.068 121.184C351.724 120.449 355.377 118.422 355.881 119.744C356.431 121.189 352.819 124.527 350.19 123.736Z" fill="#800000" stroke="#263238" stroke-miterlimit="10"/>
<path d="M350.19 123.736L353.792 120.913" stroke="#263238" stroke-width="0.5" stroke-miterlimit="10"/>
<path d="M348.288 118.504C348.246 118.04 348.302 117.572 348.454 117.132C348.605 116.692 348.848 116.289 349.166 115.952C349.822 115.222 353.475 113.19 353.979 114.512C354.529 115.957 350.916 119.28 348.288 118.504Z" fill="#800000" stroke="#263238" stroke-miterlimit="10"/>
<path d="M348.288 118.504L351.89 115.681" stroke="#263238" stroke-width="0.5" stroke-miterlimit="10"/>
<path d="M348.464 118.662C348.005 118.656 347.551 118.55 347.135 118.352C346.719 118.154 346.35 117.868 346.052 117.514C345.402 116.774 343.792 112.884 345.144 112.517C346.623 112.119 349.504 116.1 348.464 118.662Z" fill="#800000" stroke="#263238" stroke-miterlimit="10"/>
<path d="M348.464 118.662L346.068 114.742" stroke="#263238" stroke-width="0.5" stroke-miterlimit="10"/>
<path d="M351.562 214.275H343.509L342.505 193.705H352.571L351.562 214.275Z" fill="#263238" stroke="#263238" stroke-miterlimit="10"/>
<path d="M1 214.53H363.778" stroke="#263238" stroke-linecap="round" stroke-linejoin="round"/>
</svg>
