<svg width="236" height="54" viewBox="0 0 236 54" fill="none" xmlns="http://www.w3.org/2000/svg">
<path d="M13.2617 11.1719L14.6484 11.1914C18.4505 11.2826 21.0938 11.9922 22.5781 13.3203C23.8672 14.4661 24.5117 16.1849 24.5117 18.4766C24.5117 19.6354 24.1536 20.8138 23.4375 22.0117C22.7344 23.2096 21.8424 24.2057 20.7617 25C22.3893 25.2604 23.7695 26.0286 24.9023 27.3047C26.0352 28.5677 26.6016 30.1562 26.6016 32.0703C26.6016 37.9167 22.2786 40.8398 13.6328 40.8398C11.3151 40.8398 8.61328 40.625 5.52734 40.1953C4.96745 40.1172 4.60286 39.388 4.43359 38.0078C4.38151 37.6042 4.35547 37.168 4.35547 36.6992L4.58984 23.8086C4.58984 18.7305 4.33594 15.8073 3.82812 15.0391C3.58073 14.6875 3.14453 14.4857 2.51953 14.4336C2.33724 13.9909 2.24609 13.5286 2.24609 13.0469C2.24609 12.5521 2.25911 12.2461 2.28516 12.1289V11.9922C3.26172 11.7839 4.8112 11.5951 6.93359 11.4258C9.06901 11.2565 11.1784 11.1719 13.2617 11.1719ZM10.3125 33.5156L10.2734 34.8828C10.2734 36.4062 10.5404 37.3372 11.0742 37.6758C11.9466 37.7669 12.7344 37.8125 13.4375 37.8125C14.1536 37.8125 14.8242 37.7669 15.4492 37.6758C16.0872 37.5846 16.7188 37.4154 17.3438 37.168C17.9818 36.9206 18.5221 36.6016 18.9648 36.2109C19.9544 35.3125 20.4492 34.0169 20.4492 32.3242C20.4492 29.0039 18.0924 27.3438 13.3789 27.3438C12.4805 27.3438 11.5039 27.4023 10.4492 27.5195C10.4492 29.056 10.4036 31.0547 10.3125 33.5156ZM17.3242 24.3555C18.5221 22.5846 19.1211 20.8984 19.1211 19.2969C19.1211 17.6953 18.6263 16.4453 17.6367 15.5469C16.6471 14.6484 15.1042 14.1992 13.0078 14.1992C11.9922 14.1992 10.9375 14.3034 9.84375 14.5117C10.1432 15.9049 10.3125 17.2461 10.3516 18.5352C10.3906 19.8242 10.4102 21.0091 10.4102 22.0898C10.4232 23.1706 10.4362 23.9909 10.4492 24.5508C12.2721 24.3945 13.6914 24.3164 14.707 24.3164C15.7227 24.3164 16.5951 24.3294 17.3242 24.3555ZM32.0312 15.0781C31.8099 13.8151 30.9831 13.099 29.5508 12.9297C29.4596 12.2917 29.4141 11.9336 29.4141 11.8555C29.4141 11.7643 29.4206 11.6667 29.4336 11.5625C31.8945 10.599 34.388 10.1172 36.9141 10.1172C37.0312 10.1172 37.1549 10.1172 37.2852 10.1172C37.5586 10.4688 37.7409 11.2891 37.832 12.5781C37.9232 13.8542 37.9688 16.8359 37.9688 21.5234C37.9688 26.1979 37.8971 32.3568 37.7539 40C36.8945 40.2474 35.8659 40.3711 34.668 40.3711C33.4701 40.3711 32.5391 40.2344 31.875 39.9609C32.1094 38.2161 32.2266 34.8893 32.2266 29.9805C32.2266 25.0716 32.1615 20.1042 32.0312 15.0781ZM64.8828 29.375C64.8828 31.0807 64.5768 32.6823 63.9648 34.1797C63.3529 35.6771 62.487 36.901 61.3672 37.8516C59.1146 39.7656 56.1393 40.7227 52.4414 40.7227C50.5924 40.7227 48.8867 40.2865 47.3242 39.4141C45.7617 38.5417 44.5182 37.3242 43.5938 35.7617C42.6693 34.1862 42.207 32.3112 42.207 30.1367C42.207 27.9492 42.7669 25.9831 43.8867 24.2383C46.0872 20.8008 49.7786 19.082 54.9609 19.082C57.5651 19.082 59.8503 19.974 61.8164 21.7578C63.8607 23.6198 64.8828 26.1589 64.8828 29.375ZM47.9688 29.9414C47.9688 32.168 48.6133 34.1146 49.9023 35.7812C51.1914 37.4479 52.7018 38.2812 54.4336 38.2812C57.6367 38.2812 59.2383 35.6706 59.2383 30.4492C59.2383 27.8581 58.6458 25.7552 57.4609 24.1406C56.276 22.526 54.7656 21.7188 52.9297 21.7188C52.0052 21.7188 51.2044 21.9531 50.5273 22.4219C49.8503 22.8906 49.3359 23.5221 48.9844 24.3164C48.3073 25.8398 47.9688 27.7148 47.9688 29.9414Z" fill="white"/>
<path d="M86.4193 28.872C86.3863 28.7799 86.3474 28.6901 86.3027 28.6031L86.3083 28.6155C86.1447 28.2319 84.8286 25.6804 84.6089 25.3328L78.4983 13.5L72.2319 25.623C72.0189 25.9718 70.8509 28.233 70.6894 28.6155L70.6255 28.7572C70.21 29.777 69.9975 30.8685 70 31.9702C70 34.2325 70.8955 36.4021 72.4894 38.0017C74.0834 39.6013 76.2453 40.5 78.4995 40.5C80.7536 40.5 82.9155 39.6013 84.5095 38.0017C86.1034 36.4021 86.9989 34.2325 86.9989 31.9702V31.9635L87 31.8499C87 30.7755 86.787 29.7506 86.4003 28.8169L86.4193 28.8698V28.872ZM78.5028 38.2714C77.4155 38.2716 76.3469 37.9877 75.4022 37.4475C74.4575 36.9074 73.6692 36.1296 73.115 35.1908C72.5608 34.2521 72.2598 33.1846 72.2416 32.0936C72.2233 31.0026 72.4885 29.9256 73.011 28.9688L72.9942 29.0014C72.9122 29.4395 72.8709 29.8842 72.8709 30.33V30.3311C72.8721 32.3286 73.6633 34.244 75.0707 35.6564C76.4782 37.0689 78.3867 37.8629 80.3771 37.8641C80.5038 37.8641 80.6394 37.8641 80.765 37.8574C80.0487 38.1344 79.2872 38.2749 78.5196 38.2714H78.4938H78.5028Z" fill="white"/>
<path d="M111.656 13.6914L111.48 25.7227C111.48 28.4961 111.52 31.8685 111.598 35.8398C111.598 36.7122 111.956 37.181 112.672 37.2461C112.828 37.2591 113.069 37.2656 113.395 37.2656C113.72 37.2656 113.974 37.2721 114.156 37.2852C114.299 37.5326 114.371 37.793 114.371 38.0664C114.371 38.3398 114.352 38.5742 114.312 38.7695C112.047 40.0456 110.139 40.6836 108.59 40.6836C107.509 40.5143 106.643 39.6745 105.992 38.1641C105.068 39.0495 104.156 39.6875 103.258 40.0781C102.359 40.4818 101.383 40.6836 100.328 40.6836C99.2734 40.6836 98.3099 40.5729 97.4375 40.3516C96.5781 40.1432 95.7253 39.7786 94.8789 39.2578C94.0326 38.737 93.2969 38.0859 92.6719 37.3047C91.2656 35.5469 90.5625 33.1771 90.5625 30.1953C90.5625 28.4635 90.888 26.901 91.5391 25.5078C92.1901 24.1146 93.0625 22.9818 94.1562 22.1094C96.3958 20.3255 99.0846 19.4336 102.223 19.4336C103.121 19.4336 104.365 19.5573 105.953 19.8047L105.836 14.6484C105.797 13.9974 105.549 13.4831 105.094 13.1055C104.651 12.7279 104.085 12.5065 103.395 12.4414C103.303 11.8034 103.258 11.4453 103.258 11.3672C103.258 11.276 103.264 11.1784 103.277 11.0742C105.738 10.1237 108.193 9.64844 110.641 9.64844C110.758 9.64844 110.875 9.64844 110.992 9.64844C111.174 9.89583 111.331 10.4102 111.461 11.1914C111.591 11.9727 111.656 12.806 111.656 13.6914ZM103.199 22.2852C101.272 22.2852 99.6901 22.8971 98.4531 24.1211C97.2292 25.3451 96.6172 27.2005 96.6172 29.6875C96.6172 31.3932 96.8125 32.7865 97.2031 33.8672C97.6068 34.9349 98.0495 35.7161 98.5312 36.2109C99.4818 37.1875 100.478 37.6758 101.52 37.6758C102.561 37.6758 103.355 37.5195 103.902 37.207C104.449 36.8945 105.133 36.276 105.953 35.3516C106.044 33.6328 106.09 31.543 106.09 29.082C106.09 26.6081 106.07 24.4206 106.031 22.5195C105.068 22.3633 104.124 22.2852 103.199 22.2852ZM140.66 11.1719L142.047 11.1914C145.849 11.2826 148.492 11.9922 149.977 13.3203C151.266 14.4661 151.91 16.1849 151.91 18.4766C151.91 19.6354 151.552 20.8138 150.836 22.0117C150.133 23.2096 149.241 24.2057 148.16 25C149.788 25.2604 151.168 26.0286 152.301 27.3047C153.434 28.5677 154 30.1562 154 32.0703C154 37.9167 149.677 40.8398 141.031 40.8398C138.714 40.8398 136.012 40.625 132.926 40.1953C132.366 40.1172 132.001 39.388 131.832 38.0078C131.78 37.6042 131.754 37.168 131.754 36.6992L131.988 23.8086C131.988 18.7305 131.734 15.8073 131.227 15.0391C130.979 14.6875 130.543 14.4857 129.918 14.4336C129.736 13.9909 129.645 13.5286 129.645 13.0469C129.645 12.5521 129.658 12.2461 129.684 12.1289V11.9922C130.66 11.7839 132.21 11.5951 134.332 11.4258C136.467 11.2565 138.577 11.1719 140.66 11.1719ZM137.711 33.5156L137.672 34.8828C137.672 36.4062 137.939 37.3372 138.473 37.6758C139.345 37.7669 140.133 37.8125 140.836 37.8125C141.552 37.8125 142.223 37.7669 142.848 37.6758C143.486 37.5846 144.117 37.4154 144.742 37.168C145.38 36.9206 145.921 36.6016 146.363 36.2109C147.353 35.3125 147.848 34.0169 147.848 32.3242C147.848 29.0039 145.491 27.3438 140.777 27.3438C139.879 27.3438 138.902 27.4023 137.848 27.5195C137.848 29.056 137.802 31.0547 137.711 33.5156ZM144.723 24.3555C145.921 22.5846 146.52 20.8984 146.52 19.2969C146.52 17.6953 146.025 16.4453 145.035 15.5469C144.046 14.6484 142.503 14.1992 140.406 14.1992C139.391 14.1992 138.336 14.3034 137.242 14.5117C137.542 15.9049 137.711 17.2461 137.75 18.5352C137.789 19.8242 137.809 21.0091 137.809 22.0898C137.822 23.1706 137.835 23.9909 137.848 24.5508C139.671 24.3945 141.09 24.3164 142.105 24.3164C143.121 24.3164 143.993 24.3294 144.723 24.3555ZM176.91 28.9648L176.793 35.5273C176.793 35.5924 176.793 35.6576 176.793 35.7227C176.793 36.4388 177.132 36.7969 177.809 36.7969C178.329 36.7969 178.883 36.6276 179.469 36.2891C179.651 36.4453 179.82 36.6667 179.977 36.9531C180.146 37.2266 180.243 37.4414 180.27 37.5977C178.655 39.6549 176.975 40.6836 175.23 40.6836C173.499 40.6836 172.288 39.8307 171.598 38.125C170.4 38.9583 169.176 39.5898 167.926 40.0195C166.689 40.4622 165.621 40.6836 164.723 40.6836C163.837 40.6836 163.01 40.5859 162.242 40.3906C161.487 40.1953 160.784 39.8828 160.133 39.4531C158.727 38.5417 158.023 37.0378 158.023 34.9414C158.023 33.8216 158.329 32.8451 158.941 32.0117C159.566 31.1654 160.413 30.5013 161.48 30.0195C163.525 29.0951 165.966 28.5938 168.805 28.5156L171.07 28.4375C171.161 27.3828 171.207 26.5495 171.207 25.9375C171.207 24.5573 170.94 23.5156 170.406 22.8125C169.885 22.1094 168.909 21.7578 167.477 21.7578C166.617 21.7578 165.947 22.0573 165.465 22.6562C164.996 23.2552 164.762 24.1406 164.762 25.3125C164.762 25.4688 164.54 25.6576 164.098 25.8789C163.355 26.2305 162.613 26.4062 161.871 26.4062C161.142 26.4062 160.556 26.1979 160.113 25.7812C159.684 25.3646 159.469 24.7786 159.469 24.0234C159.469 23.2682 159.742 22.5586 160.289 21.8945C160.836 21.2305 161.565 20.7161 162.477 20.3516C164.286 19.6354 166.35 19.2773 168.668 19.2773C171.09 19.2773 172.861 19.6615 173.98 20.4297C174.996 21.1068 175.719 22.0768 176.148 23.3398C176.656 24.8112 176.91 26.6862 176.91 28.9648ZM171.07 36.0742C170.901 35.1237 170.816 34.3034 170.816 33.6133C170.816 32.9102 170.836 31.9336 170.875 30.6836L168.16 30.8008C166.767 30.8008 165.693 31.1393 164.938 31.8164C164.182 32.4935 163.805 33.3398 163.805 34.3555C163.805 35.3711 164.026 36.1003 164.469 36.543C164.911 36.9857 165.803 37.207 167.145 37.207C168.499 37.207 169.807 36.8294 171.07 36.0742ZM199.566 35.7617L199.762 28.3203C199.762 26.6276 199.703 25.5599 199.586 25.1172C199.482 24.6745 199.345 24.3424 199.176 24.1211C198.811 23.6654 198.277 23.4375 197.574 23.4375C196.871 23.4375 196.272 23.5156 195.777 23.6719C194.762 24.0104 193.46 24.9609 191.871 26.5234C191.871 28.2161 191.832 32.7214 191.754 40.0391C190.309 40.2865 189.104 40.4102 188.141 40.4102C187.177 40.4102 186.363 40.2865 185.699 40.0391C185.934 36.875 186.051 33.9583 186.051 31.2891C186.051 28.6068 186.018 26.2956 185.953 24.3555C185.953 23.3659 185.602 22.7799 184.898 22.5977C184.456 22.4544 183.831 22.3503 183.023 22.2852C182.945 21.9466 182.906 21.6797 182.906 21.4844C182.906 21.276 182.932 21.0872 182.984 20.918C184.859 19.8633 187.19 19.3359 189.977 19.3359C190.432 19.3359 190.771 19.3424 190.992 19.3555C191.5 20.2279 191.78 21.7253 191.832 23.8477C194.267 20.7227 197.118 19.1602 200.387 19.1602C201.897 19.1602 203.076 19.6745 203.922 20.7031C204.781 21.7188 205.27 23.099 205.387 24.8438C205.439 25.638 205.465 26.4323 205.465 27.2266C205.465 28.0208 205.426 28.8802 205.348 29.8047C205.126 32.6172 205.016 34.7721 205.016 36.2695C205.016 36.6081 205.257 36.8685 205.738 37.0508C206.22 37.2331 206.689 37.3242 207.145 37.3242C207.613 37.3242 207.932 37.2982 208.102 37.2461C208.258 37.5977 208.336 37.9232 208.336 38.2227C208.336 38.5091 208.323 38.7044 208.297 38.8086C205.862 40.0716 204.046 40.7031 202.848 40.7031C201.65 40.7031 200.803 40.2995 200.309 39.4922C199.814 38.6719 199.566 37.4284 199.566 35.7617ZM232.477 36.9141C232.997 36.9141 233.505 36.7448 234 36.4062L234.801 37.7148C233.928 39.0299 232.802 39.9479 231.422 40.4688C230.849 40.6901 230.257 40.8008 229.645 40.8008C229.033 40.8008 228.434 40.638 227.848 40.3125C227.275 40 226.767 39.5964 226.324 39.1016C225.882 38.6068 225.445 37.9883 225.016 37.2461C224.599 36.5039 224.247 35.7943 223.961 35.1172C223.674 34.4271 223.388 33.6458 223.102 32.7734C222.75 31.7448 222.353 30.3516 221.91 28.5938C221.012 29.987 220.172 31.1198 219.391 31.9922C219.391 33.5026 219.365 36.1719 219.312 40C218.036 40.2474 216.897 40.3711 215.895 40.3711C214.905 40.3711 214.072 40.2344 213.395 39.9609C213.72 37.9948 213.883 34.3229 213.883 28.9453C213.883 23.5677 213.785 18.9453 213.59 15.0781C213.486 13.8281 212.659 13.112 211.109 12.9297C211.096 12.8516 211.077 12.7344 211.051 12.5781C210.999 12.2786 210.973 12.0638 210.973 11.9336C210.973 11.7904 210.979 11.6667 210.992 11.5625C213.427 10.599 215.914 10.1172 218.453 10.1172C218.57 10.1172 218.694 10.1172 218.824 10.1172C219.111 10.4818 219.286 11.2174 219.352 12.3242C219.417 13.431 219.449 15.6771 219.449 19.0625C219.449 22.4479 219.443 25.5599 219.43 28.3984C220.875 25.7031 222.151 23.763 223.258 22.5781C224.612 21.1328 225.751 20.2279 226.676 19.8633C227.613 19.4987 228.453 19.3164 229.195 19.3164C230.497 19.3164 231.552 19.681 232.359 20.4102C233.18 21.1263 233.59 22.0964 233.59 23.3203C233.59 24.5312 233.186 25.5013 232.379 26.2305C231.585 26.9466 230.634 27.3047 229.527 27.3047C229.293 27.3047 229.059 27.2852 228.824 27.2461C228.824 25.7617 228.538 24.7135 227.965 24.1016C227.704 23.8151 227.314 23.6719 226.793 23.6719C226.285 23.6719 225.777 23.8802 225.27 24.2969C224.762 24.7005 224.176 25.3451 223.512 26.2305C225.309 29.4466 227.027 32.0312 228.668 33.9844C230.309 35.9375 231.578 36.9141 232.477 36.9141Z" fill="white"/>
</svg>
