<svg width="85" height="100" viewBox="0 0 85 100" fill="none" xmlns="http://www.w3.org/2000/svg">
<path d="M29 54.6667H32.7818C35.76 54.6667 37.2491 54.6667 38.4451 55.3917C39.6458 56.1118 40.3124 57.412 41.6407 60.0123L48.812 74L58.7156 45L65.8822 58.9877C67.2153 61.588 67.8771 62.8882 69.0778 63.6132C70.2738 64.3333 71.7629 64.3333 74.7411 64.3333H81" stroke="white" stroke-width="4" stroke-linecap="round" stroke-linejoin="round"/>
<path d="M83 49.9986C79.3407 32.7901 65.0085 16.5849 54.5261 6.663C51.3999 3.66933 47.2515 2 42.9384 2C38.6252 2 34.4768 3.66933 31.3506 6.663C19.2482 18.1257 2 37.9695 2 58.0533C2 77.7434 17.5044 98 42.9384 98C59.105 98 71.2598 89.8206 77.9685 78.7995" stroke="white" stroke-width="4" stroke-linecap="round" stroke-linejoin="round"/>
</svg>
